SplineFontDB: 3.0
FontName: TAM-ThiruValluvarItalic
FullName: TAM-ThiruValluvarItalic
FamilyName: TAM ThiruValluvar
Weight: Regular
Copyright: Copyright (c) 2009-2015, NLCI (http://www.nlci.in/fonts/)
Version: 
ItalicAngle: 0
UnderlinePosition: -492
UnderlineWidth: 40
Ascent: 1638
Descent: 410
InvalidEm: 0
LayerCount: 2
Layer: 0 0 "Back" 1
Layer: 1 0 "Fore" 0
XUID: [1021 406 472118173 11541578]
FSType: 0
OS2Version: 3
OS2_WeightWidthSlopeOnly: 0
OS2_UseTypoMetrics: 1
CreationTime: 1403226293
ModificationTime: 1541911790
PfmFamily: 81
TTFWeight: 400
TTFWidth: 5
LineGap: 0
VLineGap: 0
Panose: 2 0 0 0 0 0 0 0 0 0
OS2TypoAscent: 304
OS2TypoAOffset: 1
OS2TypoDescent: -325
OS2TypoDOffset: 1
OS2TypoLinegap: 0
OS2WinAscent: -210
OS2WinAOffset: 1
OS2WinDescent: 17
OS2WinDOffset: 1
HheadAscent: -210
HheadAOffset: 1
HheadDescent: -17
HheadDOffset: 1
OS2SubXSize: 1434
OS2SubYSize: 1331
OS2SubXOff: 0
OS2SubYOff: 293
OS2SupXSize: 1434
OS2SupYSize: 1331
OS2SupXOff: 0
OS2SupYOff: 928
OS2StrikeYSize: 102
OS2StrikeYPos: 530
OS2Vendor: 'Alts'
OS2CodePages: 00000000.00000000
OS2UnicodeRanges: 00100001.00000000.00000000.00000000
MarkAttachClasses: 1
DEI: 91125
TtTable: prep
NPUSHB
 1
 1
SCANTYPE
PUSHW_1
 511
SCANCTRL
EndTTInstrs
ShortTable: maxp 16
  1
  0
  296
  192
  12
  307
  16
  2
  8
  64
  10
  0
  3
  557
  3
  2
EndShort
LangName: 1033 "" "" "Normal" "" "" "1.0 Thu Apr 27 12:35:12 1995"
Encoding: Custom
UnicodeInterp: none
NameList: Adobe Glyph List
DisplaySize: -48
AntiAlias: 1
FitToEm: 1
WinInfo: 0 38 14
BeginPrivate: 0
EndPrivate
Grid
-2048 1600 m 1
 4096 1600 l 1025
-2048 1500 m 1
 4096 1500 l 1025
-2048 1400 m 1
 4096 1400 l 1025
-2048 1300 m 1
 4096 1300 l 1025
-2048 1200 m 1
 4096 1200 l 1025
-2048 1100 m 1
 4096 1100 l 1025
-2048 1000 m 1
 4096 1000 l 1025
-2048 900 m 1
 4096 900 l 1025
-2048 800 m 1
 4096 800 l 1025
-2048 700 m 1
 4096 700 l 1025
-2048 600 m 1
 4096 600 l 1025
-2048 500 m 1
 4096 500 l 1025
-2048 400 m 1
 4096 400 l 1025
-2048 300 m 1

StartChar: .notdef
Encoding: 0 -1 0
Width: 949
Flags: W
HStem: 0 64<135 849> 1472 64<512 1226>
LayerCount: 2
Fore
SplineSet
58 0 m 1
 470 1536 l 1
 1303 1536 l 1
 892 0 l 1
 58 0 l 1
849 64 m 1
 1226 1472 l 1
 512 1472 l 1
 135 64 l 1
 849 64 l 1
EndSplineSet
EndChar

StartChar: exclam
Encoding: 4 33 4
Width: 634
GlyphClass: 1
Flags: HW
LayerCount: 2
Fore
SplineSet
378 227 m 256
 439 227 483 178 463 102 c 0
 445 36 377 -25 311 -25 c 0
 252 -25 208 26 228 102 c 0
 249 180 318 227 378 227 c 256
694 1407 m 256
 771 1407 799 1363 775 1274 c 0
 774 1270 768 1254 759 1226 c 2
 464 371 l 1
 371 371 l 1
 484 974 l 2
 494 1028 503 1075 512 1118 c 2
 532 1226 l 2
 538 1254 541 1270 542 1274 c 0
 566 1363 617 1407 694 1407 c 256
EndSplineSet
EndChar

StartChar: quotedbl
Encoding: 5 34 5
Width: 630
GlyphClass: 1
Flags: HW
LayerCount: 2
Fore
SplineSet
445 1362 m 1
 466 1442 516 1462 554 1462 c 0
 607 1462 625 1429 607 1362 c 1
 409 862 l 1
 378 862 l 1
 445 1362 l 1
754 1362 m 1
 770 1422 806 1462 861 1462 c 0
 899 1462 937 1442 916 1362 c 1
 715 862 l 1
 684 862 l 1
 754 1362 l 1
EndSplineSet
EndChar

StartChar: numbersign
Encoding: 6 35 6
Width: 1410
GlyphClass: 1
Flags: HW
LayerCount: 2
Fore
SplineSet
846 862 m 1
 674 569 l 1
 950 569 l 1
 1122 862 l 1
 846 862 l 1
1226 862 m 1
 1059 569 l 1
 1365 569 l 1
 1338 467 l 1
 997 467 l 1
 699 -47 l 1
 613 -14 l 1
 890 467 l 1
 614 467 l 1
 314 -47 l 1
 230 -12 l 1
 511 467 l 1
 241 467 l 1
 268 569 l 1
 569 569 l 1
 741 862 l 1
 432 862 l 1
 460 967 l 1
 802 967 l 1
 1083 1450 l 1
 1171 1417 l 1
 904 967 l 1
 1182 967 l 1
 1462 1450 l 1
 1555 1417 l 1
 1289 967 l 1
 1556 967 l 1
 1528 862 l 1
 1226 862 l 1
EndSplineSet
EndChar

StartChar: dollar
Encoding: 7 36 7
Width: 1067
GlyphClass: 1
Flags: HW
LayerCount: 2
Fore
SplineSet
610 109 m 1xe6
 657 116 828 157 880 350 c 0
 919 496 846 552 740 594 c 1
 610 109 l 1xe6
834 1266 m 1
 797 1258 642 1219 592 1032 c 0xec
 557 901 638 848 713 813 c 1
 834 1266 l 1
405 991 m 0
 486 1293 797 1357 862 1368 c 1
 903 1522 l 1
 990 1522 l 1
 951 1374 l 1
 1043 1374 1147 1358 1262 1327 c 1
 1175 1004 l 1
 1076 1004 l 1xed
 1106 1221 l 1
 1086 1256 1025 1274 924 1274 c 1
 793 786 l 1
 870 758 l 1
 1014 704 1122 610 1063 389 c 0
 999 150 731 11 581 0 c 1
 524 -211 l 1
 436 -211 l 1
 492 0 l 1
 321 10 198 28 122 53 c 1
 216 401 l 1
 311 401 l 1xf6
 284 172 l 1
 309 123 423 100 519 100 c 1
 658 618 l 1
 490 661 345 767 405 991 c 0
EndSplineSet
EndChar

StartChar: percent
Encoding: 8 37 8
Width: 1635
GlyphClass: 1
Flags: HW
LayerCount: 2
Fore
SplineSet
464 977 m 0x3bc0
 418 805 399 625 520 625 c 256
 617 625 697 742 760 977 c 0
 823 1212 806 1329 709 1329 c 0
 588 1329 510 1148 464 977 c 0x3bc0
1241 397 m 0
 1196 229 1175 43 1295 43 c 0xb3c0
 1392 43 1472 161 1535 397 c 0
 1598 632 1582 750 1485 750 c 0
 1365 750 1287 567 1241 397 c 0
322 977 m 0
 370 1155 496 1407 730 1407 c 256x3bc0
 962 1407 954 1158 906 977 c 0
 858 796 732 547 500 547 c 0
 266 547 274 797 322 977 c 0
475 0 m 1x77c0
 355 0 l 1
 1532 1374 l 1
 1650 1374 l 1
 475 0 l 1x77c0
1097 397 m 0
 1145 575 1272 827 1506 827 c 256
 1723 827 1739 608 1682 397 c 0
 1635 220 1508 -33 1275 -33 c 0xb3c0
 1041 -33 1050 220 1097 397 c 0
EndSplineSet
EndChar

StartChar: ampersand
Encoding: 9 38 9
Width: 1329
GlyphClass: 1
Flags: HW
LayerCount: 2
Fore
SplineSet
380 428 m 0xba
 328 233 423 109 571 109 c 0
 628 109 704 114 854 223 c 1
 585 682 l 1
 476 615 408 531 380 428 c 0xba
859 1300 m 0
 757 1300 666 1218 637 1108 c 0x36
 615 1026 633 944 691 862 c 2
 732 803 l 1
 899 880 954 984 979 1079 c 0
 1010 1196 983 1300 859 1300 c 0
905 1401 m 0
 1092 1401 1208 1277 1158 1092 c 0
 1103 888 927 795 782 733 c 1
 1002 362 l 1
 1025 385 1134 502 1173 602 c 0
 1178 616 1166 638 1151 641 c 2
 1052 657 l 1
 1075 743 l 1
 1466 743 l 1
 1443 657 l 1
 1300 635 l 1
 1248 537 1183 445 1107 358 c 1
 1045 289 l 1
 1148 98 l 1
 1316 88 l 1
 1292 0 l 1
 941 0 l 1
 955 49 l 1
 897 152 l 1
 802 88 l 1x76
 686 12 573 -25 462 -25 c 0
 248 -25 110 139 175 381 c 0xba
 219 545 335 665 526 741 c 1
 496 788 l 2
 419 907 441 1022 450 1055 c 0
 506 1263 697 1401 905 1401 c 0
EndSplineSet
EndChar

StartChar: quotesingle
Encoding: 10 39 10
Width: 321
GlyphClass: 1
Flags: HW
LayerCount: 2
Fore
SplineSet
445 1362 m 1
 461 1422 497 1462 552 1462 c 0
 590 1462 628 1442 607 1362 c 1
 409 862 l 1
 378 862 l 1
 445 1362 l 1
EndSplineSet
EndChar

StartChar: parenleft
Encoding: 11 40 11
Width: 712
GlyphClass: 1
Flags: HW
LayerCount: 2
Fore
SplineSet
1020 1378 m 1
 698 1324 542 951 445 590 c 0
 349 230 304 -147 597 -201 c 1
 572 -291 l 1
 209 -246 138 104 268 590 c 0
 390 1045 637 1419 1044 1468 c 1
 1020 1378 l 1
EndSplineSet
EndChar

StartChar: parenright
Encoding: 12 41 12
Width: 712
GlyphClass: 1
Flags: HW
LayerCount: 2
Fore
SplineSet
584 590 m 0
 745 1190 612 1344 433 1378 c 1
 457 1468 l 1
 820 1423 892 1077 762 590 c 0
 641 138 394 -242 -14 -291 c 1
 10 -201 l 1
 208 -167 422 -13 584 590 c 0
EndSplineSet
EndChar

StartChar: asterisk
Encoding: 13 42 13
Width: 947
GlyphClass: 1
Flags: HW
LayerCount: 2
Fore
SplineSet
574 743 m 1
 428 690 l 1
 473 842 l 1
 710 1008 l 1
 728 989 l 1
 574 743 l 1
710 1036 m 1
 466 1051 l 1
 412 1167 l 1
 558 1210 l 1
 725 1065 l 1
 710 1036 l 1
772 743 m 1
 750 989 l 1
 778 1008 l 1
 927 842 l 1
 890 690 l 1
 772 743 l 1
778 1085 m 1
 752 1085 l 1
 755 1341 l 1
 867 1466 l 1
 913 1341 l 1
 778 1085 l 1
1045 1051 m 1
 795 1036 l 1
 794 1065 l 1
 1038 1210 l 1
 1161 1167 l 1
 1045 1051 l 1
EndSplineSet
EndChar

StartChar: plus
Encoding: 14 43 14
Width: 1888
GlyphClass: 1
Flags: HW
LayerCount: 2
Fore
SplineSet
1150 551 m 1
 1003 0 l 1
 886 0 l 1
 1033 551 l 1
 521 551 l 1
 555 678 l 1
 1067 678 l 1
 1215 1229 l 1
 1332 1229 l 1
 1184 678 l 1
 1697 678 l 1
 1663 551 l 1
 1150 551 l 1
EndSplineSet
EndChar

StartChar: comma
Encoding: 15 44 15
Width: 528
GlyphClass: 1
Flags: HW
LayerCount: 2
Fore
SplineSet
144 109 m 0
 163 180 230 250 300 250 c 0
 426 250 423 122 396 20 c 0
 337 -201 130 -334 -33 -348 c 1
 -13 -274 l 1
 132 -242 225 -167 271 4 c 0
 272 7 272 11 273 14 c 1
 153 14 l 1
 136 39 134 70 144 109 c 0
EndSplineSet
EndChar

StartChar: hyphen
Encoding: 16 45 16
Width: 605
GlyphClass: 1
Flags: HW
LayerCount: 2
Fore
SplineSet
193 416 m 1
 234 569 l 1
 676 569 l 1
 635 416 l 1
 193 416 l 1
EndSplineSet
EndChar

StartChar: period
Encoding: 17 46 17
Width: 526
GlyphClass: 1
Flags: HW
LayerCount: 2
Fore
SplineSet
144 113 m 0
 166 194 242 250 308 250 c 0
 372 250 423 196 401 113 c 0
 378 27 296 -25 234 -25 c 0
 168 -25 122 30 144 113 c 0
EndSplineSet
EndChar

StartChar: slash
Encoding: 18 47 18
Width: 933
GlyphClass: 1
Flags: HW
LayerCount: 2
Fore
SplineSet
71 -190 m 1
 -51 -190 l 1
 1179 1374 l 1
 1302 1374 l 1
 71 -190 l 1
EndSplineSet
EndChar

StartChar: zero
Encoding: 19 48 19
Width: 1069
GlyphClass: 1
Flags: HW
LayerCount: 2
Fore
SplineSet
458 686 m 0
 316 157 449 70 552 70 c 256
 759 70 898 395 976 686 c 0
 1022 857 1126 1305 883 1305 c 0
 677 1305 536 977 458 686 c 0
524 -33 m 256
 302 -33 117 160 258 686 c 0
 317 907 406 1082 525 1212 c 0
 644 1342 771 1407 910 1407 c 256
 1050 1407 1145 1342 1194 1212 c 0
 1243 1082 1237 907 1178 686 c 0
 1059 242 801 -33 524 -33 c 256
EndSplineSet
EndChar

StartChar: one
Encoding: 20 49 20
Width: 1064
GlyphClass: 1
Flags: HW
LayerCount: 2
Fore
SplineSet
422 100 m 1
 447 100 470 121 476 145 c 2
 767 1233 l 1
 458 1178 l 1
 482 1270 l 1
 930 1407 l 1
 1003 1407 l 1
 664 145 l 2
 658 121 669 100 694 100 c 1
 871 92 l 1
 846 0 l 1
 202 0 l 1
 227 92 l 1
 422 100 l 1
EndSplineSet
EndChar

StartChar: two
Encoding: 21 50 21
Width: 1068
GlyphClass: 1
Flags: HW
LayerCount: 2
Fore
SplineSet
410 1102 m 0xf0
 453 1262 670 1407 910 1407 c 0
 1156 1407 1293 1251 1228 1008 c 0xf0
 1175 812 970 634 819 517 c 1
 737 454 l 2
 675 408 610 362 542 315 c 2
 335 172 l 1
 900 172 l 1
 980 348 l 1
 1074 348 l 1
 981 0 l 1xe8
 87 0 l 1
 124 137 l 1
 454 374 l 2
 715 562 956 761 1017 987 c 0
 1066 1170 991 1296 827 1296 c 0
 773 1296 717 1274 683 1257 c 2
 655 1243 l 1
 594 1016 l 1
 564 993 530 981 492 981 c 0
 420 981 391 1032 410 1102 c 0xf0
EndSplineSet
EndChar

StartChar: three
Encoding: 22 51 22
Width: 1068
GlyphClass: 1
Flags: HW
LayerCount: 2
Fore
SplineSet
1214 1053 m 0xfc
 1161 854 969 761 832 723 c 1
 999 715 1144 608 1086 391 c 0
 1018 137 745 -33 473 -33 c 0
 207 -33 118 114 143 209 c 0
 156 259 204 319 285 319 c 0
 316 319 337 314 347 305 c 1
 355 123 l 1
 402 88 453 70 506 70 c 0
 682 70 844 221 890 391 c 0xfa
 947 602 779 649 673 649 c 0
 635 649 596 646 555 641 c 1
 589 768 l 1
 594 768 618 766 638 766 c 0
 758 766 956 818 1012 1026 c 0
 1058 1198 966 1294 834 1294 c 0
 764 1294 691 1264 648 1237 c 1
 593 1032 l 1
 561 1018 l 2
 544 1010 523 1006 500 1006 c 0
 428 1006 403 1055 420 1120 c 0
 460 1269 674 1407 918 1407 c 0
 1139 1407 1272 1271 1214 1053 c 0xfc
EndSplineSet
EndChar

StartChar: four
Encoding: 23 52 23
Width: 1069
GlyphClass: 1
Flags: HW
LayerCount: 2
Fore
SplineSet
961 1145 m 1
 372 547 l 1
 801 547 l 1
 961 1145 l 1
942 408 m 1
 824 -33 l 1
 645 -33 l 1
 763 408 l 1
 184 408 l 1
 222 549 l 1
 1077 1407 l 1
 1210 1407 l 1
 979 547 l 1
 1141 547 l 1
 1104 408 l 1
 942 408 l 1
EndSplineSet
EndChar

StartChar: five
Encoding: 24 53 24
Width: 1068
GlyphClass: 1
Flags: HW
LayerCount: 2
Fore
SplineSet
512 811 m 1
 580 834 681 864 784 864 c 0
 967 864 1192 780 1102 444 c 0
 1046 236 854 -33 437 -33 c 0
 240 -33 111 102 140 209 c 0
 165 301 241 324 291 324 c 0
 309 324 324 321 339 315 c 1
 361 127 l 1
 377 103 440 68 493 68 c 0
 706 68 859 266 894 395 c 0
 951 608 861 733 660 733 c 0
 584 733 476 710 338 664 c 1
 528 1374 l 1
 1264 1374 l 1
 1217 1200 l 1
 616 1200 l 1
 512 811 l 1
EndSplineSet
EndChar

StartChar: six
Encoding: 25 54 25
Width: 1069
GlyphClass: 1
Flags: HW
LayerCount: 2
Fore
SplineSet
918 442 m 0
 956 582 950 762 735 762 c 0
 633 762 518 704 451 659 c 1
 440 630 429 593 417 547 c 0
 363 347 332 74 551 74 c 256
 766 74 877 290 918 442 c 0
522 -33 m 0
 340 -33 90 58 232 588 c 0
 392 1184 834 1407 1213 1407 c 1
 1179 1280 l 1
 1115 1282 l 2
 871 1289 612 1089 485 766 c 1
 601 852 719 895 838 895 c 0
 1076 895 1186 715 1120 469 c 0
 1040 169 780 -33 522 -33 c 0
EndSplineSet
EndChar

StartChar: seven
Encoding: 26 55 26
Width: 1068
GlyphClass: 1
Flags: HW
LayerCount: 2
Fore
SplineSet
375 35 m 1
 357 -33 l 1
 155 -33 l 1
 1114 1200 l 1
 527 1200 l 1
 447 1014 l 1
 350 1014 l 1
 446 1374 l 1
 1359 1374 l 1
 1328 1260 l 1
 375 35 l 1
EndSplineSet
EndChar

StartChar: eight
Encoding: 27 56 27
Width: 1068
GlyphClass: 1
Flags: HW
LayerCount: 2
Fore
SplineSet
354 385 m 0xe4
 306 205 372 78 554 78 c 0
 743 78 860 226 891 340 c 0
 931 491 824 554 743 596 c 2
 602 666 l 1
 526 627 399 554 354 385 c 0xe4
882 1303 m 0
 749 1303 634 1191 601 1069 c 0
 563 927 656 840 831 762 c 1
 943 836 1014 927 1043 1036 c 0xd8
 1085 1191 1022 1303 882 1303 c 0
1224 1055 m 0
 1176 876 1005 770 903 723 c 1
 1072 648 1135 532 1092 373 c 0
 1026 127 778 -33 524 -33 c 0
 250 -33 108 128 173 369 c 0xe4
 214 522 337 636 538 711 c 1
 475 743 350 835 400 1022 c 0
 462 1253 658 1407 910 1407 c 0
 1132 1407 1281 1266 1224 1055 c 0
EndSplineSet
EndChar

StartChar: nine
Encoding: 28 57 28
Width: 1069
GlyphClass: 1
Flags: HW
LayerCount: 2
Fore
SplineSet
884 1300 m 0
 690 1300 568 1121 517 932 c 0
 479 792 485 612 700 612 c 0
 802 612 917 670 984 715 c 1
 995 744 1006 781 1018 827 c 0
 1072 1027 1103 1300 884 1300 c 0
317 903 m 0
 394 1189 639 1407 913 1407 c 0
 1096 1407 1347 1316 1205 786 c 0
 1075 299 708 -33 222 -33 c 1
 256 94 l 1
 320 92 l 2
 580 84 833 303 952 608 c 1
 839 522 721 479 599 479 c 0
 356 479 252 659 317 903 c 0
EndSplineSet
EndChar

StartChar: colon
Encoding: 29 58 29
Width: 526
GlyphClass: 1
Flags: HW
LayerCount: 2
Fore
SplineSet
144 113 m 0
 166 194 242 250 308 250 c 0
 372 250 423 196 401 113 c 0
 378 27 296 -25 234 -25 c 0
 168 -25 122 30 144 113 c 0
348 874 m 0
 370 957 446 1012 512 1012 c 0
 576 1012 627 957 605 874 c 0
 582 790 502 737 439 737 c 0
 373 737 326 793 348 874 c 0
EndSplineSet
EndChar

StartChar: semicolon
Encoding: 30 59 30
Width: 528
GlyphClass: 1
Flags: HW
LayerCount: 2
Fore
SplineSet
144 109 m 0xf0
 163 180 230 250 300 250 c 0
 426 250 423 122 396 20 c 0
 337 -201 130 -334 -33 -348 c 1
 -13 -274 l 1
 134 -241 228 -164 273 14 c 1xe8
 153 14 l 1
 136 39 134 70 144 109 c 0xf0
349 874 m 0xf0
 369 948 442 1012 515 1012 c 0
 581 1012 626 956 604 874 c 0
 581 790 503 737 440 737 c 0
 374 737 327 793 349 874 c 0xf0
EndSplineSet
EndChar

StartChar: less
Encoding: 31 60 31
Width: 1888
GlyphClass: 1
Flags: HW
LayerCount: 2
Fore
SplineSet
521 551 m 1
 555 678 l 1
 1823 1149 l 1
 1789 1022 l 1
 659 614 l 1
 1571 207 l 1
 1537 80 l 1
 521 551 l 1
EndSplineSet
EndChar

StartChar: equal
Encoding: 32 61 32
Width: 1888
GlyphClass: 1
Flags: HW
LayerCount: 2
Fore
SplineSet
471 365 m 1
 505 492 l 1
 1647 492 l 1
 1613 365 l 1
 471 365 l 1
571 737 m 1
 605 864 l 1
 1747 864 l 1
 1713 737 l 1
 571 737 l 1
EndSplineSet
EndChar

StartChar: greater
Encoding: 33 62 33
Width: 1888
GlyphClass: 1
Flags: HW
LayerCount: 2
Fore
SplineSet
395 80 m 1
 429 207 l 1
 1558 614 l 1
 647 1022 l 1
 681 1149 l 1
 1697 678 l 1
 1663 551 l 1
 395 80 l 1
EndSplineSet
EndChar

StartChar: question
Encoding: 34 63 34
Width: 920
GlyphClass: 1
Flags: HW
LayerCount: 2
Fore
SplineSet
416 1206 m 0xd8
 448 1327 597 1407 773 1407 c 0
 1001 1407 1131 1265 1071 1040 c 0
 1025 869 888 726 661 626 c 1
 590 596 l 1
 529 369 l 1
 422 369 l 1
 502 666 l 1
 610 700 816 809 874 1024 c 0
 935 1250 813 1307 677 1307 c 1
 543 1098 l 1
 537 1097 533 1097 528 1097 c 0
 524 1096 521 1096 518 1096 c 2
 511 1096 l 2
 454 1096 392 1118 416 1206 c 0xd8
290 102 m 0xe8
 311 180 380 227 440 227 c 0
 513 227 541 163 524 100 c 0
 505 28 436 -25 373 -25 c 0
 302 -25 273 37 290 102 c 0xe8
EndSplineSet
EndChar

StartChar: at
Encoding: 35 64 35
Width: 1776
GlyphClass: 1
Flags: HW
LayerCount: 2
Fore
SplineSet
1244 922 m 0xbf
 1060 922 886 731 816 469 c 0
 777 322 805 248 905 248 c 0
 969 248 1045 292 1135 381 c 1
 1325 805 l 1
 1343 840 1316 922 1244 922 c 0xbf
268 489 m 0
 424 1070 918 1415 1370 1415 c 0
 1738 1415 1962 1193 1847 764 c 0
 1733 339 1395 115 1209 115 c 0xdf
 1090 115 1080 189 1106 285 c 1
 973 173 865 117 784 117 c 0xbf
 641 117 582 249 636 451 c 0
 721 769 1025 1008 1259 1008 c 0
 1318 1008 1375 989 1431 952 c 1
 1478 999 l 1
 1584 999 l 1
 1582 995 1577 984 1567 964 c 2
 1292 391 l 2
 1280 368 1271 346 1266 326 c 0
 1249 262 1267 231 1320 231 c 0xdf
 1432 231 1665 434 1753 762 c 0
 1854 1138 1647 1325 1371 1325 c 0
 918 1325 531 962 414 526 c 0
 304 115 458 -211 883 -211 c 0
 969 -211 1134 -209 1426 -59 c 1
 1434 -133 l 1
 1076 -312 896 -313 811 -313 c 0
 409 -313 133 -15 268 489 c 0
EndSplineSet
EndChar

StartChar: A
Encoding: 36 65 36
Width: 1282
GlyphClass: 1
Flags: HW
LayerCount: 2
Fore
SplineSet
904 1143 m 1
 575 606 l 1
 947 606 l 1
 904 1143 l 1
821 0 m 1
 845 88 l 1
 957 98 l 1
 971 98 987 122 986 133 c 2
 955 508 l 1
 515 508 l 1
 290 139 l 2
 280 122 292 98 306 98 c 1
 416 88 l 1
 392 0 l 1
 9 0 l 1
 33 88 l 1
 150 113 l 1
 940 1407 l 1
 1084 1407 l 1
 1187 143 l 1
 1187 117 1191 110 1216 104 c 2
 1297 88 l 1
 1274 0 l 1
 821 0 l 1
EndSplineSet
EndChar

StartChar: B
Encoding: 37 66 37
Width: 1149
GlyphClass: 1
Flags: HW
LayerCount: 2
Fore
SplineSet
1185 406 m 0xf4
 1098 81 804 0 593 0 c 2
 60 0 l 1
 84 88 l 1
 186 96 l 2
 222 99 236 132 238 141 c 2
 531 1233 l 2
 536 1251 532 1274 503 1278 c 1
 405 1286 l 1
 428 1374 l 1
 938 1374 l 2
 1224 1374 1337 1264 1278 1044 c 0xf8
 1236 887 1116 782 919 729 c 1
 1067 729 1254 664 1185 406 c 0xf4
739 659 m 0
 688 659 599 647 565 647 c 1
 420 106 l 1
 465 102 503 100 536 100 c 0
 759 100 912 160 973 389 c 0xf4
 1031 605 905 659 739 659 c 0
843 1280 m 0
 799 1280 754 1274 733 1274 c 1
 594 756 l 1
 602 755 611 755 619 755 c 0
 626 754 635 754 642 754 c 2
 662 754 l 2
 921 754 1025 864 1069 1030 c 0xf8
 1114 1197 1038 1280 843 1280 c 0
EndSplineSet
EndChar

StartChar: C
Encoding: 38 67 38
Width: 1190
GlyphClass: 1
Flags: HW
LayerCount: 2
Fore
SplineSet
1095 1292 m 0
 908 1292 603 1165 476 690 c 0
 406 430 409 80 795 80 c 0
 854 80 908 92 958 115 c 1
 980 123 996 137 1006 156 c 2
 1109 379 l 1
 1220 379 l 1
 1131 47 l 1
 1086 25 882 -33 729 -33 c 0
 301 -33 158 316 258 690 c 0
 368 1101 708 1407 1117 1407 c 0
 1197 1407 1283 1392 1376 1361 c 1
 1474 1327 l 1
 1388 1006 l 1
 1273 1006 l 1
 1295 1192 l 2
 1303 1253 1177 1292 1095 1292 c 0
EndSplineSet
EndChar

StartChar: D
Encoding: 39 68 39
Width: 1322
GlyphClass: 1
Flags: HW
LayerCount: 2
Fore
SplineSet
1219 686 m 0
 1303 998 1278 1276 882 1276 c 2
 737 1276 l 1
 421 98 l 1
 576 100 l 1
 900 103 1115 298 1219 686 c 0
1435 690 m 0
 1356 396 1118 0 589 0 c 2
 60 0 l 1
 84 88 l 1
 186 96 l 2
 223 99 237 130 240 141 c 2
 533 1233 l 2
 536 1244 538 1275 503 1278 c 2
 405 1286 l 1
 428 1374 l 1
 919 1374 l 2
 1328 1374 1559 1153 1435 690 c 0
EndSplineSet
EndChar

StartChar: E
Encoding: 40 69 40
Width: 1107
GlyphClass: 1
Flags: HW
LayerCount: 2
Fore
SplineSet
886 766 m 2xf2
 905 766 925 787 929 801 c 1xfa
 987 942 l 1
 1083 942 l 1
 961 485 l 1
 864 485 l 1xf4
 883 627 l 1
 887 642 875 664 858 664 c 2
 573 664 l 1
 422 100 l 1
 903 100 l 2
 923 100 944 130 948 139 c 2
 1037 342 l 1
 1139 342 l 1
 1048 0 l 1xf9
 60 0 l 1
 84 88 l 1
 184 96 l 2
 221 99 235 130 238 141 c 2
 531 1233 l 2
 534 1244 536 1275 501 1278 c 2
 405 1286 l 1
 428 1374 l 1
 1354 1374 l 1
 1272 1069 l 1
 1157 1069 l 1
 1174 1237 l 2
 1176 1253 1170 1276 1150 1276 c 2
 737 1276 l 1
 600 766 l 1
 886 766 l 2xf2
EndSplineSet
EndChar

StartChar: F
Encoding: 41 70 41
Width: 1028
GlyphClass: 1
Flags: HW
LayerCount: 2
Fore
SplineSet
1141 1049 m 1
 1165 1237 l 2
 1167 1262 1160 1274 1142 1274 c 2
 737 1274 l 1
 594 741 l 1
 885 741 l 2
 905 741 925 769 929 778 c 2
 985 922 l 1
 1080 922 l 1
 957 461 l 1
 862 461 l 1
 883 604 l 2
 884 613 878 641 858 641 c 2
 567 641 l 1
 433 141 l 2
 426 116 438 99 461 96 c 1
 586 88 l 1
 563 0 l 1
 62 0 l 1
 86 88 l 1
 188 96 l 2
 224 99 238 132 240 141 c 2
 533 1233 l 2
 538 1251 534 1274 505 1278 c 1
 391 1286 l 1
 415 1374 l 1
 1341 1374 l 1
 1254 1049 l 1
 1141 1049 l 1
EndSplineSet
EndChar

StartChar: G
Encoding: 42 71 42
Width: 1320
GlyphClass: 1
Flags: HW
LayerCount: 2
Fore
SplineSet
477 700 m 0xfa
 386 362 461 82 800 82 c 0
 857 82 933 102 948 106 c 2
 975 113 l 1
 1085 522 l 2
 1092 548 1083 562 1057 565 c 2
 932 575 l 1
 956 664 l 1
 1452 664 l 1
 1428 575 l 1
 1329 565 l 2
 1301 562 1285 548 1278 522 c 2
 1151 49 l 1xfc
 1000 -6 858 -33 729 -33 c 0
 308 -33 154 303 258 690 c 0
 383 1155 746 1407 1139 1407 c 0
 1224 1407 1315 1392 1413 1362 c 2
 1494 1337 l 1
 1405 1006 l 1
 1291 1006 l 1
 1310 1190 l 2
 1312 1213 1304 1229 1285 1239 c 2
 1255 1254 l 2
 1205 1279 1154 1292 1101 1292 c 0
 889 1292 598 1152 477 700 c 0xfa
EndSplineSet
EndChar

StartChar: H
Encoding: 43 72 43
Width: 1412
GlyphClass: 1
Flags: HW
LayerCount: 2
Fore
SplineSet
871 0 m 1
 895 88 l 1
 1006 96 l 2
 1031 98 1052 117 1058 141 c 2
 1199 670 l 1
 573 670 l 1
 431 141 l 2
 424 116 436 99 459 96 c 1
 565 88 l 1
 542 0 l 1
 60 0 l 1
 84 88 l 1
 184 96 l 2
 221 99 235 130 238 141 c 2
 531 1233 l 2
 533 1242 538 1273 501 1276 c 2
 404 1284 l 1
 428 1374 l 1
 910 1374 l 1
 886 1284 l 1
 775 1276 l 2
 738 1273 725 1242 723 1233 c 2
 600 772 l 1
 1227 772 l 1
 1350 1233 l 2
 1356 1257 1343 1274 1322 1276 c 2
 1215 1284 l 1
 1239 1374 l 1
 1721 1374 l 1
 1697 1284 l 1
 1596 1276 l 2
 1558 1273 1545 1242 1543 1233 c 2
 1250 141 l 2
 1247 130 1245 99 1280 96 c 2
 1376 88 l 1
 1353 0 l 1
 871 0 l 1
EndSplineSet
EndChar

StartChar: I
Encoding: 44 73 44
Width: 625
GlyphClass: 1
Flags: W
HStem: 0 88<85 201 474 564> 1284 90<430 517 790 908>
LayerCount: 2
Fore
SplineSet
62 0 m 1
 85 88 l 1
 201 96 l 2
 237 99 251 132 253 141 c 2
 546 1233 l 2
 555 1267 529 1275 517 1276 c 2
 406 1284 l 1
 430 1374 l 1
 932 1374 l 1
 908 1284 l 1
 790 1276 l 2
 752 1273 740 1239 738 1233 c 2
 446 141 l 2
 443 131 441 100 474 96 c 1
 588 88 l 1
 564 0 l 1
 62 0 l 1
EndSplineSet
EndChar

StartChar: J
Encoding: 45 74 45
Width: 921
GlyphClass: 1
Flags: HW
LayerCount: 2
Fore
SplineSet
295 -33 m 0
 197 -33 77 10 53 25 c 1
 147 375 l 1
 261 375 l 1
 236 125 l 2
 233 90 258 72 309 72 c 0
 501 72 598 254 665 504 c 2
 860 1233 l 2
 865 1251 861 1274 832 1278 c 1
 715 1286 l 1
 738 1374 l 1
 1241 1374 l 1
 1218 1286 l 1
 1105 1278 l 2
 1080 1276 1059 1257 1053 1233 c 2
 861 518 l 2
 781 218 630 -33 295 -33 c 0
EndSplineSet
EndChar

StartChar: K
Encoding: 46 75 46
Width: 1214
GlyphClass: 1
Flags: HW
LayerCount: 2
Fore
SplineSet
880 0 m 1
 897 63 l 1
 689 610 l 1
 556 610 l 1
 431 141 l 2
 428 130 426 99 461 96 c 2
 567 88 l 1
 544 0 l 1
 60 0 l 1
 84 88 l 1
 186 96 l 2
 222 99 236 132 238 141 c 2
 531 1233 l 2
 536 1251 532 1274 503 1278 c 1
 405 1286 l 1
 428 1374 l 1
 912 1374 l 1
 888 1286 l 1
 777 1278 l 2
 740 1275 726 1244 723 1233 c 2
 579 696 l 1
 648 696 l 1
 1209 1241 l 1
 1222 1255 1215 1273 1204 1276 c 1
 1109 1286 l 1
 1132 1374 l 1
 1536 1374 l 1
 1512 1286 l 1
 1489 1284 1468 1282 1450 1279 c 2
 1405 1274 l 2
 1391 1272 1382 1271 1379 1270 c 1
 856 770 l 1
 1103 98 l 1
 1238 88 l 1
 1214 0 l 1
 880 0 l 1
EndSplineSet
EndChar

StartChar: L
Encoding: 47 76 47
Width: 1009
GlyphClass: 1
Flags: HW
LayerCount: 2
Fore
SplineSet
50 0 m 1
 74 88 l 1
 186 96 l 2
 222 99 236 132 238 141 c 2
 531 1233 l 2
 536 1251 532 1274 503 1278 c 1
 395 1286 l 1
 418 1374 l 1
 905 1374 l 1
 881 1286 l 1
 778 1278 l 2
 741 1275 727 1244 724 1233 c 2
 420 100 l 1
 820 100 l 2
 840 100 864 119 871 135 c 2
 968 381 l 1
 1078 381 l 1
 976 0 l 1
 50 0 l 1
EndSplineSet
EndChar

StartChar: M
Encoding: 48 77 48
Width: 1665
GlyphClass: 1
Flags: HW
LayerCount: 2
Fore
SplineSet
1128 0 m 1
 1151 88 l 1
 1255 96 l 2
 1292 99 1306 130 1309 141 c 2
 1611 1270 l 1
 833 0 l 1
 738 0 l 1
 650 1251 l 1
 353 141 l 2
 350 130 348 99 383 96 c 2
 489 88 l 1
 466 0 l 1
 54 0 l 1
 77 88 l 1
 188 96 l 2
 224 99 238 132 240 141 c 2
 533 1233 l 2
 538 1251 534 1274 505 1278 c 1
 398 1286 l 1
 422 1374 l 1
 849 1374 l 1
 834 1319 l 1
 909 313 l 1
 1522 1313 l 1
 1539 1374 l 1
 1977 1374 l 1
 1953 1286 l 1
 1848 1278 l 2
 1811 1275 1797 1244 1794 1233 c 2
 1501 141 l 2
 1498 130 1496 99 1531 96 c 2
 1632 88 l 1
 1609 0 l 1
 1128 0 l 1
EndSplineSet
EndChar

StartChar: N
Encoding: 49 78 49
Width: 1371
GlyphClass: 1
Flags: HW
LayerCount: 2
Fore
SplineSet
1553 1278 m 2
 1517 1275 1503 1242 1501 1233 c 2
 1171 0 l 1
 1022 0 l 1
 621 1147 l 1
 351 141 l 2
 344 116 356 99 379 96 c 1
 486 88 l 1
 462 0 l 1
 50 0 l 1
 74 88 l 1
 185 96 l 2
 222 99 236 130 239 141 c 2
 531 1233 l 2
 534 1244 536 1275 501 1278 c 2
 391 1286 l 1
 415 1374 l 1
 792 1374 l 1
 778 1323 l 1
 1137 293 l 1
 1389 1233 l 2
 1392 1243 1394 1274 1361 1278 c 2
 1254 1286 l 1
 1278 1374 l 1
 1685 1374 l 1
 1661 1286 l 1
 1553 1278 l 2
EndSplineSet
EndChar

StartChar: O
Encoding: 50 79 50
Width: 1389
GlyphClass: 1
Flags: W
HStem: -33 113<556.714 892.562> 1290 117<863.934 1200.02>
LayerCount: 2
Fore
SplineSet
476 688 m 0
 388 361 441 80 713 80 c 0
 1013 80 1203 401 1279 684 c 0
 1353 962 1341 1290 1042 1290 c 0
 742 1290 553 975 476 688 c 0
257 688 m 0
 367 1100 698 1407 1071 1407 c 0
 1444 1407 1607 1086 1500 686 c 0
 1394 289 1059 -33 687 -33 c 0
 313 -33 146 272 257 688 c 0
EndSplineSet
EndChar

StartChar: P
Encoding: 51 80 51
Width: 1100
GlyphClass: 1
Flags: HW
LayerCount: 2
Fore
SplineSet
563 627 m 1
 574 627 624 616 667 616 c 0
 878 613 1026 733 1086 958 c 0
 1154 1211 1015 1274 833 1274 c 0
 809 1274 796 1273 772 1273 c 0
 761 1272 748 1272 736 1272 c 1
 563 627 l 1
1285 961 m 0
 1202 651 932 511 668 514 c 0
 644 514 616 516 586 518 c 2
 553 520 l 2
 544 521 538 521 535 522 c 1
 433 141 l 2
 426 116 438 99 461 96 c 1
 584 88 l 1
 561 0 l 1
 60 0 l 1
 84 88 l 1
 187 96 l 2
 224 99 237 130 240 141 c 2
 533 1233 l 2
 536 1244 538 1275 503 1278 c 2
 391 1286 l 1
 415 1374 l 1
 870 1374 l 2
 1188 1374 1373 1291 1285 961 c 0
EndSplineSet
EndChar

StartChar: Q
Encoding: 52 81 52
Width: 1403
GlyphClass: 1
Flags: HW
LayerCount: 2
Fore
SplineSet
480 690 m 0
 381 320 479 80 723 80 c 0
 1023 80 1216 405 1291 686 c 0
 1367 971 1349 1292 1048 1292 c 0
 747 1292 558 981 480 690 c 0
257 686 m 0
 366 1092 701 1407 1077 1407 c 0
 1456 1407 1627 1101 1516 686 c 0
 1411 293 1125 32 799 -23 c 1
 750 -227 878 -270 996 -270 c 0
 1070 -270 1135 -263 1186 -248 c 1
 1162 -336 l 1
 1155 -336 1025 -371 870 -371 c 0
 598 -371 540 -233 595 -27 c 1
 282 23 155 306 257 686 c 0
EndSplineSet
EndChar

StartChar: R
Encoding: 53 82 53
Width: 1234
GlyphClass: 1
Flags: HW
LayerCount: 2
Fore
SplineSet
623 712 m 2x3c
 645 712 661 711 678 711 c 0
 937 711 1037 827 1084 1001 c 0
 1128 1165 1075 1274 822 1274 c 2
 734 1274 l 1
 584 713 l 1
 588 713 590 712 604 712 c 2
 623 712 l 2x3c
1294 1010 m 0
 1235 790 1059 708 890 668 c 1
 994 639 1079 580 1065 382 c 1
 1060 294 l 1
 1051 140 1113 86 1258 86 c 1
 1233 -6 l 1
 1213 -9 1156 -33 1100 -33 c 0xbc
 953 -33 875 27 876 236 c 2
 876 343 l 2
 877 546 798 612 643 612 c 0
 592 612 573 608 556 608 c 1
 431 141 l 2
 424 116 436 99 459 96 c 1
 557 88 l 1
 533 0 l 1
 60 0 l 1
 84 88 l 1x7c
 184 96 l 2
 221 99 235 130 238 141 c 2
 531 1233 l 2
 534 1244 536 1275 501 1278 c 2
 405 1286 l 1
 428 1374 l 1
 925 1374 l 2
 1184 1374 1372 1301 1294 1010 c 0
EndSplineSet
EndChar

StartChar: S
Encoding: 54 83 54
Width: 989
GlyphClass: 1
Flags: HW
LayerCount: 2
Fore
SplineSet
883 1296 m 0xd4
 721 1296 607 1186 572 1055 c 0xd4
 533 910 637 847 761 786 c 1
 853 739 l 1
 1042 639 1052 508 1019 385 c 0
 972 210 796 -33 402 -33 c 0
 275 -33 169 -8 84 43 c 1
 182 406 l 1
 302 406 l 1
 265 174 l 1
 256 98 419 82 464 82 c 0
 636 82 770 179 809 324 c 0xe8
 835 421 783 507 653 581 c 1
 558 637 l 2
 443 705 304 785 363 1006 c 0
 429 1252 659 1407 910 1407 c 0
 996 1407 1080 1391 1166 1360 c 2
 1227 1337 l 1
 1142 1018 l 1
 1033 1018 l 1
 1057 1214 l 1
 1061 1263 969 1296 883 1296 c 0xd4
EndSplineSet
EndChar

StartChar: T
Encoding: 55 84 55
Width: 1139
GlyphClass: 1
Flags: HW
LayerCount: 2
Fore
SplineSet
1278 1047 m 1xdc
 1302 1239 l 1
 1304 1262 1297 1274 1280 1274 c 2
 1008 1274 l 1
 704 141 l 2
 697 116 709 99 732 96 c 1
 852 88 l 1
 828 0 l 1
 312 0 l 1
 335 88 l 1
 459 96 l 2
 495 99 509 132 511 141 c 2
 815 1274 l 1
 541 1274 l 2xbc
 515 1274 502 1247 499 1239 c 2
 421 1047 l 1
 311 1047 l 1
 398 1374 l 1
 1478 1374 l 1
 1390 1047 l 1
 1278 1047 l 1xdc
EndSplineSet
EndChar

StartChar: U
Encoding: 56 85 56
Width: 1353
GlyphClass: 1
Flags: HW
LayerCount: 2
Fore
SplineSet
529 508 m 2
 456 235 501 104 743 104 c 0
 938 104 1092 196 1176 508 c 2
 1371 1233 l 2
 1374 1244 1376 1275 1341 1278 c 2
 1234 1286 l 1
 1258 1374 l 1
 1672 1374 l 1
 1648 1286 l 1
 1535 1278 l 2
 1499 1275 1485 1242 1483 1233 c 2
 1275 455 l 2
 1206 199 1047 -33 655 -33 c 0
 345 -33 234 130 321 455 c 2
 529 1233 l 2
 534 1251 530 1274 501 1278 c 1
 402 1286 l 1
 425 1374 l 1
 910 1374 l 1
 886 1286 l 1
 775 1278 l 2
 739 1275 725 1242 723 1233 c 2
 529 508 l 2
EndSplineSet
EndChar

StartChar: V
Encoding: 57 86 57
Width: 1267
GlyphClass: 1
Flags: HW
LayerCount: 2
Fore
SplineSet
1478 1264 m 1
 703 -33 l 1
 558 -33 l 1
 470 1266 l 1
 363 1286 l 1
 386 1374 l 1
 842 1374 l 1
 818 1286 l 1
 703 1276 l 1
 688 1273 676 1250 677 1239 c 2
 740 227 l 1
 1332 1235 l 2
 1342 1252 1331 1273 1317 1276 c 1
 1215 1286 l 1
 1238 1374 l 1
 1617 1374 l 1
 1593 1286 l 1
 1478 1264 l 1
EndSplineSet
EndChar

StartChar: W
Encoding: 58 87 58
Width: 1772
GlyphClass: 1
Flags: HW
LayerCount: 2
Fore
SplineSet
1975 1262 m 1
 1337 -33 l 1
 1198 -33 l 1
 1184 1102 l 1
 568 -33 l 1
 431 -33 l 1
 467 1262 l 1
 363 1286 l 1
 386 1374 l 1
 823 1374 l 1
 799 1286 l 1
 682 1274 l 2
 662 1271 653 1249 652 1233 c 2
 631 309 l 1
 1215 1374 l 1
 1362 1374 l 1
 1375 276 l 1
 1842 1233 l 2
 1851 1253 1844 1271 1826 1274 c 2
 1709 1286 l 1
 1733 1374 l 1
 2122 1374 l 1
 2098 1286 l 1
 1975 1262 l 1
EndSplineSet
EndChar

StartChar: X
Encoding: 59 88 59
Width: 1206
GlyphClass: 1
Flags: HW
LayerCount: 2
Fore
SplineSet
699 0 m 1
 723 88 l 1
 835 100 l 2
 853 102 876 120 870 143 c 1
 732 571 l 1
 322 137 l 1
 303 120 310 100 335 98 c 2
 446 88 l 1
 423 0 l 1
 18 0 l 1
 42 88 l 1
 163 113 l 1
 697 678 l 1
 507 1262 l 1
 388 1286 l 1
 411 1374 l 1
 889 1374 l 1
 866 1286 l 1
 767 1276 l 2
 740 1273 724 1253 732 1235 c 1
 862 850 l 1
 1220 1229 l 1
 1240 1254 1227 1270 1211 1272 c 2
 1117 1286 l 1
 1141 1374 l 1
 1540 1374 l 1
 1516 1286 l 1
 1388 1266 l 1
 894 743 l 1
 1100 113 l 1
 1212 88 l 1
 1188 0 l 1
 699 0 l 1
EndSplineSet
EndChar

StartChar: Y
Encoding: 60 89 60
Width: 1191
GlyphClass: 1
Flags: HW
LayerCount: 2
Fore
SplineSet
1409 1266 m 1
 843 584 l 1
 725 141 l 2
 722 131 720 100 753 96 c 1
 872 88 l 1
 849 0 l 1
 334 0 l 1
 358 88 l 1
 478 96 l 2
 515 99 529 130 532 141 c 2
 643 553 l 1
 467 1262 l 1
 363 1286 l 1
 386 1374 l 1
 838 1374 l 1
 815 1286 l 1
 716 1276 l 1
 690 1272 678 1253 683 1235 c 1
 808 700 l 1
 1245 1229 l 2
 1263 1251 1251 1270 1234 1272 c 2
 1131 1286 l 1
 1155 1374 l 1
 1541 1374 l 1
 1518 1286 l 1
 1409 1266 l 1
EndSplineSet
EndChar

StartChar: Z
Encoding: 61 90 61
Width: 1092
GlyphClass: 1
Flags: HW
LayerCount: 2
Fore
SplineSet
73 0 m 1
 97 90 l 1
 1122 1272 l 1
 627 1272 l 2
 611 1272 597 1260 585 1237 c 1
 506 1047 l 1
 393 1047 l 1
 481 1374 l 1
 1377 1374 l 1
 1352 1280 l 1
 328 104 l 1
 870 104 l 2
 888 104 901 116 912 141 c 1
 1009 379 l 1
 1121 379 l 1
 1020 0 l 1
 73 0 l 1
EndSplineSet
EndChar

StartChar: bracketleft
Encoding: 62 91 62
Width: 797
GlyphClass: 1
Flags: HW
LayerCount: 2
Fore
SplineSet
182 -270 m 1
 642 1450 l 1
 1105 1450 l 1
 1080 1358 l 1
 783 1358 l 1
 372 -176 l 1
 669 -176 l 1
 644 -270 l 1
 182 -270 l 1
EndSplineSet
EndChar

StartChar: backslash
Encoding: 63 92 63
Width: 930
GlyphClass: 1
Flags: HW
LayerCount: 2
Fore
SplineSet
758 -190 m 1
 368 1374 l 1
 490 1374 l 1
 880 -190 l 1
 758 -190 l 1
EndSplineSet
EndChar

StartChar: bracketright
Encoding: 64 93 64
Width: 798
GlyphClass: 1
Flags: HW
LayerCount: 2
Fore
SplineSet
10 -270 m 1
 35 -176 l 1
 334 -176 l 1
 745 1358 l 1
 446 1358 l 1
 470 1450 l 1
 935 1450 l 1
 475 -270 l 1
 10 -270 l 1
EndSplineSet
EndChar

StartChar: asciicircum
Encoding: 65 94 65
Width: 623
GlyphClass: 1
Flags: HW
LayerCount: 2
Fore
SplineSet
811 1128 m 1
 669 1331 l 1
 417 1128 l 1
 302 1128 l 1
 635 1475 l 1
 778 1475 l 1
 925 1128 l 1
 811 1128 l 1
EndSplineSet
EndChar

StartChar: underscore
Encoding: 66 95 66
Width: 637
GlyphClass: 1
Flags: HW
LayerCount: 2
Fore
SplineSet
-82 -305 m 1
 -47 -175 l 1
 591 -175 l 1
 556 -305 l 1
 -82 -305 l 1
EndSplineSet
EndChar

StartChar: grave
Encoding: 67 96 67
Width: 661
GlyphClass: 1
Flags: HW
LayerCount: 2
Fore
SplineSet
378 1409 m 0
 388 1446 420 1501 490 1501 c 0
 558 1501 567 1459 574 1446 c 2
 744 1128 l 1
 635 1128 l 1
 399 1327 l 2
 376 1347 369 1374 378 1409 c 0
EndSplineSet
EndChar

StartChar: a
Encoding: 68 97 68
Width: 907
GlyphClass: 1
Flags: HW
LayerCount: 2
Fore
SplineSet
309 255 m 0xf4
 289 179 310 96 399 96 c 0
 477 96 586 154 640 187 c 1
 729 517 l 1
 412 435 339 365 309 255 c 0xf4
298 732 m 0xec
 335 870 516 963 733 963 c 0
 922 963 992 875 937 672 c 2
 824 249 l 0
 814 212 796 138 793 118 c 1
 793 103 808 87 823 87 c 0
 842 87 878 111 908 152 c 2
 979 248 l 1
 1006 224 l 1
 889 40 817 -24 724 -24 c 0
 647 -24 615 35 622 119 c 1
 562 76 405 -25 286 -25 c 0
 172 -25 76 55 125 239 c 0xf4
 163 380 252 485 750 595 c 1
 772 677 l 2
 813 828 748 866 659 866 c 0
 614 866 569 857 528 841 c 1
 484 675 l 1
 351 675 l 2
 306 675 288 695 298 732 c 0xec
EndSplineSet
EndChar

StartChar: b
Encoding: 69 98 69
Width: 991
GlyphClass: 1
Flags: HW
LayerCount: 2
Fore
SplineSet
1064 515 m 0
 1001 279 823 0 415 0 c 2
 158 0 l 1
 519 1347 l 1
 386 1347 l 1
 406 1422 l 1
 659 1509 l 1
 732 1509 l 1
 565 887 l 1
 611 908 l 2
 692 945 765 963 830 963 c 0
 1068 963 1126 747 1064 515 c 0
868 475 m 0
 924 684 892 842 699 842 c 0
 659 842 607 832 545 811 c 1
 354 98 l 1
 363 97 374 97 384 97 c 0
 392 96 402 96 411 96 c 2
 439 96 l 2
 701 96 811 262 868 475 c 0
EndSplineSet
EndChar

StartChar: c
Encoding: 70 99 70
Width: 837
GlyphClass: 1
Flags: HW
LayerCount: 2
Fore
SplineSet
378 489 m 0
 338 339 334 104 569 104 c 0
 646 104 731 133 823 188 c 1
 793 76 l 1
 719 40 l 1
 630 -3 544 -25 464 -25 c 0
 219 -25 108 174 185 463 c 0
 270 781 511 963 749 963 c 0
 921 963 1007 885 975 767 c 0
 955 693 894 651 836 651 c 0
 808 651 780 662 753 684 c 1
 798 851 l 1
 776 868 753 877 731 877 c 0
 581 877 441 725 378 489 c 0
EndSplineSet
EndChar

StartChar: d
Encoding: 71 100 71
Width: 1002
GlyphClass: 1
Flags: HW
LayerCount: 2
Fore
SplineSet
368 478 m 0xbc
 308 255 373 115 525 115 c 0
 578 115 645 138 724 182 c 1
 899 836 l 1
 848 855 801 864 757 864 c 0
 586 864 432 717 368 478 c 0xbc
179 444 m 0
 252 715 471 963 770 963 c 0
 821 963 873 955 926 938 c 1
 1036 1347 l 1
 903 1347 l 1
 923 1422 l 1
 1176 1509 l 1
 1249 1509 l 1
 914 259 l 2
 904 220 886 141 882 121 c 1
 882 105 896 88 911 88 c 0
 930 88 967 113 998 156 c 2
 1068 251 l 1
 1096 227 l 1
 977 41 904 -23 810 -23 c 0x7c
 735 -23 700 31 704 109 c 1
 580 20 476 -25 394 -25 c 0
 156 -25 119 221 179 444 c 0
EndSplineSet
EndChar

StartChar: e
Encoding: 72 101 72
Width: 879
GlyphClass: 1
Flags: HW
LayerCount: 2
Fore
SplineSet
372 505 m 1
 324 325 323 100 560 100 c 0
 635 100 739 139 872 218 c 1
 841 102 l 1
 701 17 577 -25 468 -25 c 0
 239 -25 101 148 184 459 c 0
 264 756 484 963 736 963 c 0
 1004 963 1009 732 963 560 c 2
 956 534 l 2
 953 523 950 514 947 505 c 1
 372 505 l 1
802 639 m 2
 828 735 828 862 692 862 c 0
 563 862 454 746 406 597 c 1
 791 597 l 1
 802 639 l 2
EndSplineSet
EndChar

StartChar: f
Encoding: 73 102 73
Width: 558
GlyphClass: 1
Flags: W
HStem: -446 21G<-187 -68.5> 866 105<601 790> 866 72<311 358.27> 1489 20G<865.5 984>
DStem2: 161 -39 364 88 0.259085 0.965854<-121.792 937.056 1089.51 1346.9>
LayerCount: 2
Fore
SplineSet
433 975 m 1xb0
 539 1372 793 1509 938 1509 c 0
 1030 1509 1078 1460 1058 1386 c 0
 1040 1317 979 1282 947 1276 c 1
 946 1277 943 1281 936 1288 c 2
 832 1398 l 2
 826 1404 823 1408 822 1409 c 0
 741 1365 679 1263 636 1102 c 2
 601 971 l 1
 818 971 l 1
 790 866 l 1xd0
 573 866 l 1
 364 88 l 2
 258 -309 4 -446 -141 -446 c 0
 -233 -446 -280 -397 -260 -323 c 0
 -242 -254 -182 -219 -150 -213 c 1
 -149 -214 -146 -218 -139 -225 c 2
 -34 -335 l 2
 -28 -341 -26 -345 -25 -346 c 0
 56 -302 118 -200 161 -39 c 2
 404 866 l 1
 292 866 l 1
 311 938 l 1
 433 975 l 1xb0
EndSplineSet
EndChar

StartChar: g
Encoding: 74 103 74
Width: 943
GlyphClass: 1
Flags: HW
LayerCount: 2
Fore
SplineSet
185 -147 m 0xc9
 163 -230 190 -375 356 -375 c 0
 530 -375 642 -240 667 -147 c 0
 684 -82 664 -13 499 14 c 1
 427 26 l 2
 400 30 381 33 369 36 c 1
 264 -1 205 -73 185 -147 c 0xc9
445 636 m 0xd6
 409 502 439 395 548 395 c 0
 654 395 739 505 775 638 c 0
 809 766 781 879 677 879 c 0
 574 879 484 783 445 636 c 0xd6
412 325 m 1
 322 350 218 438 268 624 c 0
 325 838 506 963 716 963 c 0xd4
 770 963 822 949 872 921 c 2
 906 901 l 1
 1150 901 l 1
 1123 801 l 1
 944 801 l 1
 962 744 962 685 945 623 c 0xe6
 893 430 692 294 476 311 c 1
 437 262 422 180 426 179 c 2
 515 169 l 2
 769 139 876 50 837 -97 c 0
 788 -280 535 -469 272 -469 c 0
 56 -469 -33 -349 10 -188 c 0xe9
 61 3 224 43 267 51 c 1
 265 76 l 2
 264 94 266 116 273 141 c 0
 288 197 334 258 412 325 c 1
EndSplineSet
EndChar

StartChar: h
Encoding: 75 104 75
Width: 1017
GlyphClass: 1
Flags: HW
LayerCount: 2
Fore
SplineSet
552 836 m 1x7c
 605 867 776 963 878 963 c 0
 978 963 1103 904 1040 669 c 2
 928 249 l 2
 918 212 900 138 897 119 c 1
 897 104 912 88 927 88 c 0
 946 88 982 112 1013 154 c 2
 1084 249 l 1
 1111 225 l 1
 994 40 921 -23 829 -23 c 0xbc
 711 -23 725 106 764 253 c 2
 863 621 l 2
 904 774 835 813 738 813 c 0
 671 813 603 794 531 757 c 1
 328 0 l 1
 158 0 l 1
 519 1347 l 1
 388 1347 l 1
 408 1422 l 1
 659 1509 l 1
 732 1509 l 1
 552 836 l 1x7c
EndSplineSet
EndChar

StartChar: i
Encoding: 76 105 76
Width: 538
GlyphClass: 1
Flags: W
HStem: -23 111<258 428.527> 850 111<357.473 527.5> 1198 252<570.749 696.12>
VStem: 522 223<1245.94 1400.89>
DStem2: 251 254 419 249 0.245303 0.969446<-119.915 605.619>
LayerCount: 2
Fore
SplineSet
419 249 m 2
 409 212 392 138 389 119 c 1
 389 104 403 88 418 88 c 0
 437 88 474 112 505 154 c 2
 576 249 l 1
 603 225 l 1
 485 40 412 -23 318 -23 c 0
 198 -23 212 107 251 254 c 2
 367 688 l 1
 377 725 394 800 397 819 c 1
 397 834 383 850 368 850 c 0
 349 850 312 825 281 783 c 2
 210 689 l 1
 183 712 l 1
 301 897 374 961 468 961 c 0
 587 961 574 830 535 683 c 0
 419 249 l 2
522 1325 m 0
 539 1388 599 1450 668 1450 c 256
 736 1450 763 1391 745 1325 c 0
 724 1247 658 1198 601 1198 c 0
 534 1198 504 1259 522 1325 c 0
EndSplineSet
EndChar

StartChar: j
Encoding: 77 106 77
Width: 519
GlyphClass: 1
Flags: HW
LayerCount: 2
Fore
SplineSet
-130 -469 m 0xd0
 -186 -469 -260 -447 -237 -360 c 0
 -219 -292 -168 -259 -131 -246 c 1
 4 -378 l 1
 70 -342 127 -235 175 -58 c 2
 374 685 l 1
 384 723 402 798 405 818 c 1
 405 833 390 849 375 849 c 0
 356 849 319 825 287 781 c 2
 216 684 l 1
 189 708 l 1
 308 896 382 961 476 961 c 0
 596 961 581 825 541 674 c 1
 390 109 l 2
 324 -136 248 -284 110 -384 c 0
 5 -460 -92 -469 -130 -469 c 0xd0
511 1325 m 0xe0
 531 1401 599 1450 657 1450 c 256
 726 1450 752 1389 735 1325 c 0
 714 1246 645 1198 590 1198 c 0
 534 1198 490 1247 511 1325 c 0xe0
EndSplineSet
EndChar

StartChar: k
Encoding: 78 107 78
Width: 939
GlyphClass: 1
Flags: W
HStem: -24 107<755.5 883.307> 0 21G<158 333.342> 438 59<461 496> 801 163<943.513 1086.74> 1489 20G<599.299 732>
DStem2: 158 0 328 0 0.258619 0.965979<43.9652 497.323 558.453 1394.54> 496 497 683 572 0.727453 0.686157<187.496 538.478> 683 572 543 438 0.338648 -0.940913<78.6717 523.912>
LayerCount: 2
Fore
SplineSet
850 108 m 1x78
 854 97 860 83 872 83 c 0
 890 83 926 105 954 143 c 2
 1028 242 l 1
 1054 219 l 1
 941 39 865 -24 777 -24 c 0xb8
 734 -24 703 -11 684 23 c 1
 543 438 l 1
 445 438 l 1
 328 0 l 1
 158 0 l 1
 519 1347 l 1
 386 1347 l 1
 406 1422 l 1
 657 1509 l 1
 732 1509 l 1
 461 497 l 1
 496 497 l 1
 840 822 l 2
 954 929 l 0
 982 956 1007 964 1041 964 c 0
 1100 964 1137 921 1134 855 c 1
 1131 802 1097 760 1054 760 c 0
 1037 760 1017 767 992 783 c 1
 975 795 961 801 950 801 c 0
 939 801 927 798 915 786 c 0
 683 572 l 1
 850 108 l 1x78
EndSplineSet
EndChar

StartChar: l
Encoding: 79 108 79
Width: 527
GlyphClass: 1
Flags: W
HStem: -23 111<254.5 423.896> 1362 68<429 474.186> 1489 20G<614.962 753>
DStem2: 252 270 385 121 0.256275 0.966604<-133.071 1130.36>
LayerCount: 2
Fore
SplineSet
418 259 m 2
 407 220 389 142 385 121 c 1
 384 105 399 88 414 88 c 0
 433 88 470 113 502 158 c 2
 574 259 l 1
 601 234 l 1
 481 42 408 -23 314 -23 c 0
 195 -23 210 115 252 270 c 2
 544 1362 l 1
 411 1362 l 1
 429 1430 l 1
 678 1509 l 1
 753 1509 l 1
 418 259 l 2
EndSplineSet
EndChar

StartChar: m
Encoding: 80 109 80
Width: 1508
GlyphClass: 1
Flags: W
HStem: -24 111<1260 1426.05> 0 21G<158 333.363 669 844.349> 813 150<707.753 933.5 1217.37 1469.5> 918 20G<443.487 579>
DStem2: 158 0 328 0 0.258496 0.966012<43.9443 822.073> 669 0 839 0 0.258376 0.966045<43.9238 790.696> 1254 253 1416 249 0.257807 0.966196<-95.681 521.854>
LayerCount: 2
Fore
SplineSet
875 963 m 0x20
 992 963 1023 867 1031 821 c 1
 1108 865 l 2
 1110 866 1281 963 1378 963 c 0
 1561 963 1564 802 1527 665 c 2
 1416 249 l 2
 1406 212 1388 138 1385 118 c 1
 1385 103 1400 87 1415 87 c 0
 1434 87 1470 111 1500 152 c 2
 1571 248 l 1
 1598 224 l 1
 1482 40 1410 -24 1318 -24 c 0xa0
 1202 -24 1214 105 1254 253 c 2
 1351 615 l 2
 1391 764 1340 813 1246 813 c 0
 1185 813 1117 795 1042 759 c 1
 839 0 l 1
 669 0 l 1
 837 628 l 2
 870 752 836 813 733 813 c 0x60
 658 813 572 779 531 757 c 1
 328 0 l 1
 158 0 l 1
 371 794 l 1
 250 794 l 1
 268 860 l 1
 504 938 l 1
 579 938 l 1x50
 552 836 l 1
 693 921 801 963 875 963 c 0x20
EndSplineSet
EndChar

StartChar: n
Encoding: 81 110 81
Width: 1005
GlyphClass: 1
Flags: HW
LayerCount: 2
Fore
SplineSet
860 626 m 2xac
 888 732 877 813 740 813 c 0xac
 679 813 609 794 531 757 c 1
 328 0 l 1
 158 0 l 1
 371 794 l 1
 248 794 l 1
 266 860 l 1
 504 938 l 1
 579 938 l 1x5c
 552 836 l 1
 640 883 l 1
 743 936 823 963 878 963 c 0
 1068 963 1073 805 1035 663 c 2
 924 249 l 2
 914 212 897 138 894 119 c 1
 894 104 909 88 924 88 c 0
 943 88 979 112 1010 154 c 2
 1080 249 l 1
 1108 225 l 1
 991 40 918 -23 826 -23 c 0
 708 -23 722 106 761 253 c 2
 860 626 l 2xac
EndSplineSet
EndChar

StartChar: o
Encoding: 82 111 82
Width: 974
GlyphClass: 1
Flags: W
HStem: -25 93<403.914 628.179> 871 92<591.497 823.771>
LayerCount: 2
Fore
SplineSet
378 469 m 0
 313 228 364 68 503 68 c 0
 690 68 804 315 845 469 c 0
 911 716 859 871 720 871 c 0
 537 871 423 639 378 469 c 0
186 467 m 0
 263 756 489 963 746 963 c 256
 998 963 1112 759 1034 467 c 0
 957 179 731 -25 476 -25 c 0
 223 -25 107 173 186 467 c 0
EndSplineSet
EndChar

StartChar: p
Encoding: 83 112 83
Width: 993
GlyphClass: 1
Flags: HW
LayerCount: 2
Fore
SplineSet
872 454 m 0xec
 908 587 921 819 725 819 c 0
 671 819 607 799 531 761 c 1
 354 100 l 1
 397 80 442 70 488 70 c 0
 686 70 821 264 872 454 c 0xec
551 836 m 1
 622 889 745 963 852 963 c 0xec
 1055 963 1133 750 1062 483 c 0
 978 171 757 -25 478 -25 c 0
 430 -25 378 -19 325 -6 c 1
 207 -446 l 1
 38 -446 l 1
 340 684 l 1
 350 722 368 797 371 817 c 1
 371 833 357 849 342 849 c 0
 323 849 286 825 255 782 c 2
 185 686 l 1
 157 710 l 1
 276 897 349 961 443 961 c 0xdc
 516 961 553 910 551 836 c 1
EndSplineSet
EndChar

StartChar: q
Encoding: 84 113 84
Width: 988
GlyphClass: 1
Flags: HW
LayerCount: 2
Fore
SplineSet
372 478 m 0
 330 323 323 96 535 96 c 0
 579 96 632 105 693 123 c 1
 887 847 l 1
 853 855 l 2
 822 863 805 869 772 869 c 0
 569 869 431 699 372 478 c 0
180 445 m 0
 271 785 529 963 834 963 c 0
 915 963 996 952 1078 930 c 1
 709 -446 l 1
 540 -446 l 1
 674 55 l 1
 611 25 490 -25 405 -25 c 0
 195 -25 107 172 180 445 c 0
EndSplineSet
EndChar

StartChar: r
Encoding: 85 114 85
Width: 690
GlyphClass: 1
Flags: HW
LayerCount: 2
Fore
SplineSet
824 963 m 0xa8
 860 963 894 953 923 932 c 1
 869 729 l 1
 800 729 l 1xc8
 782 766 756 785 721 785 c 0xa8
 668 785 599 744 513 662 c 1
 336 0 l 1
 167 0 l 1
 351 687 l 1
 361 724 378 798 381 817 c 1
 382 833 367 850 352 850 c 0
 333 850 297 824 265 780 c 2
 193 681 l 1
 166 705 l 1
 285 895 358 961 452 961 c 0x98
 548 961 560 872 538 756 c 1
 599 815 l 2
 700 913 775 963 824 963 c 0xa8
EndSplineSet
EndChar

StartChar: s
Encoding: 86 115 86
Width: 717
GlyphClass: 1
Flags: HW
LayerCount: 2
Fore
SplineSet
653 963 m 0xd8
 745 963 836 938 870 916 c 1
 808 685 l 1
 713 685 l 1
 735 819 l 1
 723 832 682 864 612 864 c 0
 491 864 448 784 435 734 c 0xd4
 378 521 800 555 726 280 c 0
 668 65 487 -25 302 -25 c 0
 212 -25 135 -8 68 27 c 1
 137 286 l 1
 230 286 l 1xe8
 208 122 l 1
 249 86 297 68 351 68 c 0
 461 68 531 150 549 218 c 0
 568 288 548 334 470 383 c 2
 393 432 l 1
 257 515 228 581 255 680 c 0
 308 877 473 963 653 963 c 0xd8
EndSplineSet
EndChar

StartChar: t
Encoding: 87 116 87
Width: 605
GlyphClass: 1
Flags: HW
LayerCount: 2
Fore
SplineSet
410 299 m 2
 378 179 382 90 494 90 c 0
 537 90 580 101 623 123 c 1
 602 43 l 1
 511 -2 425 -25 344 -25 c 0
 206 -25 171 45 211 193 c 2
 384 836 l 1
 271 836 l 1
 289 903 l 1
 429 975 l 1
 580 1235 l 1
 660 1235 l 1
 581 938 l 1
 828 938 l 1
 801 836 l 1
 553 836 l 1
 410 299 l 2
EndSplineSet
EndChar

StartChar: u
Encoding: 88 117 88
Width: 1004
GlyphClass: 1
Flags: HW
LayerCount: 2
Fore
SplineSet
414 333 m 2xac
 382 213 390 115 527 115 c 0xac
 585 115 654 134 734 172 c 1
 939 938 l 1
 1108 938 l 1
 924 250 l 2
 914 213 897 139 894 120 c 1
 894 104 908 88 923 88 c 0
 942 88 978 112 1009 155 c 2
 1080 250 l 1
 1107 227 l 1
 989 41 917 -23 823 -23 c 0x5c
 746 -23 713 34 719 117 c 1
 587 22 479 -25 397 -25 c 0
 250 -25 175 63 236 289 c 2
 343 688 l 1
 353 725 370 800 373 819 c 1
 373 834 359 849 344 849 c 0
 325 849 288 826 257 783 c 2
 187 688 l 1
 159 712 l 1
 277 897 349 961 442 961 c 0
 560 961 547 830 508 684 c 0
 414 333 l 2xac
EndSplineSet
EndChar

StartChar: v
Encoding: 89 118 89
Width: 918
GlyphClass: 1
Flags: HW
LayerCount: 2
Fore
SplineSet
1042 846 m 1xc0
 509 0 l 1
 395 0 l 1
 340 846 l 1
 341 820 l 0
 340 835 331 853 317 853 c 0
 299 853 263 829 233 788 c 2
 159 687 l 1
 133 711 l 1
 249 897 320 961 410 961 c 0xa0
 470 961 504 928 508 870 c 0
 512 814 l 2
 544 202 l 1
 921 807 l 2
 916 799 l 0
 1001 938 1045 964 1112 964 c 0
 1173 964 1214 919 1211 850 c 1
 1208 793 1171 749 1125 749 c 0
 1107 749 1087 756 1061 773 c 1
 1044 785 1032 790 1021 790 c 0
 999 790 993 767 964 721 c 0
 1042 846 l 1xc0
EndSplineSet
EndChar

StartChar: w
Encoding: 90 119 90
Width: 1362
GlyphClass: 1
Flags: HW
LayerCount: 2
Fore
SplineSet
1490 846 m 1xc0
 1024 0 l 1
 900 0 l 1
 886 721 l 1
 462 0 l 1
 337 0 l 1
 340 846 l 1
 339 816 l 0
 339 832 329 850 314 850 c 0
 295 850 259 825 228 782 c 2
 156 685 l 1
 129 708 l 1
 246 896 318 961 410 961 c 0xa0
 479 961 510 918 510 850 c 0
 510 814 l 2
 492 206 l 1
 914 938 l 1
 1039 938 l 1x90
 1046 206 l 1
 1336 735 l 0
 1341 744 1354 749 1359 758 c 0
 1462 929 1496 965 1571 965 c 0
 1632 965 1672 918 1669 849 c 1
 1666 792 1628 746 1582 746 c 0
 1564 746 1544 754 1518 771 c 1
 1501 783 1489 788 1478 788 c 0
 1454 788 1432 770 1398 713 c 0
 1394 706 1407 693 1403 687 c 0
 1490 846 l 1xc0
EndSplineSet
EndChar

StartChar: x
Encoding: 91 120 91
Width: 885
GlyphClass: 1
Flags: W
HStem: -27 183<36.7391 185.55> -24 106<710 834.181> 741 224<982.14 1125.61> 855 107<312.688 448>
LayerCount: 2
Fore
SplineSet
802 109 m 1x20
 806 97 811 82 823 82 c 0
 841 82 876 104 904 143 c 2
 980 247 l 1
 1005 224 l 1
 891 41 819 -24 731 -24 c 0x60
 689 -24 654 -11 640 23 c 1
 523 370 l 1
 187 19 l 1
 153 -17 123 -27 83 -27 c 0
 21 -27 -20 20 -17 91 c 1
 -14 150 25 197 73 197 c 0
 92 197 112 189 139 172 c 1
 156 160 167 156 178 156 c 0
 192 156 204 161 218 176 c 1
 489 454 l 1
 354 840 l 1
 358 828 l 0
 354 840 349 855 337 855 c 0
 319 855 283 833 255 794 c 2
 179 691 l 1
 154 714 l 1
 268 897 339 962 427 962 c 0x90
 469 962 506 949 517 916 c 0
 551 816 l 1
 630 596 l 1
 842 817 l 1
 941 920 l 0
 974 955 1004 965 1044 965 c 0
 1106 965 1147 917 1144 846 c 1
 1141 787 1102 741 1054 741 c 0
 1035 741 1015 748 988 765 c 1
 971 777 959 782 948 782 c 0
 934 782 923 776 907 761 c 0
 981 840 l 1
 658 511 l 1
 802 109 l 1x20
EndSplineSet
EndChar

StartChar: y
Encoding: 92 121 92
Width: 920
GlyphClass: 1
Flags: HW
LayerCount: 2
Fore
SplineSet
46 -469 m 0x80
 -59 -469 -63 -392 -53 -356 c 0
 -41 -313 -11 -274 36 -238 c 1
 177 -323 l 1
 260 -251 369 -82 406 -16 c 1
 340 846 l 1
 341 821 l 0
 340 836 331 854 317 854 c 0
 299 854 263 830 234 789 c 2
 159 686 l 1
 134 710 l 1
 249 896 321 961 410 961 c 0x40
 468 961 502 929 506 873 c 0
 511 811 l 2
 557 225 l 1
 922 811 l 2
 928 820 l 0
 1004 941 1048 964 1113 964 c 0
 1174 964 1216 919 1213 850 c 1
 1210 792 1172 747 1126 747 c 0
 1108 747 1088 755 1062 772 c 1
 1045 785 1034 789 1023 789 c 0
 1001 789 995 766 967 721 c 0
 1045 846 l 1
 420 -143 l 1
 213 -460 103 -469 46 -469 c 0x80
EndSplineSet
EndChar

StartChar: z
Encoding: 93 122 93
Width: 823
GlyphClass: 1
Flags: HW
LayerCount: 2
Fore
SplineSet
61 0 m 1
 90 108 l 1
 753 842 l 1
 449 842 l 2
 432 842 411 819 403 801 c 1
 348 659 l 1
 254 659 l 1
 329 938 l 1
 984 938 l 1
 961 854 l 1
 276 98 l 1
 629 98 l 2
 644 98 672 123 680 144 c 2
 739 296 l 1
 837 296 l 1
 758 0 l 1
 61 0 l 1
EndSplineSet
EndChar

StartChar: braceleft
Encoding: 94 123 94
Width: 923
GlyphClass: 1
Flags: HW
CounterMasks: 1 e0
LayerCount: 2
Fore
SplineSet
822 993 m 0
 764 776 704 650 459 596 c 1
 680 541 663 402 608 197 c 0
 537 -67 514 -168 750 -168 c 1
 728 -252 l 1
 447 -252 339 -178 414 102 c 2
 461 278 l 2
 529 530 436 549 259 549 c 1
 284 641 l 1
 459 641 564 661 631 912 c 2
 678 1087 l 2
 754 1371 902 1442 1182 1442 c 1
 1159 1358 l 1
 907 1358 884 1225 822 993 c 0
EndSplineSet
EndChar

StartChar: bar
Encoding: 95 124 95
Width: 661
GlyphClass: 1
Flags: HW
LayerCount: 2
Fore
SplineSet
132 -528 m 1
 710 1630 l 1
 825 1630 l 1
 247 -528 l 1
 132 -528 l 1
EndSplineSet
EndChar

StartChar: braceright
Encoding: 96 125 96
Width: 923
GlyphClass: 1
Flags: HW
CounterMasks: 1 e0
LayerCount: 2
Fore
SplineSet
515 1442 m 1
 799 1442 906 1369 830 1087 c 2
 783 912 l 2
 721 679 779 641 985 641 c 1
 960 549 l 1
 754 549 675 511 613 278 c 2
 566 102 l 2
 490 -181 340 -252 61 -252 c 1
 83 -168 l 1
 340 -168 362 -22 421 197 c 0
 477 405 539 541 786 596 c 1
 571 649 576 777 634 993 c 0
 691 1206 752 1358 492 1358 c 1
 515 1442 l 1
EndSplineSet
EndChar

StartChar: asciitilde
Encoding: 97 126 97
Width: 1579
GlyphClass: 1
Flags: HW
LayerCount: 2
Fore
SplineSet
720 739 m 0
 906 739 1058 602 1224 602 c 0
 1326 602 1460 655 1623 760 c 1
 1587 627 l 1
 1460 548 1334 483 1191 483 c 0
 1006 483 877 621 677 621 c 0
 579 621 449 568 284 461 c 1
 319 594 l 1
 471 691 606 739 720 739 c 0
EndSplineSet
EndChar

StartChar: quoteleft
Encoding: 98 8216 98
Width: 466
GlyphClass: 1
Flags: HW
LayerCount: 2
Fore
SplineSet
615 1006 m 0
 598 941 541 881 467 881 c 0
 364 881 329 955 360 1071 c 0
 398 1213 508 1327 604 1400 c 2
 671 1452 l 1
 738 1438 l 1
 671 1377 l 2
 576 1291 518 1207 496 1126 c 0
 492 1110 492 1103 488 1087 c 1
 608 1087 l 1
 620 1058 622 1031 615 1006 c 0
EndSplineSet
EndChar

StartChar: quoteright
Encoding: 99 8217 99
Width: 466
GlyphClass: 1
Flags: HW
LayerCount: 2
Fore
SplineSet
477 1327 m 0
 490 1376 534 1452 625 1452 c 0
 725 1452 763 1377 732 1262 c 0
 694 1121 585 1007 487 932 c 2
 420 881 l 1
 354 897 l 1
 547 1058 581 1147 596 1208 c 0
 600 1223 600 1230 604 1245 c 1
 484 1245 l 1
 471 1268 468 1295 477 1327 c 0
EndSplineSet
EndChar

StartChar: quotedblleft
Encoding: 100 8220 100
Width: 858
GlyphClass: 1
Flags: HW
LayerCount: 2
Fore
SplineSet
615 1006 m 0
 598 941 541 881 467 881 c 0
 366 881 329 957 360 1071 c 0
 398 1212 506 1325 604 1400 c 2
 671 1452 l 1
 738 1438 l 1
 549 1280 513 1189 496 1126 c 0
 492 1110 491 1099 488 1087 c 1
 608 1087 l 1
 621 1064 623 1037 615 1006 c 0
1008 1008 m 0
 989 936 928 881 859 881 c 0
 756 881 722 958 753 1075 c 0
 790 1214 899 1327 997 1401 c 2
 1064 1452 l 1
 1130 1438 l 1
 1068 1380 l 1
 971 1293 911 1209 889 1128 c 0
 884 1108 884 1103 880 1087 c 1
 1000 1087 l 1
 1012 1058 1014 1032 1008 1008 c 0
EndSplineSet
EndChar

StartChar: quotedblright
Encoding: 101 8221 101
Width: 858
GlyphClass: 1
Flags: HW
LayerCount: 2
Fore
SplineSet
477 1327 m 0
 496 1398 557 1452 627 1452 c 0
 729 1452 762 1375 731 1260 c 0
 696 1129 596 1015 487 932 c 2
 420 881 l 1
 354 897 l 1
 401 940 l 2
 552 1077 580 1151 594 1204 c 0
 599 1224 600 1229 604 1245 c 1
 484 1245 l 1
 471 1270 469 1298 477 1327 c 0
870 1329 m 0
 888 1397 943 1452 1017 1452 c 0
 1117 1452 1155 1377 1124 1262 c 0
 1086 1121 978 1007 880 932 c 2
 813 881 l 1
 747 897 l 1
 939 1057 973 1146 990 1208 c 0
 995 1226 992 1230 996 1245 c 1
 876 1245 l 1
 863 1268 861 1296 870 1329 c 0
EndSplineSet
EndChar

StartChar: u0B83
Encoding: 102 2947 102
Width: 1354
GlyphClass: 1
Flags: HW
LayerCount: 2
Fore
SplineSet
156 19 m 0
 57 19 29 109 48 180 c 0
 71 266 161 343 244 344 c 1
 327 344 375 270 351 181 c 0
 329 100 245 19 156 19 c 0
946 18 m 0
 847 18 819 108 838 179 c 0
 861 265 951 342 1033 343 c 1
 1117 343 1165 268 1141 180 c 0
 1119 99 1034 18 946 18 c 0
802 947 m 0
 703 947 676 1037 695 1108 c 0
 718 1193 804 1271 889 1271 c 0
 973 1271 1021 1196 997 1108 c 0
 975 1026 890 947 802 947 c 0
EndSplineSet
EndChar

StartChar: u0B85
Encoding: 103 2949 103
Width: 2181
GlyphClass: 1
Flags: HW
AnchorPoint: "V" 1196.5 1306 basechar 0
AnchorPoint: "N" 1196.5 41.7635 basechar 0
LayerCount: 2
Fore
SplineSet
1381 1286 m 0
 1620 1286 1887 1175 1768 732 c 0
 1747 654 1710 572 1658 485 c 1
 1867 485 l 1
 2082 1288 l 1
 2282 1288 l 1
 1876 -215 l 1
 1676 -215 l 1
 1837 388 l 1
 1583 388 l 1
 1371 130 1026 1 718 1 c 0
 127 1 111 388 117 409 c 0
 131 460 166 486 223 486 c 2
 1452 486 l 1
 1530 579 1582 679 1611 786 c 0
 1666 990 1601 1117 1416 1167 c 1
 1482 1120 1496 1029 1459 892 c 0
 1411 712 1287 595 1108 595 c 0
 940 595 885 748 937 941 c 0
 992 1145 1165 1286 1381 1286 c 0
1125 746 m 0
 1225 746 1292 848 1310 916 c 0
 1350 1064 1297 1130 1268 1145 c 1
 1142 1145 1057 1038 1029 934 c 0
 987 776 1081 746 1125 746 c 0
213 353 m 0
 199 302 307 100 694 100 c 0
 927 100 1167 191 1365 385 c 1
 277 385 l 2
 240 385 219 374 213 353 c 0
EndSplineSet
EndChar

StartChar: u0B86
Encoding: 104 2950 104
Width: 2687
GlyphClass: 1
Flags: HW
AnchorPoint: "V" 1332 1306 basechar 0
AnchorPoint: "N" 1332 -716 basechar 0
LayerCount: 2
Fore
SplineSet
2253 600 m 0xebfc
 2385 600 2555 483 2463 139 c 0
 2280 -545 1730 -716 1369 -716 c 0
 1049 -716 667 -642 746 -347 c 0
 786 -199 945 -101 1152 -101 c 0
 1303 -101 1418 -159 1475 -235 c 1
 1434 -286 l 1
 1378 -226 1255 -175 1118 -175 c 0
 1016 -175 871 -208 835 -341 c 0
 776 -561 1084 -616 1314 -616 c 0
 1809 -616 2163 -232 2257 120 c 0
 2328 386 2225 471 2141 471 c 0xebfc
 2108 471 2081 460 2053 438 c 1
 1874 -217 l 1
 1674 -217 l 1
 1836 386 l 1
 1581 386 l 1
 1369 128 1025 -1 717 -1 c 0
 126 -1 109 386 115 407 c 0
 129 458 165 484 222 484 c 2
 1450 484 l 1
 1528 577 1581 677 1610 784 c 0
 1665 988 1599 1115 1414 1165 c 1
 1480 1118 1495 1027 1458 890 c 0
 1410 710 1285 593 1106 593 c 0xf7fc
 938 593 884 746 936 939 c 0
 991 1143 1164 1284 1380 1284 c 0
 1619 1284 1885 1173 1766 730 c 0
 1745 652 1708 570 1656 483 c 1
 1866 483 l 1
 2081 1286 l 1
 2281 1286 l 1
 2079 532 l 1
 2133 577 2191 600 2253 600 c 0xebfc
1122 744 m 0xe7fc
 1222 744 1289 846 1307 914 c 0
 1347 1062 1294 1128 1265 1143 c 1
 1139 1143 1053 1036 1025 932 c 0
 983 774 1078 744 1122 744 c 0xe7fc
209 351 m 0
 197 308 294 98 691 98 c 0
 925 98 1164 189 1362 383 c 1
 274 383 l 2xf3fc
 237 383 215 372 209 351 c 0
EndSplineSet
EndChar

StartChar: u0B87
Encoding: 105 2951 105
Width: 2047
GlyphClass: 1
Flags: HW
AnchorPoint: "V" 1064 1801.56 basechar 0
AnchorPoint: "N" 1064 -255 basechar 0
LayerCount: 2
Fore
SplineSet
774 748 m 0
 874 748 941 849 960 918 c 0
 1000 1066 947 1132 918 1147 c 1
 792 1147 707 1040 679 936 c 0
 639 788 715 748 774 748 c 0
967 -159 m 0
 1198 -159 1303 18 1329 114 c 0
 1351 195 1319 267 1235 331 c 1
 1107 135 950 -17 760 -124 c 1
 824 -147 893 -159 967 -159 c 0
97 19 m 0
 68 -88 154 -159 296 -159 c 0
 364 -159 435 -144 508 -113 c 1
 408 -34 332 79 277 224 c 1
 177 160 117 92 97 19 c 0
376 282 m 1
 432 141 498 34 625 -55 c 1
 809 52 964 204 1092 401 c 1
 1035 418 973 426 905 426 c 0
 781 426 573 390 376 282 c 1
1485 -224 m 1
 1540 -156 1771 187 1894 646 c 0
 2074 1319 1748 1642 1327 1642 c 0
 903 1642 461 1357 346 929 c 0
 297 746 298 561 351 373 c 1
 574 485 799 519 939 519 c 0
 1014 519 1085 513 1151 500 c 1
 1192 575 1223 652 1244 730 c 0
 1274 842 1340 1097 1063 1168 c 1
 1158 1101 1122 951 1106 891 c 0
 1085 812 1035 624 756 596 c 1
 598 596 532 740 586 943 c 0
 637 1135 800 1289 1031 1289 c 0
 1270 1289 1536 1178 1417 735 c 0
 1391 638 1355 544 1309 452 c 1
 1495 369 1554 248 1518 112 c 0
 1443 -168 1184 -255 943 -255 c 0
 831 -255 728 -231 632 -183 c 1
 514 -231 400 -255 290 -255 c 0
 103 -255 -45 -180 13 35 c 0
 40 136 120 231 254 321 c 1
 204 522 206 758 257 947 c 0
 413 1531 900 1848 1383 1848 c 0
 2018 1848 2173 1339 2004 708 c 0
 1872 216 1599 -186 1545 -256 c 1
 1485 -224 l 1
EndSplineSet
EndChar

StartChar: u0B88
Encoding: 106 2952 106
Width: 1380
GlyphClass: 1
Flags: HW
AnchorPoint: "V" 687 1306 basechar 0
AnchorPoint: "N" 687 -1 basechar 0
LayerCount: 2
Fore
SplineSet
1049 645 m 0
 1068 717 1129 773 1199 773 c 256
 1269 773 1300 715 1281 645 c 0
 1260 567 1196 520 1132 520 c 0
 1060 520 1031 576 1049 645 c 0
1345 1189 m 1
 1078 1189 l 1
 760 -1 l 1
 560 -1 l 1
 878 1189 l 1
 413 1189 l 1
 94 -1 l 1
 1 -1 l 1
 346 1289 l 1
 1373 1289 l 1
 1345 1189 l 1
384 644 m 0
 403 716 464 772 534 772 c 256
 604 772 635 714 616 644 c 0
 595 566 530 519 466 519 c 0
 394 519 366 575 384 644 c 0
EndSplineSet
EndChar

StartChar: u0B89
Encoding: 107 2953 107
Width: 2156
GlyphClass: 1
Flags: HW
AnchorPoint: "V" 1036.5 1306 basechar 0
AnchorPoint: "N" 1036.5 0 basechar 0
LayerCount: 2
Fore
SplineSet
216 172 m 0xfd80
 208 141 219 91 305 91 c 2
 1983 91 l 2
 2025 91 2043 77 2035 48 c 0
 2027 19 1979 4 1960 0 c 1
 211 0 l 2
 54 0 30 110 50 183 c 0xfd80
 69 255 153 363 308 363 c 2
 647 363 l 2
 830 363 977 582 1019 739 c 0
 1099 1038 1012 1188 754 1188 c 0
 574 1188 382 1061 346 926 c 1
 411 1006 489 1046 578 1046 c 0
 746 1046 786 885 748 744 c 0
 697 552 556 449 393 449 c 0
 212 449 159 590 235 873 c 0xfb80
 296 1102 543 1290 818 1290 c 0
 1148 1290 1300 1099 1207 753 c 0
 1118 420 922 254 618 254 c 2
 352 254 l 2
 253 254 223 197 216 172 c 0xfd80
407 581 m 0
 510 581 567 696 583 756 c 0
 606 840 569 918 483 918 c 0
 423 918 367 884 312 815 c 1xfb80
 279 692 303 581 407 581 c 0
EndSplineSet
EndChar

StartChar: u0B8A
Encoding: 108 2954 108
Width: 3461
GlyphClass: 1
Flags: HW
AnchorPoint: "V" 1804.5 1306 basechar 0
AnchorPoint: "N" 1804.5 3 basechar 0
LayerCount: 2
Fore
SplineSet
1483 738 m 0xda7d
 1581 1104 1892 1292 2201 1292 c 0
 2589 1292 2661 1152 2665 1078 c 1
 2723 1293 l 1
 3575 1293 l 1
 3545 1190 l 1
 3280 1190 l 1
 3007 173 l 1
 2807 173 l 1
 3080 1190 l 1
 2773 1190 l 1xda7b
 2501 173 l 1
 2302 173 l 1
 2497 901 l 2
 2549 1095 2403 1190 2196 1190 c 0
 1885 1190 1645 978 1616 869 c 1
 1678 932 1790 975 1903 975 c 0
 2107 975 2191 801 2134 589 c 0
 2042 247 1850 177 1735 177 c 0
 1447 177 1408 457 1483 738 c 0xda7d
221 175 m 0xb779
 213 144 224 94 310 94 c 2
 3161 94 l 2
 3203 94 3221 80 3213 51 c 0
 3205 22 3157 7 3138 3 c 1
 216 3 l 2
 59 3 34 113 54 186 c 0xb779
 73 258 158 366 313 366 c 2
 651 366 l 2
 834 366 982 585 1024 742 c 0
 1104 1041 1016 1191 758 1191 c 0
 578 1191 386 1064 350 929 c 1
 415 1009 493 1049 582 1049 c 0
 750 1049 790 888 752 747 c 0
 701 555 560 452 397 452 c 0
 216 452 163 593 239 876 c 0xb6f9
 300 1105 548 1293 823 1293 c 0
 1153 1293 1305 1102 1212 756 c 0
 1123 423 926 257 622 257 c 2
 356 257 l 2
 257 257 228 200 221 175 c 0xb779
1565 697 m 1
 1534 580 1539 359 1690 359 c 0
 1799 359 1890 465 1924 593 c 0
 1961 736 1891 839 1793 839 c 0xda79
 1669 839 1597 756 1565 697 c 1
413 583 m 0
 516 583 573 698 589 758 c 0
 612 842 575 920 489 920 c 0
 429 920 373 886 318 817 c 1x96f9
 285 694 309 583 413 583 c 0
EndSplineSet
EndChar

StartChar: u0B8E
Encoding: 109 2958 109
Width: 1700
GlyphClass: 1
Flags: HW
AnchorPoint: "V" 934.5 1306 basechar 0
AnchorPoint: "N" 934.5 0 basechar 0
LayerCount: 2
Fore
SplineSet
404 3 m 0
 83 3 91 331 162 596 c 0
 275 1019 565 1293 919 1293 c 2
 1786 1293 l 1
 1758 1190 l 1
 1492 1190 l 1
 1173 0 l 1
 974 0 l 1
 1293 1190 l 1
 914 1190 l 2
 534 1190 335 878 296 733 c 1
 355 799 472 850 585 850 c 0
 795 850 888 682 824 445 c 0
 763 216 633 3 404 3 c 0
243 549 m 1
 170 275 259 174 368 174 c 0
 490 174 585 299 623 439 c 1
 666 601 581 709 488 709 c 0
 366 709 281 617 243 549 c 1
EndSplineSet
EndChar

StartChar: u0B8F
Encoding: 110 2959 110
Width: 1700
GlyphClass: 1
Flags: HW
AnchorPoint: "V" 934.5 1306 basechar 0
AnchorPoint: "N" 934.5 -300.923 basechar 0
LayerCount: 2
Fore
SplineSet
404 3 m 0
 83 3 91 331 162 596 c 0
 275 1019 565 1293 919 1293 c 2
 1786 1293 l 1
 1758 1190 l 1
 1492 1190 l 1
 1173 0 l 1
 625 -401 l 1
 467 -401 l 1
 974 0 l 1
 1293 1190 l 1
 914 1190 l 2
 534 1190 335 878 296 733 c 1
 355 799 472 850 585 850 c 0
 795 850 888 682 824 445 c 0
 763 216 633 3 404 3 c 0
243 549 m 1
 170 275 259 174 368 174 c 0
 490 174 585 299 623 439 c 1
 666 601 581 709 488 709 c 0
 366 709 281 617 243 549 c 1
EndSplineSet
EndChar

StartChar: u0B90
Encoding: 111 2960 111
Width: 1726
GlyphClass: 1
Flags: HW
AnchorPoint: "V" 866.5 1306 basechar 0
AnchorPoint: "N" 866.5 -502 basechar 0
LayerCount: 2
Fore
SplineSet
752 742 m 0xf780
 701 550 560 447 397 447 c 0
 216 447 163 588 239 871 c 0
 306 1121 549 1288 821 1288 c 0
 1007 1288 1106 1234 1117 1125 c 1
 1184 1234 1283 1288 1412 1288 c 0
 1671 1288 1768 1125 1692 841 c 0xfb80
 1661 725 1560 477 1381 385 c 0
 950 163 368 454 227 -72 c 0
 195 -193 184 -394 358 -394 c 0
 482 -394 631 -248 657 -151 c 2
 706 31 l 1
 892 31 l 1
 845 -145 l 2
 819 -241 845 -402 1012 -402 c 0
 1151 -402 1236 -288 1274 -148 c 0
 1302 -43 1298 52 1272 106 c 1
 1404 163 l 1
 1436 84 1436 -13 1406 -126 c 0xf740
 1365 -278 1237 -502 969 -502 c 0
 827 -502 745 -450 724 -347 c 1
 674 -410 531 -501 361 -501 c 0
 92 -501 -35 -354 40 -73 c 0
 90 112 195 234 357 294 c 0
 702 425 1028 347 1259 456 c 0
 1381 514 1477 728 1512 860 c 0
 1548 995 1553 1188 1361 1188 c 0
 1234 1188 1159 1029 1144 974 c 2
 1048 613 l 1
 862 613 l 1
 954 958 l 2
 972 1026 969 1186 758 1186 c 0
 578 1186 386 1059 350 924 c 1
 415 1004 493 1044 582 1044 c 0
 750 1044 790 883 752 742 c 0xf780
407 573 m 0
 510 573 567 688 583 748 c 0
 606 832 570 910 484 910 c 0
 424 910 368 876 313 807 c 1
 280 684 303 573 407 573 c 0
EndSplineSet
EndChar

StartChar: u0B92
Encoding: 112 2962 112
Width: 1859
GlyphClass: 1
Flags: HW
HStem: -713 100<317.889 679.861> -139 114<319.082 446> -45 112<1182.33 1445> 159 151<1179.73 1351.3> 174 154<297.942 494.855> 750 114<375.636 563.23> 1189 102<764.827 1243.77>
AnchorPoint: "V" 919.5 1306 basechar 0
AnchorPoint: "N" 919.5 -654.405 basechar 0
LayerCount: 2
Fore
SplineSet
1250 159 m 0x96
 1075 159 1059 286 1112 484 c 1
 1071 404 1044 343 1033 301 c 0
 983 114 1100 67 1273 67 c 2
 1475 67 l 1
 1445 -45 l 1
 1297 -45 l 2xb6
 998 -45 1083 -713 478 -713 c 0
 178 -713 71 -541 124 -345 c 0
 171 -168 293 -25 446 -25 c 1
 448 -139 l 1
 373 -139 262 -180 218 -344 c 0
 189 -452 244 -613 527 -613 c 0
 790 -613 816 -366 943 -139 c 0
 977 -77 1031 -28 1093 -8 c 1
 944 31 933 176 969 312 c 0
 1020 504 1167 707 1273 742 c 1
 1311 710 l 1
 1252 667 1209 598 1184 503 c 0
 1154 392 1175 310 1238 310 c 0xd6
 1348 310 1429 407 1481 602 c 0
 1572 942 1328 1189 1041 1189 c 0
 538 1189 361 873 308 766 c 1
 370 831 452 864 552 864 c 0
 745 864 833 727 781 534 c 0
 729 340 604 174 408 174 c 0x8e
 189 174 101 369 169 624 c 0
 241 891 458 1291 1095 1291 c 0
 1668 1291 1768 923 1684 610 c 0
 1592 268 1390 159 1250 159 c 0x96
264 622 m 1
 224 472 272 328 390 328 c 0x8e
 444 328 536 363 578 521 c 0
 622 687 551 750 478 750 c 0
 370 750 299 682 264 622 c 1
EndSplineSet
EndChar

StartChar: u0B93
Encoding: 113 2963 113
Width: 1858
GlyphClass: 1
Flags: HW
AnchorPoint: "V" 916.5 1306 basechar 0
AnchorPoint: "N" 916.5 -655.664 basechar 0
LayerCount: 2
Fore
SplineSet
171 625 m 0x8fdc
 243 892 460 1292 1097 1292 c 0
 1676 1292 1767 918 1686 617 c 0
 1587 248 1376 159 1250 159 c 0
 1075 159 1059 286 1112 484 c 1
 1072 407 1046 345 1033 298 c 0
 983 113 1103 67 1274 67 c 2
 1476 67 l 1
 1446 -45 l 1
 1298 -45 l 2xb7dc
 1005 -45 1080 -713 478 -713 c 0
 206 -713 66 -566 125 -345 c 0
 172 -170 296 -31 475 -31 c 0
 690 -31 716 -167 692 -257 c 0
 670 -340 622 -406 550 -456 c 1
 469 -405 l 1
 519 -363 551 -316 565 -265 c 0
 578 -215 568 -140 450 -140 c 0
 375 -140 264 -181 220 -345 c 0
 191 -453 245 -614 528 -614 c 0
 892 -614 840 -85 1095 -7 c 1
 946 32 935 177 971 313 c 0
 1022 505 1169 708 1275 743 c 1
 1313 711 l 1
 1254 668 1211 599 1186 504 c 0
 1156 393 1177 311 1240 311 c 0xd7bc
 1350 311 1431 408 1483 603 c 0
 1574 943 1330 1190 1043 1190 c 0
 540 1190 364 874 311 767 c 1
 373 832 454 865 554 865 c 0
 747 865 835 728 783 535 c 0
 731 341 606 175 410 175 c 0
 191 175 103 370 171 625 c 0x8fdc
266 623 m 1
 226 473 274 329 392 329 c 0x8fdc
 446 329 538 364 580 522 c 0
 624 688 553 751 480 751 c 0
 372 751 301 683 266 623 c 1
EndSplineSet
EndChar

StartChar: u0B95
Encoding: 115 2965 115
Width: 1647
GlyphClass: 1
Flags: HW
AnchorPoint: "V" 1127 1306 basechar 0
AnchorPoint: "N" 1127 1 basechar 0
LayerCount: 2
Fore
SplineSet
417 1 m 0
 173 1 37 129 111 405 c 0
 177 650 385 743 445 743 c 1
 591 1290 l 1
 1457 1290 l 1
 1430 1190 l 1
 1163 1190 l 1
 1045 747 l 1
 1389 747 1571 686 1480 347 c 0
 1406 70 1200 1 1059 1 c 0
 896 1 816 52 816 153 c 1
 787 124 632 1 417 1 c 0
845 747 m 1
 963 1190 l 1
 656 1190 l 1
 538 747 l 1
 845 747 l 1
926 304 m 2
 895 188 905 102 1041 102 c 0
 1101 102 1235 137 1293 343 c 1
 1368 623 1233 645 1017 645 c 1
 926 304 l 2
468 645 m 2
 404 645 253 586 198 380 c 0
 148 195 220 102 413 102 c 0
 534 102 697 205 723 295 c 1
 816 645 l 1
 468 645 l 2
EndSplineSet
EndChar

StartChar: u0B95_u0BBF
Encoding: 116 -1 116
Width: 1940
GlyphClass: 1
Flags: HW
AnchorPoint: "V" 1127 2044.2 basechar 0
AnchorPoint: "N" 1127 1 basechar 0
LayerCount: 2
Fore
SplineSet
338 1246 m 0
 440 1627 754 2080 1443 2080 c 0
 1867 2080 2193 1920 2021 1279 c 2
 1679 0 l 1
 1600 0 l 1
 1947 1296 l 2
 2038 1636 1784 1862 1386 1862 c 0
 718 1862 500 1500 435 1259 c 0
 387 1078 390 896 461 802 c 1
 593 1292 l 1
 1458 1292 l 1
 1432 1192 l 1
 1165 1192 l 1
 1046 749 l 1
 1384 749 1572 688 1482 351 c 0
 1408 74 1203 5 1062 5 c 0
 899 5 819 56 819 157 c 1
 790 128 635 5 420 5 c 0
 176 5 40 133 114 409 c 0
 166 602 303 699 389 731 c 1
 293 844 276 1016 338 1246 c 0
845 749 m 1
 964 1192 l 1
 657 1192 l 1
 538 749 l 1
 845 749 l 1
926 306 m 2
 895 190 905 104 1041 104 c 0
 1116 104 1246 165 1299 364 c 0
 1370 629 1216 647 1018 647 c 1
 926 306 l 2
468 647 m 2
 404 647 253 588 198 382 c 0
 148 197 221 104 414 104 c 0
 535 104 697 207 723 297 c 1
 817 647 l 1
 468 647 l 2
EndSplineSet
LCarets2: 1 0
EndChar

StartChar: u0B95_u0BC0
Encoding: 117 -1 117
Width: 1647
GlyphClass: 1
Flags: HW
AnchorPoint: "V" 1127 2102.49 basechar 0
AnchorPoint: "N" 1127 1 basechar 0
LayerCount: 2
Fore
SplineSet
1319 1723 m 0xfec0
 1290 1613 1348 1538 1434 1538 c 0
 1534 1538 1633 1626 1660 1726 c 0
 1687 1825 1649 1927 1527 1927 c 1
 1431 1908 1346 1825 1319 1723 c 0xfec0
844 748 m 1xff
 963 1191 l 1
 656 1191 l 1
 537 748 l 1
 844 748 l 1xff
925 305 m 2
 894 189 904 103 1040 103 c 0
 1121 103 1242 155 1293 344 c 0xfe20
 1371 636 1219 646 1017 646 c 1
 925 305 l 2
467 646 m 2
 403 646 252 587 197 381 c 0
 147 196 220 103 413 103 c 0
 534 103 696 206 722 296 c 1
 816 646 l 1
 467 646 l 2
414 4 m 0
 170 4 34 132 108 408 c 0
 151 567 260 682 384 729 c 1
 288 842 270 1014 332 1244 c 0
 477 1786 934 2148 1429 2148 c 0
 1641 2148 1907 2075 1822 1757 c 0
 1773 1574 1615 1447 1432 1447 c 0
 1232 1447 1195 1601 1228 1725 c 0xfec0
 1253 1818 1321 1924 1407 1971 c 1
 1375 1976 1343 1979 1311 1979 c 0
 873 1979 515 1579 429 1258 c 0
 381 1077 385 895 456 801 c 1
 587 1291 l 1
 1453 1291 l 1
 1426 1191 l 1
 1159 1191 l 1
 1040 748 l 1xff
 1378 748 1567 687 1477 350 c 0
 1403 73 1198 4 1057 4 c 0
 894 4 813 55 813 156 c 1
 784 127 629 4 414 4 c 0
EndSplineSet
LCarets2: 1 0
EndChar

StartChar: u0B95_u0BC1
Encoding: 118 -1 118
Width: 2087
GlyphClass: 2
Flags: HW
AnchorPoint: "V" 1127 1306 basechar 0
AnchorPoint: "N" 1127 1 basechar 0
LayerCount: 2
Fore
SplineSet
664 1233 m 1
 409 1020 273 660 209 423 c 0
 73 -86 246 -470 759 -470 c 0
 1352 -470 1587 -150 1706 295 c 0
 1762 505 1717 645 1442 645 c 1
 1351 304 l 2
 1319 185 1106 2 842 2 c 0
 598 2 465 130 539 406 c 0
 603 645 809 744 871 744 c 1
 1017 1291 l 1
 1884 1291 l 1
 1857 1191 l 1
 1590 1191 l 1
 1472 748 l 1
 1812 748 2004 659 1908 302 c 0
 1796 -116 1619 -320 1357 -452 c 0
 1201 -530 1001 -569 757 -569 c 0
 170 -569 -52 -207 119 432 c 0
 182 667 345 1074 621 1290 c 1
 664 1233 l 1
1269 747 m 1
 1387 1190 l 1
 1082 1190 l 1
 964 747 l 1
 1269 747 l 1
893 647 m 2
 854 647 686 612 625 383 c 0
 575 198 648 105 841 105 c 0
 954 105 1122 199 1148 297 c 2
 1242 647 l 1
 893 647 l 2
EndSplineSet
LCarets2: 1 0
EndChar

StartChar: u0B95_u0BC2.old
Encoding: 119 -1 119
Width: 2695
Flags: HW
AnchorPoint: "V" 1127 1306 basechar 0
AnchorPoint: "N" 1127 1 basechar 0
LayerCount: 2
Fore
SplineSet
5 407 m 0
 5 652 201 745 266 745 c 1
 266 1292 l 1
 1197 1292 l 1
 1197 1192 l 1
 910 1192 l 1
 910 749 l 1
 1262 749 l 2
 1287 749 1360 733 1376 659 c 1
 1421 732 1545 768 1749 768 c 0
 1921 768 2162 684 2162 437 c 0
 2162 279 2047 167 1949 102 c 1
 2408 102 l 1
 2408 2 l 1
 1654 2 l 1
 1654 102 l 1
 1829 199 1917 305 1917 422 c 0
 1917 557 1806 647 1675 647 c 0
 1522 647 1427 594 1408 520 c 1
 1408 1 l 1
 1193 1 l 1
 1193 646 l 1
 909 646 l 1
 909 305 l 2
 909 146 676 3 450 3 c 0
 188 3 5 131 5 407 c 0
694 749 m 1
 694 1192 l 1
 364 1192 l 1
 364 749 l 1
 694 749 l 1
319 649 m 2
 250 649 105 590 105 384 c 0
 105 199 209 106 417 106 c 0
 547 106 692 209 694 299 c 1
 694 649 l 1
 319 649 l 2
EndSplineSet
EndChar

StartChar: u0B95_u0BCD
Encoding: 120 -1 120
Width: 1647
GlyphClass: 2
Flags: HW
AnchorPoint: "N" 1127 1 basechar 0
LayerCount: 2
Fore
SplineSet
976 1668 m 0xfe80
 1001 1762 1090 1831 1169 1831 c 0
 1255 1831 1302 1760 1278 1668 c 1
 1254 1578 1165 1505 1083 1505 c 0
 1001 1505 952 1579 976 1668 c 0xfe80
415 1 m 0
 171 1 35 129 109 405 c 0
 175 650 383 743 443 743 c 1
 589 1290 l 1
 1455 1290 l 1
 1428 1190 l 1
 1161 1190 l 1
 1043 747 l 1xfd80
 1385 747 1569 687 1479 351 c 0
 1403 70 1200 1 1058 1 c 0
 895 1 814 52 814 153 c 1
 785 124 630 1 415 1 c 0
843 747 m 1
 961 1190 l 1
 655 1190 l 1
 536 747 l 1
 843 747 l 1
924 304 m 2
 893 188 903 102 1039 102 c 0
 1114 102 1239 148 1295 357 c 0
 1367 626 1216 645 1015 645 c 1
 924 304 l 2
466 645 m 2
 402 645 251 586 196 380 c 0
 146 195 218 102 411 102 c 0
 532 102 695 205 721 295 c 1
 815 645 l 1
 466 645 l 2
EndSplineSet
LCarets2: 1 0
EndChar

StartChar: u0B99
Encoding: 121 2969 121
Width: 1860
GlyphClass: 1
Flags: HW
AnchorPoint: "V" 1243.5 1306 basechar 0
AnchorPoint: "N" 1243.5 0 basechar 0
LayerCount: 2
Fore
SplineSet
1010 849 m 0
 1146 849 1303 736 1230 462 c 0
 1176 262 1071 139 942 86 c 1
 1438 86 l 1
 1760 1290 l 1
 1946 1290 l 1
 1600 0 l 1
 400 0 l 1
 423 86 l 1
 733 86 l 1
 936 163 1019 371 1046 473 c 0
 1097 663 992 713 927 713 c 0
 878 713 805 685 761 599 c 1
 700 370 l 1
 500 370 l 1
 719 1187 l 1
 414 1187 l 1
 95 -3 l 1
 2 -3 l 1
 348 1287 l 1
 1214 1287 l 1
 1188 1187 l 1
 921 1187 l 1
 807 763 l 1
 864 820 931 849 1010 849 c 0
EndSplineSet
EndChar

StartChar: u0B99_u0BBF
Encoding: 122 -1 122
Width: 2113
GlyphClass: 2
Flags: HW
AnchorPoint: "V" 1243.5 1306 basechar 0
AnchorPoint: "N" 1243.5 0 basechar 0
LayerCount: 2
Fore
SplineSet
1458 1554 m 0xeee0
 1538 1853 1728 2035 1996 2035 c 0
 2299 2035 2339 1814 2250 1480 c 2
 1853 0 l 1
 1773 0 l 1
 2161 1447 l 2
 2231 1710 2171 1834 1939 1834 c 0
 1791 1834 1613 1738 1554 1517 c 0
 1496 1300 1602 1246 1707 1246 c 1xeee0
 1719 1292 l 1
 1905 1292 l 1
 1559 2 l 1
 399 2 l 1
 423 88 l 1
 732 88 l 1
 935 165 1019 373 1046 475 c 0
 1097 665 991 715 926 715 c 0
 877 715 805 687 761 601 c 1
 699 372 l 1
 500 372 l 1
 718 1189 l 1
 413 1189 l 1
 95 -1 l 1
 2 -1 l 1
 347 1289 l 1
 1214 1289 l 1
 1187 1189 l 1
 920 1189 l 1
 807 765 l 1
 864 822 931 851 1010 851 c 0
 1146 851 1303 738 1230 464 c 0xdf60
 1176 264 1070 141 941 88 c 1
 1397 88 l 1
 1680 1145 l 1
 1534 1145 1373 1237 1458 1554 c 0xeee0
EndSplineSet
LCarets2: 1 0
EndChar

StartChar: u0B99_u0BC0
Encoding: 123 -1 123
Width: 2119
GlyphClass: 2
Flags: HW
AnchorPoint: "V" 1243.5 1306 basechar 0
AnchorPoint: "N" 1243.5 0 basechar 0
LayerCount: 2
Fore
SplineSet
1011 849 m 0xdfe8
 1147 849 1304 736 1231 462 c 0
 1177 262 1072 139 943 86 c 1
 1437 86 l 1
 1718 1135 l 1xefe8
 1583 1135 1480 1289 1551 1555 c 0
 1663 1973 2019 2078 2204 2078 c 0
 2334 2078 2441 2049 2527 1990 c 0
 2613 1931 2635 1830 2597 1687 c 0
 2548 1504 2390 1377 2207 1377 c 0
 2007 1377 1970 1531 2003 1655 c 0
 2027 1746 2098 1858 2183 1900 c 1
 2151 1905 2119 1908 2088 1908 c 0
 1882 1908 1694 1697 1647 1521 c 0
 1584 1285 1668 1206 1738 1206 c 1xefd8
 1760 1290 l 1
 1959 1290 l 1
 1613 0 l 1
 401 0 l 1
 424 86 l 1
 733 86 l 1
 936 163 1020 371 1047 473 c 0
 1098 663 993 713 928 713 c 0
 879 713 806 685 762 599 c 1
 701 370 l 1
 501 370 l 1
 720 1187 l 1
 415 1187 l 1
 96 -3 l 1
 3 -3 l 1
 348 1287 l 1
 1215 1287 l 1
 1188 1187 l 1
 922 1187 l 1
 808 763 l 1
 865 820 932 849 1011 849 c 0xdfe8
2094 1654 m 0xcfd8
 2067 1554 2114 1468 2209 1468 c 0
 2300 1468 2403 1542 2433 1653 c 0
 2467 1783 2400 1856 2302 1856 c 1
 2207 1836 2122 1759 2094 1654 c 0xcfd8
EndSplineSet
LCarets2: 1 0
EndChar

StartChar: u0B99_u0BC1
Encoding: 124 -1 124
Width: 1860
GlyphClass: 2
Flags: HW
AnchorPoint: "V" 1243.5 1306 basechar 0
AnchorPoint: "N" 1243.5 0 basechar 0
LayerCount: 2
Fore
SplineSet
1010 849 m 0
 1146 849 1303 736 1230 462 c 0
 1176 262 1071 139 942 86 c 1
 1438 86 l 1
 1760 1290 l 1
 1946 1290 l 1
 1494 -387 l 1
 1310 -387 l 1
 1414 0 l 1
 400 0 l 1
 423 86 l 1
 733 86 l 1
 936 163 1019 371 1046 473 c 0
 1097 663 992 713 927 713 c 0
 878 713 805 685 761 599 c 1
 700 370 l 1
 500 370 l 1
 719 1187 l 1
 414 1187 l 1
 95 -3 l 1
 2 -3 l 1
 348 1287 l 1
 1214 1287 l 1
 1188 1187 l 1
 921 1187 l 1
 807 763 l 1
 864 820 931 849 1010 849 c 0
EndSplineSet
LCarets2: 1 0
EndChar

StartChar: u0B99_u0BC2
Encoding: 125 -1 125
Width: 2460
GlyphClass: 2
Flags: HW
AnchorPoint: "V" 1243.5 1306 basechar 0
AnchorPoint: "N" 1243.5 0 basechar 0
LayerCount: 2
Fore
SplineSet
889 -731 m 0xff38
 378 -731 354 -515 393 -371 c 0
 442 -189 566 -92 742 -92 c 0
 961 -92 977 -249 945 -368 c 0xfed8
 919 -465 844 -556 760 -597 c 1
 795 -632 841 -641 920 -641 c 0
 1167 -641 1472 -536 1620 -428 c 0
 1763 -324 1895 -155 1940 14 c 0
 1971 128 1895 235 1811 235 c 0
 1765 235 1684 219 1638 138 c 1
 1517 -316 l 1
 1331 -316 l 1
 1415 0 l 1
 402 0 l 1
 425 86 l 1
 734 86 l 1
 937 163 1021 371 1048 473 c 0
 1099 663 993 713 928 713 c 0
 879 713 807 685 763 599 c 1
 702 370 l 1
 502 370 l 1
 721 1187 l 1
 416 1187 l 1
 97 -3 l 1
 4 -3 l 1
 349 1287 l 1
 1216 1287 l 1
 1189 1187 l 1
 922 1187 l 1
 809 763 l 1
 866 820 933 849 1012 849 c 0
 1148 849 1305 736 1232 462 c 0
 1178 262 1073 139 944 86 c 1
 1439 86 l 1
 1762 1290 l 1
 1948 1290 l 1
 1674 266 l 1
 1735 342 1828 377 1911 377 c 0
 2035 377 2227 254 2159 1 c 0
 2127 -117 2027 -342 1712 -535 c 0
 1566 -625 1291 -731 889 -731 c 0xff38
818 -363 m 0
 847 -254 796 -178 703 -178 c 0
 605 -178 505 -262 478 -363 c 0
 445 -485 503 -566 609 -566 c 1
 688 -549 785 -485 818 -363 c 0
EndSplineSet
LCarets2: 1 0
EndChar

StartChar: u0B99_u0BCD
Encoding: 126 -1 126
Width: 1808
GlyphClass: 2
Flags: HW
AnchorPoint: "N" 1243.5 0 basechar 0
LayerCount: 2
Fore
SplineSet
1010 849 m 0xfd80
 1146 849 1303 736 1230 462 c 0
 1176 262 1071 139 942 86 c 1
 1438 86 l 1
 1760 1290 l 1
 1946 1290 l 1
 1600 0 l 1
 400 0 l 1
 423 86 l 1
 733 86 l 1
 936 163 1019 371 1046 473 c 0
 1097 663 992 713 927 713 c 0
 878 713 805 685 761 599 c 1
 700 370 l 1
 500 370 l 1
 719 1187 l 1
 414 1187 l 1
 95 -3 l 1
 2 -3 l 1
 348 1287 l 1
 1214 1287 l 1
 1188 1187 l 1
 921 1187 l 1
 807 763 l 1
 864 820 931 849 1010 849 c 0xfd80
1092 1668 m 0xfe80
 1117 1762 1207 1831 1286 1831 c 0
 1371 1831 1419 1760 1395 1668 c 0
 1371 1578 1281 1505 1199 1505 c 0
 1117 1505 1068 1579 1092 1668 c 0xfe80
EndSplineSet
LCarets2: 1 0
EndChar

StartChar: u0B9A
Encoding: 127 2970 127
Width: 1380
GlyphClass: 1
Flags: HW
AnchorPoint: "V" 1126.5 1306 basechar 0
AnchorPoint: "N" 1126.5 419.28 basechar 0
LayerCount: 2
Fore
SplineSet
415 2 m 0
 171 2 36 130 110 406 c 0
 176 651 383 744 443 744 c 1
 590 1291 l 1
 1455 1291 l 1
 1429 1191 l 1
 1162 1191 l 1
 1043 748 l 1
 1310 748 l 1
 1282 645 l 1
 1014 645 l 1
 923 304 l 2
 880 145 625 2 415 2 c 0
844 748 m 1
 963 1191 l 1
 656 1191 l 1
 537 748 l 1
 844 748 l 1
468 648 m 2
 404 648 253 589 198 383 c 0
 148 198 221 105 414 105 c 0
 535 105 697 208 723 298 c 1
 817 648 l 1
 468 648 l 2
EndSplineSet
EndChar

StartChar: u0B9A_u0BBF
Encoding: 128 -1 128
Width: 1687
GlyphClass: 1
Flags: HW
AnchorPoint: "V" 1126.5 2067.28 basechar 0
AnchorPoint: "N" 1126.5 419.28 basechar 0
LayerCount: 2
Fore
SplineSet
337 1246 m 0
 427 1582 704 2080 1282 2080 c 0
 1754 2080 1887 1765 1757 1279 c 2
 1414 0 l 1
 1334 0 l 1
 1681 1296 l 2
 1760 1591 1594 1862 1226 1862 c 0
 745 1862 517 1567 434 1258 c 0
 386 1077 389 895 460 801 c 1
 591 1291 l 1
 1457 1291 l 1
 1430 1191 l 1
 1164 1191 l 1
 1045 748 l 1
 1312 748 l 1
 1285 648 l 1
 1018 648 l 1
 927 307 l 2
 884 148 629 5 419 5 c 0
 175 5 39 133 113 409 c 0
 165 602 302 699 388 731 c 1
 292 844 275 1016 337 1246 c 0
845 749 m 1
 964 1192 l 1
 657 1192 l 1
 538 749 l 1
 845 749 l 1
470 649 m 2
 406 649 255 590 200 384 c 0
 150 199 222 106 415 106 c 0
 536 106 699 209 725 299 c 1
 818 649 l 1
 470 649 l 2
EndSplineSet
LCarets2: 1 0
EndChar

StartChar: u0B95_u0BB7
Encoding: 129 -1 129
Width: 3980
GlyphClass: 2
Flags: HW
HStem: 1 175<1370.49 1596.79> 1 105<244.481 572.832 2227 3081 3299 3600.79> 649 100<352.379 449 540 820 1049 1284 1407 1704.22> 1192 100<659 966 1167 1434 1804.19 2191.82 3087.4 3322.65>
AnchorPoint: "V" 1127 1306 basechar 0
AnchorPoint: "N" 1127 1 basechar 0
AnchorPoint: "R" 3413 1188 exit 0
LayerCount: 2
Fore
SplineSet
2865 947 m 0x70
 2908 1108 3023 1293 3285 1293 c 256
 3555 1293 3576 1146 3550 1048 c 2
 3438 630 l 1
 3723 572 3843 462 3800 301 c 0
 3746 103 3612 1 3435 1 c 2
 3267 1 l 1
 3102 -616 l 1
 2916 -616 l 1
 3081 1 l 1
 1943 1 l 1x70
 2143 170 2272 365 2332 588 c 0
 2426 940 2305 1188 2023 1188 c 0
 1663 1188 1449 903 1407 745 c 1
 1684 745 l 2
 1904 745 1987 644 1933 442 c 0
 1870 206 1716 1 1513 1 c 0xb0
 1245 1 1169 216 1284 646 c 1
 1020 646 l 1
 929 305 l 2
 886 146 631 3 421 3 c 0
 177 3 41 131 115 407 c 0
 181 652 389 745 449 745 c 1
 595 1292 l 1
 1461 1292 l 1
 1434 1192 l 1
 1167 1192 l 1
 1049 749 l 1
 1320 749 l 1
 1384 906 1584 1293 2055 1293 c 0
 2579 1293 2606 905 2524 600 c 0
 2474 415 2375 250 2227 106 c 1
 3112 106 l 1
 3232 555 l 1
 2934 619 2812 750 2865 947 c 0x70
3354 1013 m 2
 3385 1129 3311 1184 3195 1184 c 0
 3073 1184 2984 1088 2947 949 c 0
 2926 872 2947 810 3011 763 c 0
 3075 716 3158 682 3260 661 c 1
 3354 1013 l 2
3696 313 m 0
 3725 423 3596 481 3410 518 c 1
 3299 103 l 1
 3469 103 l 2
 3582 103 3658 173 3696 313 c 0
1477 176 m 0xb0
 1626 176 1711 355 1733 438 c 0
 1770 577 1717 646 1573 646 c 2
 1376 646 l 1
 1352 555 1320 404 1325 342 c 0
 1334 231 1385 176 1477 176 c 0xb0
847 749 m 1
 966 1192 l 1
 659 1192 l 1
 540 749 l 1
 847 749 l 1
471 649 m 2
 407 649 256 590 201 384 c 0
 151 199 224 106 417 106 c 0x70
 538 106 700 209 726 299 c 1
 820 649 l 1
 471 649 l 2
EndSplineSet
LCarets2: 2 0 0
EndChar

StartChar: u0B95_u0BB7_u0BBF
Encoding: 130 -1 130
Width: 4273
GlyphClass: 2
Flags: HW
AnchorPoint: "V" 1127 1306 basechar 0
AnchorPoint: "N" 1127 1 basechar 0
LayerCount: 2
Fore
SplineSet
3350 1008 m 2x3fff
 3381 1124 3307 1179 3191 1179 c 0
 3069 1179 2980 1083 2943 944 c 0
 2895 764 3106 688 3256 656 c 1
 3350 1008 l 2x3fff
3692 308 m 0
 3721 418 3592 476 3406 513 c 1
 3295 98 l 1
 3465 98 l 2
 3578 98 3654 168 3692 308 c 0
1372 641 m 1
 1296 358 1292 171 1473 171 c 0xbfff
 1622 171 1706 350 1728 433 c 0
 1766 573 1706 641 1568 641 c 2
 1372 641 l 1
843 744 m 1
 961 1187 l 1
 655 1187 l 1
 536 744 l 1
 843 744 l 1
467 644 m 2
 403 644 252 585 197 379 c 0
 147 194 220 101 413 101 c 0
 534 101 696 204 722 294 c 1
 816 644 l 1
 467 644 l 2
1322 751 m 1
 1386 908 1585 1295 2056 1295 c 0
 2580 1295 2607 907 2525 602 c 0
 2475 417 2376 252 2228 108 c 1
 3114 108 l 1
 3234 557 l 1
 2936 621 2813 752 2866 949 c 0
 2909 1110 3025 1295 3287 1295 c 1
 3319 1290 l 1
 3302 1337 3297 1453 3333 1586 c 0
 3439 1980 3750 2078 4021 2078 c 0
 4331 2078 4537 1961 4411 1491 c 2
 4011 -2 l 1
 3932 -2 l 1
 4332 1489 l 2
 4396 1727 4304 1885 3967 1885 c 0
 3667 1885 3480 1747 3406 1472 c 0
 3385 1394 3388 1328 3417 1273 c 1
 3552 1234 3569 1128 3547 1045 c 2
 3435 627 l 1
 3721 568 3843 459 3800 300 c 0
 3764 167 3664 3 3436 3 c 2
 3269 3 l 1
 3103 -614 l 1
 2917 -614 l 1
 3083 3 l 1
 1944 3 l 1x7fff
 2144 172 2273 367 2333 590 c 0
 2427 942 2306 1190 2024 1190 c 0
 1664 1190 1450 905 1408 747 c 1
 1685 747 l 2
 1905 747 1988 646 1934 444 c 0
 1871 208 1718 3 1515 3 c 0
 1247 3 1171 218 1286 648 c 1
 1022 648 l 1
 930 307 l 2
 887 148 632 5 422 5 c 0
 178 5 43 133 117 409 c 0
 183 654 390 747 450 747 c 1
 597 1294 l 1
 1463 1294 l 1
 1436 1194 l 1
 1169 1194 l 1
 1050 751 l 1
 1322 751 l 1
EndSplineSet
LCarets2: 1 0
EndChar

StartChar: u0B95_u0BB7_u0BC0
Encoding: 131 -1 131
Width: 3980
GlyphClass: 2
Flags: HW
AnchorPoint: "V" 1127 1306 basechar 0
AnchorPoint: "N" 1127 1 basechar 0
LayerCount: 2
Fore
SplineSet
3684 1981 m 0x7ffd80
 3472 1981 3313 1757 3269 1593 c 0
 3237 1473 3264 1363 3321 1293 c 1
 3484 1293 3590 1195 3551 1049 c 2
 3439 631 l 1
 3778 562 3835 431 3799 298 c 0
 3763 165 3663 1 3435 1 c 2
 3267 1 l 1
 3102 -616 l 1
 2916 -616 l 1
 3081 1 l 1
 1943 1 l 1x7ffe40
 2143 170 2272 365 2332 588 c 0
 2426 940 2305 1188 2023 1188 c 0
 1663 1188 1449 903 1407 745 c 1
 1684 745 l 2
 1904 745 1987 644 1933 442 c 0
 1870 206 1716 1 1513 1 c 0xbffe40
 1245 1 1169 216 1284 646 c 1
 1020 646 l 1
 929 305 l 2
 886 146 631 3 421 3 c 0
 177 3 41 131 115 407 c 0
 181 652 389 745 449 745 c 1
 595 1292 l 1
 1461 1292 l 1
 1434 1192 l 1
 1167 1192 l 1
 1049 749 l 1
 1320 749 l 1
 1384 906 1584 1293 2055 1293 c 0
 2579 1293 2606 905 2524 600 c 0
 2474 415 2375 250 2227 106 c 1
 3112 106 l 1
 3232 555 l 1
 2934 619 2812 750 2865 947 c 0
 2922 1159 3072 1291 3244 1291 c 1
 3189 1361 3132 1480 3172 1628 c 0
 3273 2006 3566 2152 3800 2152 c 0
 3931 2152 4038 2123 4123 2064 c 0
 4208 2005 4231 1904 4193 1761 c 0
 4144 1579 3987 1451 3805 1451 c 0
 3605 1451 3567 1604 3600 1729 c 0
 3624 1820 3695 1931 3780 1973 c 1
 3748 1978 3716 1981 3684 1981 c 0x7ffd80
3689 1729 m 0x3ffd80
 3662 1629 3709 1543 3804 1543 c 0
 3895 1543 3998 1617 4028 1728 c 0
 4058 1845 4009 1932 3898 1932 c 1
 3805 1913 3717 1834 3689 1729 c 0x3ffd80
3356 1014 m 2
 3387 1130 3314 1185 3198 1185 c 0
 3076 1185 2987 1089 2950 950 c 0
 2902 770 3112 694 3262 662 c 1
 3356 1014 l 2
3698 314 m 0x3ffc40
 3727 424 3599 482 3413 519 c 1
 3301 104 l 1
 3472 104 l 2
 3585 104 3660 174 3698 314 c 0x3ffc40
1379 647 m 1
 1304 368 1298 177 1479 177 c 0xbffc
 1627 177 1713 357 1735 439 c 0
 1772 578 1719 647 1575 647 c 2
 1379 647 l 1
849 750 m 1
 968 1193 l 1
 661 1193 l 1
 542 750 l 1
 849 750 l 1
473 650 m 2
 409 650 258 591 203 385 c 0
 153 200 226 107 419 107 c 0
 540 107 702 210 728 300 c 1
 822 650 l 1
 473 650 l 2
EndSplineSet
LCarets2: 2 0 0
EndChar

StartChar: u0B95_u0BB7_u0BCD
Encoding: 132 -1 132
Width: 3980
GlyphClass: 2
Flags: HW
AnchorPoint: "N" 1127 1 basechar 0
LayerCount: 2
Fore
SplineSet
2865 947 m 0x7fee
 2908 1108 3023 1293 3285 1293 c 256
 3555 1293 3576 1146 3550 1048 c 2
 3438 630 l 1
 3723 572 3843 462 3800 301 c 0
 3746 103 3612 1 3435 1 c 2
 3267 1 l 1
 3102 -616 l 1
 2916 -616 l 1
 3081 1 l 1
 1943 1 l 1x7fee
 2143 170 2272 365 2332 588 c 0
 2426 940 2305 1188 2023 1188 c 0
 1663 1188 1449 903 1407 745 c 1
 1684 745 l 2
 1904 745 1987 644 1933 442 c 0
 1870 206 1716 1 1513 1 c 0xbfee
 1245 1 1169 216 1284 646 c 1
 1020 646 l 1
 929 305 l 2
 886 146 631 3 421 3 c 0
 177 3 41 131 115 407 c 0
 181 652 389 745 449 745 c 1
 595 1292 l 1
 1461 1292 l 1
 1434 1192 l 1
 1167 1192 l 1
 1049 749 l 1
 1320 749 l 1
 1384 906 1584 1293 2055 1293 c 0
 2579 1293 2606 905 2524 600 c 0
 2474 415 2375 250 2227 106 c 1
 3112 106 l 1
 3232 555 l 1
 2934 619 2812 750 2865 947 c 0x7fee
3354 1013 m 2
 3385 1129 3311 1184 3195 1184 c 0
 3073 1184 2984 1088 2947 949 c 0
 2905 794 3052 716 3198 677 c 1
 3260 661 l 1
 3354 1013 l 2
3696 313 m 0
 3725 423 3596 481 3410 518 c 1
 3299 103 l 1
 3469 103 l 2
 3582 103 3658 173 3696 313 c 0
1477 176 m 0xbfce
 1625 176 1712 358 1733 438 c 0
 1770 577 1717 646 1573 646 c 2
 1376 646 l 1
 1352 555 1320 404 1325 342 c 0
 1334 231 1385 176 1477 176 c 0xbfce
847 749 m 1
 966 1192 l 1
 659 1192 l 1
 540 749 l 1
 847 749 l 1
471 649 m 2
 407 649 256 590 201 384 c 0
 151 199 224 106 417 106 c 0x7fce
 538 106 700 209 726 299 c 1
 820 649 l 1
 471 649 l 2
2747 1510 m 0
 2666 1510 2616 1580 2641 1673 c 256
 2665 1761 2746 1836 2834 1836 c 0
 2921 1836 2965 1760 2942 1673 c 0x3fde
 2918 1583 2829 1510 2747 1510 c 0
EndSplineSet
LCarets2: 2 0 0
EndChar

StartChar: u0B9A_u0BC0
Encoding: 133 -1 133
Width: 1373
GlyphClass: 1
Flags: HW
AnchorPoint: "V" 1126.5 2103.73 basechar 0
AnchorPoint: "N" 1126.5 419.28 basechar 0
LayerCount: 2
Fore
SplineSet
1319 1723 m 0xfec0
 1290 1613 1348 1538 1434 1538 c 0
 1534 1538 1633 1626 1660 1726 c 0
 1687 1825 1649 1927 1527 1927 c 1
 1431 1908 1346 1825 1319 1723 c 0xfec0
844 748 m 1xff40
 963 1191 l 1
 656 1191 l 1
 537 748 l 1
 844 748 l 1xff40
468 648 m 2
 404 648 253 589 198 383 c 0
 148 198 221 105 414 105 c 0
 535 105 697 208 723 298 c 1
 817 648 l 1
 468 648 l 2
416 7 m 0
 172 7 36 135 110 411 c 0
 163 609 306 703 386 731 c 1
 290 844 272 1016 334 1246 c 0
 479 1788 936 2150 1431 2150 c 0
 1562 2150 1669 2121 1754 2062 c 0
 1839 2003 1862 1902 1824 1759 c 0
 1775 1576 1617 1449 1434 1449 c 0
 1234 1449 1196 1603 1229 1727 c 0xfec0
 1254 1820 1322 1926 1408 1973 c 1
 1376 1978 1345 1981 1313 1981 c 0
 875 1981 517 1581 431 1260 c 0
 383 1079 386 897 457 803 c 1
 588 1293 l 1
 1451 1293 l 1
 1425 1193 l 1
 1160 1193 l 1
 1042 750 l 1
 1306 750 l 1
 1279 650 l 1
 1015 650 l 1
 924 309 l 2
 881 150 626 7 416 7 c 0
EndSplineSet
LCarets2: 1 0
EndChar

StartChar: u0B9A_u0BC1
Encoding: 134 -1 134
Width: 1807
GlyphClass: 2
Flags: HW
AnchorPoint: "V" 1126.5 1306 basechar 0
AnchorPoint: "N" 1126.5 419.28 basechar 0
LayerCount: 2
Fore
SplineSet
842 746 m 1
 961 1189 l 1
 654 1189 l 1
 536 746 l 1
 842 746 l 1
467 646 m 2
 403 646 252 587 197 381 c 0
 147 196 220 103 413 103 c 0
 534 103 696 206 722 296 c 1
 816 646 l 1
 467 646 l 2
416 4 m 0
 172 4 36 132 110 408 c 0
 176 653 384 746 444 746 c 1
 590 1293 l 1
 1456 1293 l 1
 1429 1193 l 1
 1162 1193 l 1
 1044 750 l 1
 1748 750 l 1
 1721 650 l 1
 1482 650 l 1
 1308 2 l 1
 1106 2 l 1
 1279 647 l 1
 1015 647 l 1
 924 306 l 2
 881 147 626 4 416 4 c 0
EndSplineSet
LCarets2: 1 0
EndChar

StartChar: u0B9A_u0BC2
Encoding: 135 -1 135
Width: 2059
GlyphClass: 2
Flags: HW
AnchorPoint: "V" 1126.5 1306 basechar 0
AnchorPoint: "N" 1126.5 419.28 basechar 0
LayerCount: 2
Fore
SplineSet
842 746 m 1xfef0
 961 1189 l 1
 654 1189 l 1
 536 746 l 1
 842 746 l 1xfef0
467 646 m 2
 403 646 252 587 197 381 c 0
 147 196 220 103 413 103 c 0
 534 103 696 206 722 296 c 1
 816 646 l 1
 467 646 l 2
212 -333 m 0xff70
 153 -553 460 -608 693 -608 c 0
 1136 -608 1522 -293 1612 43 c 0
 1685 315 1580 395 1496 395 c 0
 1463 395 1433 383 1406 360 c 1
 1306 2 l 1
 1106 2 l 1
 1279 647 l 1
 1015 647 l 1
 924 306 l 2
 881 147 626 4 416 4 c 0
 172 4 36 132 110 408 c 0
 176 653 384 746 444 746 c 1
 590 1293 l 1xfef0
 1456 1293 l 1
 1429 1193 l 1
 1162 1193 l 1
 1044 750 l 1
 1748 750 l 1
 1721 650 l 1
 1482 650 l 1
 1430 456 l 1
 1465 495 1538 524 1604 524 c 0
 1738 524 1909 408 1813 51 c 0
 1691 -406 1243 -710 744 -710 c 0
 137 -710 82 -489 122 -341 c 0
 162 -193 321 -95 528 -95 c 0
 702 -95 807 -167 851 -227 c 1
 810 -278 l 1
 755 -218 632 -167 495 -167 c 0
 394 -167 248 -200 212 -333 c 0xff70
EndSplineSet
LCarets2: 1 0
EndChar

StartChar: u0B9A_u0BCD
Encoding: 136 -1 136
Width: 1380
GlyphClass: 2
Flags: HW
AnchorPoint: "N" 1126.5 419.28 basechar 0
LayerCount: 2
Fore
SplineSet
415 2 m 0xfd
 171 2 36 130 110 406 c 0
 176 651 383 744 443 744 c 1
 590 1291 l 1
 1455 1291 l 1
 1429 1191 l 1
 1162 1191 l 1
 1043 748 l 1
 1310 748 l 1
 1281 645 l 1
 1014 645 l 1
 923 304 l 2
 880 145 625 2 415 2 c 0xfd
844 748 m 1
 963 1191 l 1
 656 1191 l 1
 537 748 l 1
 844 748 l 1
468 648 m 2
 404 648 253 589 198 383 c 0
 148 198 221 105 414 105 c 0
 535 105 697 208 723 298 c 1
 817 648 l 1
 468 648 l 2
1083 1509 m 0
 1001 1509 952 1583 976 1672 c 0
 1001 1766 1089 1835 1171 1835 c 0
 1258 1835 1301 1759 1278 1672 c 0xfe
 1254 1582 1165 1509 1083 1509 c 0
EndSplineSet
LCarets2: 1 0
EndChar

StartChar: u0B9C
Encoding: 137 2972 137
Width: 1726
GlyphClass: 1
Flags: HW
HStem: -477 110<211.281 525.259 876.14 1149.83> 11 113<1000.68 1228.77> 444 126<317.455 503.596> 907 134<427.773 662> 1183 102<579.048 901.07 1245.82 1479.57>
AnchorPoint: "V" 1240 1306 basechar 0
AnchorPoint: "N" 1240 -472.884 basechar 0
AnchorPoint: "R" 1488 1215 exit 0
LayerCount: 2
Fore
SplineSet
1229 -184 m 0
 1269 -35 1230 11 1107 11 c 0
 930 11 691 -477 339 -477 c 0
 77 -477 -100 -373 -21 -80 c 0
 47 172 357 312 733 340 c 0
 1133 370 1264 373 1385 561 c 0
 1434 638 1476 737 1508 857 c 0
 1544 992 1549 1185 1357 1185 c 0
 1230 1185 1156 1026 1141 971 c 2
 1044 610 l 1
 858 610 l 1
 951 955 l 2
 975 1046 947 1183 754 1183 c 0
 574 1183 382 1056 346 921 c 1
 411 1001 489 1041 578 1041 c 0
 746 1041 787 880 749 739 c 0
 698 547 556 444 393 444 c 0
 212 444 159 585 235 868 c 0
 267 987 337 1086 445 1166 c 0
 553 1246 678 1285 818 1285 c 0
 1004 1285 1102 1231 1113 1122 c 1
 1180 1231 1279 1285 1408 1285 c 0
 1677 1285 1764 1110 1691 837 c 0
 1655 703 1552 445 1348 346 c 0
 1342 343 1297 318 1250 304 c 2
 1205 291 l 2
 1125 269 980 252 804 252 c 0
 331 252 204 56 169 -75 c 0
 113 -283 221 -367 338 -367 c 0
 508 -367 618 -272 721 -162 c 2
 797 -81 l 2
 932 65 1054 124 1202 124 c 0
 1381 124 1472 23 1423 -161 c 0
 1387 -296 1272 -475 1021 -475 c 0
 946 -475 889 -461 848 -432 c 1
 891 -358 l 1
 919 -369 964 -374 1024 -374 c 0
 1148 -374 1206 -271 1229 -184 c 0
404 570 m 0
 507 570 564 685 580 745 c 0
 603 829 566 907 480 907 c 0
 420 907 364 873 309 804 c 1
 276 681 300 570 404 570 c 0
EndSplineSet
EndChar

StartChar: u0B9C_u0BBF
Encoding: 138 -1 138
Width: 2074
GlyphClass: 2
Flags: HW
AnchorPoint: "V" 1240 1306 basechar 0
AnchorPoint: "N" 1240 -472.884 basechar 0
LayerCount: 2
Fore
SplineSet
406 572 m 0xfdf8
 508 572 565 689 581 750 c 0
 604 835 568 912 483 912 c 0
 423 912 368 878 313 809 c 1
 280 686 302 572 406 572 c 0xfdf8
750 745 m 0
 699 553 558 450 395 450 c 0
 214 450 161 591 237 874 c 0xfdf8
 301 1114 536 1289 819 1289 c 0
 1006 1289 1104 1235 1115 1128 c 1
 1171 1216 1253 1268 1359 1284 c 1
 1335 1359 1340 1460 1374 1588 c 0
 1431 1802 1596 2080 1955 2080 c 0
 2151 2080 2215 1992 2245 1884 c 0
 2273 1781 2248 1628 2212 1495 c 2
 1812 2 l 1
 1732 2 l 1
 2132 1493 l 2
 2161 1603 2159 1697 2127 1774 c 0
 2095 1851 2018 1889 1900 1889 c 0
 1725 1889 1535 1803 1448 1477 c 0
 1427 1399 1428 1334 1451 1282 c 1
 1614 1282 1783 1182 1692 843 c 0
 1543 287 1198 258 806 258 c 0
 337 258 204 59 169 -73 c 0
 114 -279 219 -366 338 -366 c 0
 517 -366 634 -247 705 -174 c 2
 809 -68 l 2
 889 12 1007 124 1200 124 c 0
 1379 124 1470 26 1421 -158 c 0
 1386 -290 1273 -475 1019 -475 c 0
 944 -475 887 -461 846 -432 c 1
 889 -358 l 1
 917 -369 962 -374 1022 -374 c 0
 1146 -374 1205 -268 1228 -181 c 0
 1266 -38 1233 11 1105 11 c 0
 922 11 699 -472 340 -472 c 0
 -66 -472 -63 -236 -21 -78 c 0xfef8
 69 259 535 325 818 345 c 0
 1218 373 1302 425 1393 577 c 0
 1442 658 1481 753 1510 863 c 0
 1546 998 1550 1187 1358 1187 c 0
 1227 1187 1155 1024 1142 977 c 2
 1046 616 l 1
 860 616 l 1
 952 961 l 2
 976 1052 949 1189 756 1189 c 0
 576 1189 384 1062 348 927 c 1
 411 1004 489 1043 579 1043 c 0
 736 1043 792 902 750 745 c 0
EndSplineSet
LCarets2: 1 0
EndChar

StartChar: u0B9C_u0BC0
Encoding: 139 -1 139
Width: 1827
GlyphClass: 2
Flags: HW
AnchorPoint: "V" 1240 1306 basechar 0
AnchorPoint: "N" 1240 -472.884 basechar 0
LayerCount: 2
Fore
SplineSet
1113 1122 m 1xfee6
 1168 1218 1262 1278 1371 1284 c 17
 1313 1354 1265 1482 1302 1619 c 0
 1414 2037 1740 2142 1930 2142 c 0
 2162 2142 2400 2040 2323 1751 c 0
 2274 1568 2116 1441 1933 1441 c 0
 1733 1441 1695 1595 1728 1719 c 0xfeda
 1753 1812 1822 1918 1908 1965 c 1
 1874 1970 1842 1973 1811 1973 c 0
 1632 1973 1453 1795 1397 1585 c 0
 1365 1465 1383 1374 1453 1284 c 1
 1704 1281 1749 1052 1691 837 c 0
 1655 703 1552 445 1348 346 c 0
 1342 343 1297 318 1250 304 c 2
 1205 291 l 2
 1125 269 980 252 804 252 c 0
 331 252 204 56 169 -75 c 0
 113 -283 221 -367 338 -367 c 0
 508 -367 618 -272 721 -162 c 2
 797 -81 l 2
 932 65 1054 124 1202 124 c 0
 1381 124 1472 23 1423 -161 c 0
 1387 -296 1272 -475 1021 -475 c 0
 946 -475 889 -461 848 -432 c 1
 891 -358 l 1
 919 -369 964 -374 1024 -374 c 0
 1148 -374 1206 -271 1229 -184 c 0
 1269 -35 1230 11 1107 11 c 0
 930 11 691 -477 339 -477 c 0
 77 -477 -100 -373 -21 -80 c 0xff56
 47 172 357 312 733 340 c 0
 1133 370 1264 373 1385 561 c 0
 1434 638 1476 737 1508 857 c 0
 1544 992 1549 1185 1357 1185 c 0
 1230 1185 1156 1026 1141 971 c 2
 1044 610 l 1
 858 610 l 1
 951 955 l 2
 975 1046 947 1183 754 1183 c 0
 574 1183 382 1056 346 921 c 1
 411 1001 489 1041 578 1041 c 0
 746 1041 787 880 749 739 c 0
 698 547 556 444 393 444 c 0
 212 444 159 585 235 868 c 0
 267 987 337 1086 445 1166 c 0
 553 1246 678 1285 818 1285 c 0
 1004 1285 1102 1231 1113 1122 c 1xfee6
404 570 m 0
 507 570 564 685 580 745 c 0
 603 829 566 907 480 907 c 0
 420 907 364 873 309 804 c 1
 276 681 300 570 404 570 c 0
1813 1718 m 0
 1784 1608 1843 1533 1929 1533 c 0
 2029 1533 2128 1621 2155 1721 c 0
 2182 1820 2144 1922 2022 1922 c 1
 1926 1903 1840 1820 1813 1718 c 0
EndSplineSet
LCarets2: 1 0
EndChar

StartChar: u0B9C_u0BCD
Encoding: 140 -1 140
Width: 1726
GlyphClass: 2
Flags: HW
AnchorPoint: "N" 1240 -472.884 basechar 0
LayerCount: 2
Fore
SplineSet
406 572 m 0xfd90
 508 572 565 689 581 750 c 0
 604 835 568 912 483 912 c 0
 423 912 368 878 313 809 c 1
 280 686 302 572 406 572 c 0xfd90
237 874 m 0
 301 1114 536 1289 819 1289 c 0
 1006 1289 1104 1235 1115 1128 c 1
 1209 1273 1366 1292 1432 1292 c 0
 1627 1292 1772 1138 1691 837 c 0
 1544 290 1201 258 806 258 c 0
 337 258 204 59 169 -73 c 0
 114 -279 219 -366 338 -366 c 0
 517 -366 634 -247 705 -174 c 2
 809 -68 l 2
 889 12 1007 124 1200 124 c 0
 1379 124 1470 26 1421 -158 c 0
 1386 -290 1273 -475 1019 -475 c 0
 944 -475 887 -461 846 -432 c 1
 889 -358 l 1
 917 -369 962 -374 1022 -374 c 0
 1146 -374 1205 -268 1228 -181 c 0
 1266 -38 1233 11 1105 11 c 0
 922 11 699 -472 340 -472 c 0
 -66 -472 -63 -236 -21 -78 c 0
 69 259 535 325 818 345 c 0
 1218 373 1302 425 1393 577 c 0
 1442 658 1481 753 1510 863 c 0
 1546 998 1550 1187 1358 1187 c 0
 1227 1187 1155 1024 1142 977 c 2
 1046 616 l 1
 860 616 l 1
 952 961 l 2xfeb0
 976 1052 949 1189 756 1189 c 0
 576 1189 384 1062 348 927 c 1
 411 1004 489 1043 579 1043 c 0
 736 1043 792 902 750 745 c 0
 699 553 558 450 395 450 c 0
 214 450 161 591 237 874 c 0
1196 1501 m 0
 1117 1501 1064 1574 1088 1664 c 256
 1112 1754 1202 1827 1284 1827 c 0
 1368 1827 1416 1752 1392 1664 c 0xfcd0
 1369 1579 1280 1501 1196 1501 c 0
EndSplineSet
LCarets2: 1 0
EndChar

StartChar: u0B9E
Encoding: 141 2974 141
Width: 2354
GlyphClass: 1
Flags: HW
AnchorPoint: "V" 1655.5 1306 basechar 0
AnchorPoint: "N" 1655.5 -467.944 basechar 0
LayerCount: 2
Fore
SplineSet
1676 675 m 1xdfc0
 1729 742 1825 774 1905 774 c 0
 2177 774 2238 541 2166 273 c 0
 2001 -342 1423 -573 888 -573 c 0
 291 -573 -63 -250 119 429 c 0
 182 664 344 1071 620 1287 c 1
 663 1230 l 1
 408 1017 272 657 208 420 c 0
 64 -116 341 -473 892 -473 c 0
 1601 -473 1888 -14 1970 292 c 0
 2003 415 2019 635 1824 635 c 0xefc0
 1746 635 1685 605 1640 546 c 1
 1493 -1 l 1
 1294 -1 l 1
 1613 1189 l 1
 1235 1189 l 2
 885 1189 666 920 616 732 c 1
 677 801 788 847 903 847 c 0
 1113 847 1208 682 1144 442 c 0
 1083 213 953 0 724 0 c 0
 403 0 411 328 482 593 c 0
 595 1016 886 1290 1238 1290 c 2
 2108 1290 l 1
 2081 1190 l 1
 1814 1190 l 1
 1676 675 l 1xdfc0
563 549 m 1
 490 275 579 174 688 174 c 0
 808 174 902 296 938 430 c 0
 981 592 906 709 806 709 c 0xdfc0
 682 709 601 619 563 549 c 1
EndSplineSet
EndChar

StartChar: u0B9E_u0BBF
Encoding: 142 -1 142
Width: 2606
GlyphClass: 2
Flags: HW
AnchorPoint: "V" 1655.5 1306 basechar 0
AnchorPoint: "N" 1655.5 -467.944 basechar 0
LayerCount: 2
Fore
SplineSet
482 594 m 0xdfd8
 595 1017 886 1291 1238 1291 c 2
 1731 1291 l 1
 1713 1380 1718 1479 1747 1588 c 0
 1826 1882 2029 2078 2408 2078 c 0
 2823 2078 2839 1841 2745 1491 c 2
 2345 0 l 1
 2266 0 l 1
 2666 1491 l 2
 2755 1825 2579 1887 2354 1887 c 0
 2071 1887 1894 1749 1820 1474 c 0
 1801 1403 1802 1342 1826 1291 c 1
 2106 1291 l 1
 2080 1191 l 1
 1813 1191 l 1
 1687 721 l 1
 1715 748 1784 823 1918 823 c 0
 2059 823 2229 668 2110 225 c 0
 2025 -93 1706 -570 859 -570 c 0
 287 -570 -45 -170 116 431 c 0
 179 666 342 1073 618 1289 c 1
 661 1232 l 1
 406 1019 270 659 206 422 c 0
 62 -114 409 -471 891 -471 c 0
 1567 -471 1852 -40 1929 248 c 0
 2016 572 1902 677 1807 677 c 0xefb8
 1750 677 1700 652 1654 602 c 1
 1493 0 l 1
 1294 0 l 1
 1612 1190 l 1
 1234 1190 l 2
 884 1190 666 921 616 733 c 1
 677 802 787 848 902 848 c 0
 1112 848 1208 683 1144 443 c 0
 1083 214 953 1 724 1 c 0
 403 1 411 329 482 594 c 0xdfd8
562 545 m 1
 489 271 578 170 687 170 c 0
 809 170 905 297 939 434 c 1
 975 567 918 705 805 705 c 0xdf98
 681 705 600 615 562 545 c 1
EndSplineSet
LCarets2: 1 0
EndChar

StartChar: u0B9E_u0BC0
Encoding: 143 -1 143
Width: 2355
GlyphClass: 2
Flags: HW
AnchorPoint: "V" 1655.5 1818.71 basechar 0
AnchorPoint: "N" 1655.5 -467.944 basechar 0
LayerCount: 2
Fore
SplineSet
563 547 m 1xdff8
 490 273 580 172 689 172 c 0
 798 172 899 279 939 429 c 0
 983 594 905 707 807 707 c 0
 683 707 601 617 563 547 c 1xdff8
2093 1722 m 0
 2064 1612 2123 1537 2209 1537 c 0
 2309 1537 2408 1625 2435 1725 c 0xcffa
 2462 1824 2424 1926 2302 1926 c 1
 2206 1907 2120 1824 2093 1722 c 0
2005 1727 m 0
 2029 1816 2100 1930 2185 1972 c 1
 2151 1977 2119 1980 2088 1980 c 0
 1909 1980 1730 1802 1674 1592 c 0
 1634 1442 1686 1334 1720 1293 c 1
 2109 1293 l 1
 2081 1191 l 1
 1815 1191 l 1
 1677 676 l 1
 1730 743 1825 775 1905 775 c 0
 2164 775 2236 536 2173 301 c 0
 2003 -333 1451 -570 888 -570 c 0
 291 -570 -64 -247 118 432 c 0
 181 667 344 1074 620 1290 c 1
 663 1233 l 1
 408 1020 272 660 208 423 c 0
 64 -113 341 -470 892 -470 c 0
 1601 -470 1888 -11 1970 295 c 0
 2006 428 2015 638 1824 638 c 0xeffc
 1746 638 1685 608 1640 549 c 1
 1493 2 l 1
 1294 2 l 1
 1613 1192 l 1
 1234 1192 l 2
 884 1192 666 923 616 735 c 1
 677 804 788 850 903 850 c 0xdffc
 1113 850 1208 685 1144 445 c 0
 1083 216 953 3 724 3 c 0
 403 3 411 331 482 596 c 0
 595 1019 886 1293 1238 1293 c 2
 1644 1293 l 1
 1596 1350 1538 1474 1579 1627 c 0
 1691 2045 2017 2150 2201 2150 c 0
 2433 2150 2683 2072 2599 1760 c 0
 2550 1577 2393 1449 2209 1449 c 0
 2009 1449 1972 1603 2005 1727 c 0
EndSplineSet
LCarets2: 1 0
EndChar

StartChar: u0B9E_u0BC1
Encoding: 144 -1 144
Width: 2860
GlyphClass: 2
Flags: HW
AnchorPoint: "V" 1655.5 1306 basechar 0
AnchorPoint: "N" 1655.5 -467.944 basechar 0
LayerCount: 2
Fore
SplineSet
563 547 m 1xefe0
 490 273 580 172 689 172 c 0
 798 172 899 279 939 429 c 0
 983 594 905 707 807 707 c 0
 683 707 601 617 563 547 c 1xefe0
65 -246 m 0
 47 -313 249 -615 856 -615 c 0
 1022 -615 1176 -579 1317 -506 c 0
 1458 -433 1584 -336 1693 -216 c 1
 129 -216 l 2
 92 -216 70 -226 65 -246 c 0
1679 675 m 1
 1732 742 1827 774 1907 774 c 0
 2166 774 2239 535 2176 300 c 0
 2138 159 2075 21 1987 -114 c 1
 2369 -114 l 1
 2745 1291 l 1
 2945 1291 l 1
 2542 -215 l 1
 1913 -215 l 1
 1748 -418 1407 -715 849 -715 c 0
 121 -715 -68 -324 -46 -191 c 1
 -32 -140 3 -115 60 -115 c 2
 1774 -115 l 1
 1869 16 1935 151 1973 292 c 0
 2009 425 2017 635 1826 635 c 0xf7e0
 1748 635 1688 605 1643 546 c 1
 1496 -1 l 1
 1297 -1 l 1
 1616 1189 l 1
 1237 1189 l 2
 887 1189 669 920 619 732 c 1
 680 801 791 847 906 847 c 0
 1116 847 1211 682 1147 442 c 0
 1086 213 956 0 727 0 c 0
 406 0 414 328 485 593 c 0
 598 1016 889 1290 1241 1290 c 2
 2111 1290 l 1
 2084 1190 l 1
 1817 1190 l 1
 1679 675 l 1
EndSplineSet
LCarets2: 1 0
EndChar

StartChar: u0B9E_u0BC2
Encoding: 145 -1 145
Width: 3527
GlyphClass: 2
Flags: HW
AnchorPoint: "V" 1655.5 1306 basechar 0
AnchorPoint: "N" 1655.5 -467.944 basechar 0
LayerCount: 2
Fore
SplineSet
563 547 m 1xeff0
 490 273 580 172 689 172 c 0
 798 172 899 279 939 429 c 0
 983 594 905 707 807 707 c 0
 683 707 601 617 563 547 c 1xeff0
50 -246 m 0
 32 -315 243 -613 853 -613 c 0
 978 -613 1340 -598 1693 -216 c 1
 114 -216 l 2
 77 -216 55 -226 50 -246 c 0
1904 777 m 0xf7f0
 2163 777 2235 538 2172 303 c 0
 2132 155 2070 18 1985 -109 c 1
 2367 -109 l 1
 2744 1296 l 1
 3611 1296 l 1
 3584 1196 l 1
 3317 1196 l 1
 2940 -209 l 1
 2741 -209 l 1
 3118 1196 l 1
 2811 1196 l 1
 2434 -209 l 1
 1910 -209 l 1
 1746 -412 1405 -708 849 -708 c 0
 121 -708 -68 -317 -46 -184 c 1
 -32 -133 3 -108 60 -108 c 2
 1770 -112 l 1
 1865 19 1931 154 1969 295 c 0
 2005 429 2014 638 1823 638 c 0xf7f0
 1745 638 1684 608 1639 549 c 1
 1492 2 l 1
 1293 2 l 1
 1612 1192 l 1
 1234 1192 l 2
 884 1192 665 923 615 735 c 1
 676 804 787 850 902 850 c 0xeff0
 1112 850 1207 685 1143 445 c 0
 1082 216 952 3 723 3 c 0
 402 3 410 331 481 596 c 0
 594 1019 885 1293 1237 1293 c 2
 2107 1293 l 1
 2080 1193 l 1
 1813 1193 l 1
 1675 678 l 1
 1728 745 1824 777 1904 777 c 0xf7f0
EndSplineSet
LCarets2: 1 0
EndChar

StartChar: u0B9E_u0BCD
Encoding: 146 -1 146
Width: 2314
GlyphClass: 2
Flags: HW
AnchorPoint: "N" 1655.5 -467.944 basechar 0
LayerCount: 2
Fore
SplineSet
1676 675 m 1xdfb0
 1729 742 1825 774 1905 774 c 0
 2165 774 2237 536 2173 298 c 0
 2014 -297 1505 -573 888 -573 c 0
 291 -573 -63 -250 119 429 c 0
 182 664 344 1071 620 1287 c 1
 663 1230 l 1
 408 1017 272 657 208 420 c 0
 64 -116 341 -473 892 -473 c 0
 1601 -473 1888 -14 1970 292 c 0
 2006 425 2015 635 1824 635 c 0xefb0
 1746 635 1685 605 1640 546 c 1
 1493 -1 l 1
 1294 -1 l 1
 1613 1189 l 1
 1235 1189 l 2
 885 1189 666 920 616 732 c 1
 677 801 788 847 903 847 c 0
 1113 847 1208 682 1144 442 c 0
 1083 213 953 0 724 0 c 0
 403 0 411 328 482 593 c 0
 595 1016 886 1290 1238 1290 c 2
 2108 1290 l 1
 2081 1190 l 1
 1814 1190 l 1
 1676 675 l 1xdfb0
563 549 m 1
 490 275 579 174 688 174 c 0
 797 174 898 281 938 431 c 0
 982 596 904 709 806 709 c 0xdf90
 682 709 601 619 563 549 c 1
1612 1508 m 0
 1533 1508 1480 1581 1504 1671 c 256
 1528 1761 1617 1834 1699 1834 c 0
 1783 1834 1831 1759 1807 1671 c 0xcfd0
 1784 1586 1696 1508 1612 1508 c 0
EndSplineSet
LCarets2: 1 0
EndChar

StartChar: u0B9F
Encoding: 147 2975 147
Width: 1914
GlyphClass: 1
Flags: HW
AnchorPoint: "V" 1295.5 1306 basechar 0
AnchorPoint: "N" 1295.5 0 basechar 0
LayerCount: 2
Fore
SplineSet
1653 0 m 1
 0 0 l 1
 346 1290 l 1
 533 1290 l 1
 214 100 l 1
 1679 100 l 1
 1653 0 l 1
EndSplineSet
EndChar

StartChar: u0B9F_u0BBF
Encoding: 148 -1 148
Width: 1700
GlyphClass: 2
Flags: HW
AnchorPoint: "V" 1295.5 1306 basechar 0
AnchorPoint: "N" 1295.5 0 basechar 0
LayerCount: 2
Fore
SplineSet
700 802 m 0
 779 1096 992 1286 1237 1286 c 0
 1460 1286 1462 1086 1431 969 c 2
 1194 83 l 1
 1462 83 l 1
 1440 0 l 1
 1173 0 l 1
 1007 -617 l 1
 821 -617 l 1
 987 0 l 1
 0 0 l 1
 346 1290 l 1
 533 1290 l 1
 210 86 l 1
 841 86 l 1
 701 222 620 503 700 802 c 0
1249 983 m 2
 1279 1094 1198 1122 1162 1122 c 0
 1006 1122 861 973 798 737 c 0
 715 429 860 169 1008 83 c 1
 1249 983 l 2
EndSplineSet
LCarets2: 1 0
EndChar

StartChar: u0B9F_u0BC0
Encoding: 149 -1 149
Width: 1593
GlyphClass: 2
Flags: HW
AnchorPoint: "V" 1295.5 1306 basechar 0
AnchorPoint: "N" 1295.5 0 basechar 0
LayerCount: 2
Fore
SplineSet
980 790 m 0
 779 790 610 575 563 400 c 0
 513 212 604 105 626 86 c 1
 1356 86 l 1
 1333 0 l 1
 0 0 l 1
 346 1290 l 1
 533 1290 l 1
 210 86 l 1
 550 86 l 1
 502 129 421 256 469 436 c 0
 581 854 914 958 1095 958 c 0
 1226 958 1333 929 1418 870 c 0
 1503 811 1525 710 1487 567 c 0
 1430 355 1246 259 1101 259 c 0
 883 259 868 431 896 535 c 0
 919 619 990 739 1075 781 c 1
 1031 787 1000 790 980 790 c 0
983 533 m 0
 955 428 1010 348 1098 348 c 0
 1187 348 1290 420 1324 535 c 1
 1351 636 1313 736 1191 736 c 1
 1098 717 1011 638 983 533 c 0
EndSplineSet
LCarets2: 1 0
EndChar

StartChar: u0B9F_u0BC1
Encoding: 150 -1 150
Width: 2006
GlyphClass: 2
Flags: HW
AnchorPoint: "V" 1295.5 1886.69 basechar 0
AnchorPoint: "N" 1295.5 0 basechar 0
LayerCount: 2
Fore
SplineSet
176 660 m 0
 344 1288 729 1889 1363 1889 c 0
 1839 1889 1991 1609 2011 1346 c 1
 2021 1191 1989 977 1916 704 c 0
 1846 443 1763 209 1667 0 c 1
 1588 0 l 1
 1670 162 1740 351 1798 567 c 0
 1970 1209 1931 1659 1296 1659 c 0
 756 1659 409 1162 268 634 c 0
 28 -263 362 -410 611 -410 c 0
 972 -410 1219 -28 1304 291 c 0
 1335 405 1346 634 1145 634 c 0
 1059 634 993 604 948 545 c 1
 801 -2 l 1
 601 -2 l 1
 947 1288 l 1
 1147 1288 l 1
 982 672 l 1
 1028 728 1130 771 1223 771 c 0
 1498 771 1562 510 1505 296 c 0
 1369 -210 1058 -513 604 -513 c 0
 344 -513 183 -407 122 -196 c 0
 61 15 80 301 176 660 c 0
EndSplineSet
LCarets2: 1 0
EndChar

StartChar: u0B9F_u0BC2
Encoding: 151 -1 151
Width: 1990
GlyphClass: 2
Flags: HW
AnchorPoint: "V" 1295.5 1306 basechar 0
AnchorPoint: "N" 1295.5 0 basechar 0
LayerCount: 2
Back
SplineSet
174 661 m 0xffc0
 351 1321 746 1890 1400 1890 c 0
 1717.15 1890 1903.33 1623.97 1903.33 1325.14 c 0
 1903.33 1262.16 1895.06 1197.72 1878 1134 c 1xffa0
 1815 966 1707 819 1494 800 c 1
 1220 800 1220 993 1249 1100 c 0
 1284 1230 1402 1400 1611 1400 c 0
 1644 1400 1669 1398 1684 1395 c 1
 1684.75 1404.03 1685.12 1412.88 1685.12 1421.57 c 0
 1685.12 1610.16 1512.28 1718 1323 1718 c 0
 760 1718 409 1167 266 635 c 0
 207.695 417.084 183.266 243.432 183.266 105.399 c 0
 183.266 -324.748 420.492 -409 609 -409 c 0
 1060.18 -409 1319.34 189.659 1319.34 421.353 c 0
 1319.34 526.268 1281.5 635 1143 635 c 0
 1057 635 991 605 946 546 c 1
 800 -1 l 1
 600 -1 l 1
 945 1289 l 1
 1145 1289 l 1
 980 673 l 1
 1026 729 1129 772 1222 772 c 0
 1436.75 772 1522.22 612.84 1522.22 441.19 c 0
 1522.22 149.546 1202.27 -512 602 -512 c 0
 342 -512 182 -406 121 -195 c 0
 97.3915 -113.338 85.6163 -20.4418 85.6163 83.5724 c 0
 85.6163 248.312 115.154 440.942 174 661 c 0xffc0
1344 1100 m 0
 1338.61 1079.72 1335.2 1058.33 1335.2 1037.72 c 0
 1335.2 960.779 1390.41 922.754 1457.57 922.754 c 0
 1584.03 922.754 1695.11 1043.77 1695.11 1183.56 c 0
 1695.11 1241.92 1667.93 1290 1579 1290 c 0
 1461 1290 1372 1204 1344 1100 c 0
EndSplineSet
LCarets2: 1 0
EndChar

StartChar: u0B9F_u0BCD
Encoding: 152 -1 152
Width: 1914
GlyphClass: 2
Flags: HW
AnchorPoint: "N" 1295.5 0 basechar 0
LayerCount: 2
Fore
SplineSet
1654 0 m 1
 0 0 l 1
 346 1290 l 1
 533 1290 l 1
 214 100 l 1
 1679 100 l 1
 1654 0 l 1
1145 1668 m 0
 1170 1762 1260 1831 1339 1831 c 0
 1427 1831 1470 1755 1447 1668 c 0
 1423 1579 1335 1505 1252 1505 c 0
 1170 1505 1121 1579 1145 1668 c 0
EndSplineSet
EndChar

StartChar: u0BA3
Encoding: 153 2979 153
Width: 3461
GlyphClass: 1
Flags: HW
HStem: 4 167<261.485 484.067> 4 100<1130.69 1341.78 2014.2 2221.2> 706 144<397.306 691> 1190 101<815.489 1329.55 1689.52 2206.48 2572.74 3051 3251 3518>
DStem2: 2733 1 2932 1 0.258925 0.965897<51.5262 1231.76>
AnchorPoint: "V" 2110 1306 basechar 0
AnchorPoint: "N" 2110 4 basechar 0
LayerCount: 2
Fore
SplineSet
240 546 m 1xb0
 167 272 257 171 366 171 c 0
 488 171 582 296 620 436 c 1
 663 598 579 706 486 706 c 0
 364 706 278 614 240 546 c 1xb0
2014 549 m 0
 1962 356 1943 104 2099 104 c 0x70
 2261 104 2349 283 2429 581 c 0
 2475 753 2458 924 2358 1034 c 1
 2185 915 2065 741 2014 549 c 0
1132 548 m 0
 1080 355 1061 103 1217 103 c 0
 1380 103 1466 272 1549 581 c 0
 1595 752 1577 922 1478 1036 c 1
 1301 914 1186 751 1132 548 c 0
2128 4 m 0
 1846 4 1848 274 1922 551 c 0
 2011 883 2228 1061 2284 1105 c 1
 2203 1162 2092 1190 1952 1190 c 0
 1839 1190 1732 1167 1632 1122 c 1
 1764 1002 1810 811 1748 581 c 0
 1625 122 1453 2 1245 2 c 0
 1011 2 942 184 1040 549 c 0
 1095 756 1217 961 1407 1105 c 1
 1326 1162 1215 1190 1075 1190 c 0
 685 1190 359 902 297 733 c 1
 356 799 473 850 586 850 c 0
 796 850 889 682 825 445 c 0
 770 238 642 4 380 4 c 0xb0
 155 4 69 244 163 596 c 0
 285 1051 713 1291 1081 1291 c 0
 1275 1291 1429 1258 1544 1191 c 1
 1678 1258 1816 1291 1959 1291 c 0
 2151 1291 2306 1257 2422 1188 c 1
 2551 1257 2690 1291 2838 1291 c 2
 3545 1291 l 1
 3518 1191 l 1
 3251 1191 l 1
 2932 1 l 1
 2733 1 l 1
 3051 1191 l 1
 2835 1191 l 2
 2728 1191 2620 1168 2512 1123 c 1
 2651 999 2688 796 2631 583 c 0
 2508 124 2336 4 2128 4 c 0
EndSplineSet
EndChar

StartChar: u0BA3_u0BBE.old
Encoding: 155 -1 155
Width: 3741
GlyphClass: 1
Flags: HW
AnchorPoint: "V" 2110 1306 basechar 0
AnchorPoint: "N" 2110 4 basechar 0
LayerCount: 2
Fore
SplineSet
563 547 m 1xdff8
 490 273 580 172 689 172 c 0
 811 172 907 299 941 436 c 1
 977 569 920 707 807 707 c 0
 683 707 601 617 563 547 c 1xdff8
2336 549 m 0
 2284 356 2266 104 2421 104 c 0xbff8
 2544 104 2648 190 2753 581 c 0
 2776 665 2782 747 2772 828 c 1
 2760 910 2730 980 2681 1038 c 1
 2543 935 2395 769 2336 549 c 0
1457 550 m 0
 1405 357 1386 105 1541 105 c 0
 1664 105 1769 191 1874 582 c 0
 1920 755 1902 925 1802 1035 c 1
 1629 916 1508 742 1457 550 c 0
2950 581 m 0
 2828 124 2655 2 2445 2 c 0xbff8
 2211 2 2142 184 2240 548 c 0
 2301 775 2424 961 2609 1106 c 1
 2528 1163 2416 1191 2275 1191 c 0
 2162 1191 2055 1168 1956 1123 c 1
 2087 1006 2135 812 2073 582 c 0
 1951 125 1778 3 1568 3 c 0
 1358 3 1259 159 1364 550 c 0
 1419 757 1541 962 1731 1106 c 1
 1650 1163 1539 1191 1399 1191 c 0
 1011 1191 684 909 619 734 c 1
 680 803 790 849 905 849 c 0
 1115 849 1211 684 1147 444 c 0
 1092 239 963 2 701 2 c 0xdff8
 476 2 391 242 485 594 c 0
 608 1053 1037 1291 1402 1291 c 0
 1596 1291 1751 1258 1866 1191 c 1
 2000 1258 2138 1291 2281 1291 c 0
 2471 1291 2625 1258 2742 1191 c 1
 2869 1258 2998 1291 3133 1291 c 0
 3572 1291 3734 950 3625 543 c 0
 3423 -212 2687 -713 1581 -713 c 0
 1279 -713 1003 -678 757 -606 c 0
 511 -534 326 -410 200 -234 c 0
 74 -58 49 173 126 461 c 0
 223 822 411 1127 622 1291 c 1
 665 1234 l 1
 460 1063 311 802 217 452 c 0
 163 251 168 81 233 -60 c 0
 298 -201 402 -311 547 -392 c 0
 811 -540 1160 -614 1596 -614 c 0
 2498 -614 3241 -138 3432 575 c 0
 3526 925 3403 1189 3113 1189 c 0
 3021 1189 2926 1167 2830 1124 c 1
 2973 993 3006 791 2950 581 c 0
EndSplineSet
EndChar

StartChar: u0BA3_u0BBF
Encoding: 156 -1 156
Width: 3754
GlyphClass: 2
Flags: HW
AnchorPoint: "V" 2110 1306 basechar 0
AnchorPoint: "N" 2110 4 basechar 0
LayerCount: 2
Fore
SplineSet
240 546 m 1x7fe4
 167 272 257 171 366 171 c 0
 488 171 582 296 620 436 c 1
 663 598 579 706 486 706 c 0
 364 706 278 614 240 546 c 1x7fe4
2014 549 m 0
 1962 356 1943 104 2099 104 c 0
 2261 104 2349 283 2429 581 c 0
 2475 753 2458 924 2358 1034 c 1
 2185 915 2065 741 2014 549 c 0
1132 548 m 0
 1080 355 1061 103 1217 103 c 0xbfe4
 1380 103 1466 272 1549 581 c 0
 1595 752 1577 922 1478 1036 c 1
 1301 914 1186 751 1132 548 c 0
2126 5 m 0
 1844 5 1846 275 1920 552 c 0
 2009 884 2220 1057 2284 1105 c 1
 2203 1162 2092 1190 1952 1190 c 0
 1839 1190 1732 1167 1632 1122 c 1
 1764 1002 1810 811 1748 581 c 0
 1625 122 1453 2 1245 2 c 0xbff4
 1011 2 942 184 1040 549 c 0
 1095 756 1217 961 1407 1105 c 1
 1326 1162 1215 1190 1075 1190 c 0
 685 1190 359 902 297 733 c 1
 356 799 473 850 586 850 c 0
 796 850 889 682 825 445 c 0
 770 238 642 4 380 4 c 0
 155 4 69 244 163 596 c 0
 285 1051 713 1291 1081 1291 c 0
 1275 1291 1429 1258 1544 1191 c 1
 1678 1258 1816 1291 1959 1291 c 0
 2151 1291 2306 1257 2422 1188 c 1
 2551 1257 2690 1291 2838 1291 c 2
 3168 1291 l 1
 3149 1378 3151 1463 3173 1545 c 0
 3234 1772 3378 2034 3674 2034 c 0
 3962 2034 3976 1815 3886 1480 c 2
 3490 1 l 1
 3410 1 l 1
 3798 1448 l 2
 3878 1748 3806 1835 3617 1835 c 0
 3477 1835 3317 1738 3258 1518 c 0x7fec
 3234 1428 3239 1332 3264 1292 c 1
 3543 1292 l 1
 3517 1192 l 1
 3250 1192 l 1
 2931 2 l 1
 2731 2 l 1
 3050 1192 l 1xbff4
 2833 1192 l 2
 2726 1192 2619 1169 2511 1124 c 1
 2650 1000 2686 797 2629 584 c 0
 2506 125 2334 5 2126 5 c 0
EndSplineSet
LCarets2: 1 0
EndChar

StartChar: u0BA3_u0BC0
Encoding: 157 -1 157
Width: 3546
GlyphClass: 2
Flags: HW
AnchorPoint: "V" 2110 1306 basechar 0
AnchorPoint: "N" 2110 4 basechar 0
LayerCount: 2
Fore
SplineSet
240 546 m 1xbfff
 167 272 257 171 366 171 c 0
 488 171 582 296 620 436 c 1
 663 598 579 706 486 706 c 0
 364 706 278 614 240 546 c 1xbfff
3529 1722 m 0
 3502 1622 3549 1536 3644 1536 c 0
 3745 1536 3843 1624 3871 1724 c 1
 3898 1823 3860 1925 3738 1925 c 1
 3645 1906 3557 1827 3529 1722 c 0
2014 550 m 0
 1962 357 1943 105 2099 105 c 0x7fff
 2261 105 2350 284 2430 582 c 0
 2476 754 2459 925 2359 1035 c 1
 2186 916 2065 742 2014 550 c 0
1132 549 m 0
 1080 356 1061 104 1217 104 c 0
 1380 104 1466 273 1549 582 c 0
 1595 753 1577 923 1478 1037 c 1
 1301 915 1186 752 1132 549 c 0
2127 5 m 0
 1845 5 1847 275 1921 552 c 0
 2010 884 2224 1059 2285 1106 c 1
 2204 1163 2092 1191 1952 1191 c 0
 1839 1191 1733 1168 1633 1123 c 1
 1765 1003 1810 812 1748 582 c 0
 1625 123 1453 3 1245 3 c 0
 1011 3 942 185 1040 550 c 0
 1095 757 1218 962 1408 1106 c 1
 1327 1163 1215 1191 1075 1191 c 0
 685 1191 359 903 297 734 c 1
 356 800 473 851 586 851 c 0
 796 851 889 683 825 446 c 0
 770 239 642 5 380 5 c 0xbfff
 155 5 70 245 164 597 c 0
 286 1052 713 1292 1081 1292 c 0
 1275 1292 1429 1259 1544 1192 c 1
 1678 1259 1817 1292 1960 1292 c 0
 2152 1292 2306 1258 2422 1189 c 1
 2551 1258 2691 1292 2839 1292 c 2
 3080 1292 l 1
 3030 1352 2976 1473 3017 1625 c 0
 3119 2005 3411 2148 3643 2148 c 0
 3774 2148 3881 2119 3966 2060 c 0
 4051 2001 4073 1900 4035 1757 c 0
 3986 1575 3829 1447 3647 1447 c 0
 3447 1447 3410 1600 3443 1725 c 0
 3465 1808 3536 1929 3622 1971 c 1
 3590 1976 3559 1979 3527 1979 c 0
 3348 1979 3168 1801 3112 1591 c 0
 3072 1441 3124 1333 3158 1292 c 1
 3544 1292 l 1
 3518 1192 l 1
 3251 1192 l 1
 2932 2 l 1
 2732 2 l 1
 3051 1192 l 1
 2834 1192 l 2
 2727 1192 2620 1169 2512 1124 c 1
 2651 1000 2687 797 2630 584 c 0
 2507 125 2335 5 2127 5 c 0
EndSplineSet
LCarets2: 1 0
EndChar

StartChar: u0BA3_u0BC1
Encoding: 158 -1 158
Width: 3927
GlyphClass: 2
Flags: HW
AnchorPoint: "V" 2110 1306 basechar 0
AnchorPoint: "N" 2110 4 basechar 0
LayerCount: 2
Fore
SplineSet
240 546 m 1xdffc
 167 272 257 171 366 171 c 0
 488 171 582 296 620 436 c 1
 663 598 579 706 486 706 c 0
 364 706 278 614 240 546 c 1xdffc
74 -247 m 0
 54 -321 380 -615 1384 -615 c 0
 1847 -615 2248 -482 2590 -217 c 1
 138 -217 l 2
 101 -217 79 -227 74 -247 c 0
2012 549 m 0
 1960 356 1941 104 2097 104 c 0
 2259 104 2348 283 2428 581 c 0
 2474 751 2455 922 2357 1039 c 1
 2180 908 2065 745 2012 549 c 0
1129 548 m 0
 1077 355 1058 103 1214 103 c 0xeffc
 1377 103 1463 272 1546 581 c 0
 1592 752 1574 922 1475 1036 c 1
 1298 914 1183 751 1129 548 c 0
2808 1290 m 0
 3263 1290 3402 926 3299 542 c 0
 3231 287 3121 69 2969 -114 c 1
 3431 -114 l 1
 3807 1291 l 1
 4006 1291 l 1
 3603 -215 l 1
 2876 -215 l 1
 2532 -548 2032 -715 1378 -715 c 0
 166 -715 -74 -327 -50 -192 c 1
 -36 -141 -1 -116 56 -116 c 2
 2698 -114 l 1
 2901 85 3038 315 3107 574 c 0
 3199 916 3079 1189 2788 1189 c 0
 2696 1189 2600 1167 2504 1124 c 1
 2647 993 2681 791 2625 581 c 0
 2502 122 2330 2 2122 2 c 0
 1840 2 1842 272 1916 549 c 0
 1982 795 2126 982 2283 1105 c 1
 2202 1162 2090 1190 1950 1190 c 0
 1837 1190 1731 1167 1631 1122 c 1
 1763 1002 1808 811 1746 581 c 0
 1623 122 1451 2 1243 2 c 0xeffc
 1009 2 940 184 1038 549 c 0
 1093 756 1216 961 1406 1105 c 1
 1325 1162 1213 1190 1073 1190 c 0
 694 1190 355 906 293 732 c 1
 352 798 469 849 582 849 c 0
 792 849 885 681 821 444 c 0
 766 237 638 3 376 3 c 0xdffc
 151 3 65 243 159 595 c 0
 281 1050 709 1290 1077 1290 c 0
 1271 1290 1425 1257 1540 1190 c 1
 1674 1257 1812 1290 1955 1290 c 0
 2145 1290 2299 1257 2416 1190 c 1
 2543 1257 2673 1290 2808 1290 c 0
EndSplineSet
LCarets2: 1 0
EndChar

StartChar: u0BA3_u0BC2
Encoding: 159 -1 159
Width: 4593
GlyphClass: 2
Flags: HW
AnchorPoint: "V" 2110 1306 basechar 0
AnchorPoint: "N" 2110 4 basechar 0
LayerCount: 2
Fore
SplineSet
240 546 m 1xdffe
 167 272 257 171 366 171 c 0
 488 171 582 296 620 436 c 1
 663 598 579 706 486 706 c 0
 364 706 278 614 240 546 c 1xdffe
74 -247 m 0
 54 -321 380 -615 1384 -615 c 0
 1847 -615 2248 -482 2590 -217 c 1
 138 -217 l 2
 101 -217 79 -227 74 -247 c 0
2012 549 m 0
 1960 356 1941 104 2097 104 c 0
 2259 104 2348 283 2428 581 c 0
 2474 751 2455 922 2357 1039 c 1
 2180 908 2065 745 2012 549 c 0
1129 548 m 0
 1077 355 1058 103 1214 103 c 0xeffe
 1377 103 1463 272 1546 581 c 0
 1592 752 1574 922 1475 1036 c 1
 1298 914 1183 751 1129 548 c 0
2808 1290 m 0
 3263 1290 3402 926 3299 542 c 0
 3231 287 3121 69 2969 -114 c 1
 3431 -114 l 1
 3807 1291 l 1
 4673 1291 l 1
 4646 1191 l 1
 4380 1191 l 1
 4003 -214 l 1
 3804 -214 l 1
 4180 1191 l 1
 3874 1191 l 1
 3497 -214 l 1
 2877 -214 l 1
 2533 -547 2033 -714 1379 -714 c 0
 167 -714 -72 -326 -48 -191 c 1
 -34 -140 1 -115 58 -115 c 2
 2698 -114 l 1
 2901 85 3038 315 3107 574 c 0
 3199 916 3079 1189 2788 1189 c 0
 2696 1189 2600 1167 2504 1124 c 1
 2647 993 2681 791 2625 581 c 0
 2502 122 2330 2 2122 2 c 0
 1840 2 1842 272 1916 549 c 0
 1982 795 2126 982 2283 1105 c 1
 2202 1162 2090 1190 1950 1190 c 0
 1837 1190 1731 1167 1631 1122 c 1
 1763 1002 1808 811 1746 581 c 0
 1623 122 1451 2 1243 2 c 0xeffe
 1009 2 940 184 1038 549 c 0
 1093 756 1216 961 1406 1105 c 1
 1325 1162 1213 1190 1073 1190 c 0
 694 1190 355 906 293 732 c 1
 352 798 469 849 582 849 c 0
 792 849 885 681 821 444 c 0
 766 237 638 3 376 3 c 0xdffe
 151 3 65 243 159 595 c 0
 281 1050 709 1290 1077 1290 c 0
 1271 1290 1425 1257 1540 1190 c 1
 1674 1257 1812 1290 1955 1290 c 0
 2145 1290 2299 1257 2416 1190 c 1
 2543 1257 2673 1290 2808 1290 c 0
EndSplineSet
LCarets2: 1 0
EndChar

StartChar: u0BA3_u0BCD
Encoding: 162 -1 162
Width: 3461
GlyphClass: 2
Flags: HW
AnchorPoint: "N" 2110 4 basechar 0
LayerCount: 2
Fore
SplineSet
240 546 m 1xbf18
 167 272 257 171 366 171 c 0
 488 171 582 296 620 436 c 1
 663 598 579 706 486 706 c 0
 364 706 278 614 240 546 c 1xbf18
2014 549 m 0x7f38
 1962 356 1943 104 2099 104 c 0
 2261 104 2349 283 2429 581 c 0
 2475 753 2458 924 2358 1034 c 1
 2185 915 2065 741 2014 549 c 0x7f38
1132 548 m 0
 1080 355 1061 103 1217 103 c 0
 1380 103 1466 272 1549 581 c 0x3f98
 1595 752 1577 922 1478 1036 c 1
 1301 914 1186 751 1132 548 c 0
2128 4 m 0x7fb8
 1846 4 1848 274 1922 551 c 0
 2011 883 2228 1061 2284 1105 c 1
 2203 1162 2092 1190 1952 1190 c 0
 1839 1190 1732 1167 1632 1122 c 1
 1764 1002 1810 811 1748 581 c 0
 1625 122 1453 2 1245 2 c 0
 1011 2 942 184 1040 549 c 0
 1095 756 1217 961 1407 1105 c 1
 1326 1162 1215 1190 1075 1190 c 0
 685 1190 359 902 297 733 c 1
 356 799 473 850 586 850 c 0
 796 850 889 682 825 445 c 0
 770 238 642 4 380 4 c 0xbfb8
 155 4 69 244 163 596 c 0
 285 1051 713 1291 1081 1291 c 0
 1275 1291 1429 1258 1544 1191 c 1
 1678 1258 1816 1291 1959 1291 c 0
 2151 1291 2306 1257 2422 1188 c 1
 2551 1257 2690 1291 2838 1291 c 2
 3545 1291 l 1
 3518 1191 l 1
 3251 1191 l 1
 2932 1 l 1
 2733 1 l 1
 3051 1191 l 1
 2835 1191 l 2
 2728 1191 2620 1168 2512 1123 c 1
 2651 999 2688 796 2631 583 c 0
 2508 124 2336 4 2128 4 c 0x7fb8
1959 1671 m 0x3f58
 1984 1765 2073 1834 2152 1834 c 0
 2237 1834 2285 1763 2261 1671 c 1
 2237 1581 2148 1508 2066 1508 c 0
 1984 1508 1935 1582 1959 1671 c 0x3f58
EndSplineSet
LCarets2: 1 0
EndChar

StartChar: u0BA4
Encoding: 163 2980 163
Width: 1726
GlyphClass: 1
Flags: HW
AnchorPoint: "V" 1131 1306 basechar 0
AnchorPoint: "N" 1131 -274.824 basechar 0
LayerCount: 2
Fore
SplineSet
737 -306 m 0xf780
 456 -316 163 -304 79 -536 c 0
 43 -634 54 -708 -74 -708 c 0
 -127 -708 -158 -622 -128 -509 c 0xfb80
 -51 -223 222 -190 599 -190 c 0
 992 -190 1116 -87 1198 -11 c 0
 1255 42 1317 128 1342 221 c 0
 1419 508 1404 644 1100 644 c 1
 1008 303 l 2
 974 177 747 2 500 2 c 0
 256 2 122 129 196 406 c 0
 261 648 468 744 527 744 c 1
 673 1291 l 1
 1540 1291 l 1
 1513 1191 l 1
 1246 1191 l 1
 1127 748 l 1
 1449 740 1640 647 1532 245 c 0
 1456 -37 1168 -290 737 -306 c 0xf780
928 749 m 1
 1046 1192 l 1
 741 1192 l 1
 622 749 l 1
 928 749 l 1
552 649 m 2
 512 649 344 614 282 384 c 0xf780
 232 199 305 106 499 106 c 0
 604 106 778 192 807 299 c 2
 901 649 l 1
 552 649 l 2
EndSplineSet
EndChar

StartChar: u0BA4_u0BBF
Encoding: 164 -1 164
Width: 2020
GlyphClass: 1
Flags: HW
AnchorPoint: "V" 1131 2028.83 basechar 0
AnchorPoint: "N" 1131 -274.824 basechar 0
LayerCount: 2
Fore
SplineSet
424 1251 m 0xfbe0
 523 1621 824 2087 1529 2087 c 0
 2164 2087 2221 1707 2108 1284 c 1
 1759 0 l 1
 1679 0 l 1
 2027 1296 l 2
 2118 1637 1865 1865 1467 1865 c 0
 815 1865 577 1501 512 1259 c 0
 466 1087 471 898 540 803 c 1
 671 1293 l 1
 1538 1293 l 1
 1511 1193 l 1
 1244 1193 l 1
 1125 750 l 1
 1427 750 1643 652 1537 258 c 0
 1466 -6 1220 -249 837 -291 c 0
 756 -300 676 -305 595 -305 c 0
 189 -305 105 -435 63 -593 c 0
 42 -672 10 -705 -76 -705 c 0
 -129 -705 -156 -619 -126 -506 c 0xfde0
 -103 -419 -60 -355 2 -312 c 1
 136 -216 224 -183 603 -183 c 0
 996 -183 1119 -80 1201 -4 c 0
 1258 49 1321 135 1346 228 c 0
 1384 369 1395 466 1379 520 c 1
 1356 607 1264 651 1103 651 c 1
 1012 310 l 2
 978 184 750 9 503 9 c 0
 259 9 126 136 200 413 c 0
 245 582 362 690 474 735 c 1
 379 848 362 1020 424 1251 c 0xfbe0
929 754 m 1
 1048 1197 l 1
 742 1197 l 1
 623 754 l 1
 929 754 l 1
554 654 m 2
 514 654 346 619 284 389 c 0xfbe0
 234 204 306 111 500 111 c 0
 602 111 775 195 808 304 c 1
 902 654 l 1
 554 654 l 2
EndSplineSet
EndChar

StartChar: u0BA4_u0BC0
Encoding: 165 -1 165
Width: 1726
GlyphClass: 1
Flags: HW
AnchorPoint: "V" 1131 2075.7 basechar 0
AnchorPoint: "N" 1131 -274.824 basechar 0
LayerCount: 2
Fore
SplineSet
1399 1724 m 0xfcb0
 1374 1631 1414 1540 1514 1540 c 0
 1608 1540 1711 1619 1739 1726 c 1
 1768 1834 1723 1927 1608 1927 c 1
 1515 1908 1427 1829 1399 1724 c 0xfcb0
924 749 m 1xfcc0
 1043 1192 l 1
 737 1192 l 1
 618 749 l 1
 924 749 l 1xfcc0
548 649 m 2
 508 649 340 614 278 384 c 0xfdc0
 228 199 301 106 495 106 c 0
 597 106 770 190 803 299 c 1
 897 649 l 1
 548 649 l 2
1010 308 m 2
 976 182 749 7 502 7 c 0
 258 7 124 134 198 411 c 0
 221 496 259 566 312 620 c 0
 365 674 416 710 465 729 c 1
 370 842 353 1014 415 1245 c 0
 560 1787 1020 2149 1510 2149 c 0
 1641 2149 1749 2120 1834 2061 c 0
 1919 2002 1941 1901 1903 1758 c 0
 1854 1576 1697 1448 1515 1448 c 0
 1315 1448 1277 1601 1310 1726 c 0xfdb0
 1334 1817 1405 1928 1490 1970 c 1
 1456 1975 1425 1978 1394 1978 c 0
 962 1978 599 1584 511 1257 c 0
 465 1085 469 896 538 801 c 1
 669 1291 l 1
 1536 1291 l 1
 1509 1191 l 1
 1242 1191 l 1
 1124 748 l 1
 1426 748 1642 650 1536 256 c 0
 1465 -8 1218 -251 835 -293 c 0
 754 -302 675 -307 594 -307 c 0
 188 -307 104 -437 62 -595 c 0
 41 -674 9 -707 -77 -707 c 0
 -130 -707 -157 -621 -127 -508 c 0
 -104 -421 -62 -357 0 -314 c 1
 134 -218 222 -185 601 -185 c 0
 994 -185 1118 -82 1200 -6 c 0
 1257 47 1320 133 1345 226 c 0xfec8
 1383 367 1393 464 1377 518 c 1
 1354 605 1263 649 1102 649 c 1
 1010 308 l 2
EndSplineSet
EndChar

StartChar: u0BA4_u0BC1
Encoding: 166 -1 166
Width: 2273
GlyphClass: 2
Flags: HW
AnchorPoint: "V" 1131 1306 basechar 0
AnchorPoint: "N" 1131 -274.824 basechar 0
LayerCount: 2
Fore
SplineSet
949 746 m 1xf9e0
 1068 1189 l 1
 761 1189 l 1
 643 746 l 1
 949 746 l 1xf9e0
573 646 m 2
 534 646 366 611 305 382 c 0xfbe0
 255 197 328 104 521 104 c 0
 648 104 806 212 829 296 c 2
 923 646 l 1
 573 646 l 2
63 -243 m 0xfde0
 49 -294 173 -497 563 -497 c 0
 754 -497 934 -402 1104 -213 c 1
 127 -213 l 2
 90 -213 68 -223 63 -243 c 0xfde0
220 411 m 0xfbe0
 288 664 505 749 553 749 c 1
 700 1296 l 1
 1566 1296 l 1
 1539 1196 l 1
 1272 1196 l 1
 1153 753 l 1
 1518 753 1682 649 1590 307 c 0
 1552 164 1488 26 1400 -105 c 1
 1786 -105 l 1
 2163 1300 l 1
 2362 1300 l 1
 1958 -206 l 1
 1319 -210 l 1
 1205 -347 952 -595 558 -595 c 0
 53 -595 -68 -262 -46 -181 c 0xfde0
 -33 -134 2 -110 59 -110 c 2
 1186 -110 l 1
 1283 28 1350 164 1386 297 c 0
 1443 509 1400 649 1123 649 c 1
 1032 308 l 2
 997 176 765 7 525 7 c 0
 281 7 146 135 220 411 c 0xfbe0
EndSplineSet
EndChar

StartChar: u0BA4_u0BC2
Encoding: 167 -1 167
Width: 2940
GlyphClass: 2
Flags: HW
AnchorPoint: "V" 1131 1306 basechar 0
AnchorPoint: "N" 1131 -274.824 basechar 0
LayerCount: 2
Fore
SplineSet
949 746 m 1xf9f0
 1068 1189 l 1
 761 1189 l 1
 642 746 l 1
 949 746 l 1xf9f0
573 646 m 2
 534 646 366 611 305 382 c 0xfbf0
 255 197 328 104 521 104 c 0
 648 104 806 212 829 296 c 2
 923 646 l 1
 573 646 l 2
63 -243 m 0xfdf0
 49 -294 173 -497 563 -497 c 0
 750 -497 931 -402 1104 -213 c 1
 127 -213 l 2
 90 -213 68 -223 63 -243 c 0xfdf0
1323 -204 m 1
 1028 -561 710 -589 562 -589 c 0
 57 -589 -64 -256 -42 -175 c 0xfdf0
 -29 -128 5 -104 62 -104 c 2
 1182 -110 l 1
 1279 28 1346 164 1382 297 c 0
 1439 509 1397 649 1120 649 c 1
 1028 308 l 2
 993 176 762 7 522 7 c 0
 278 7 142 135 216 411 c 0xfbf0
 284 664 501 749 549 749 c 1
 696 1296 l 1
 1562 1296 l 1
 1535 1196 l 1
 1268 1196 l 1
 1149 753 l 1
 1514 753 1678 649 1586 307 c 0
 1547 160 1484 23 1397 -104 c 1
 1783 -104 l 1
 2159 1301 l 1
 3025 1301 l 1
 2998 1201 l 1
 2733 1201 l 1
 2357 -204 l 1
 2157 -204 l 1
 2533 1201 l 1
 2227 1201 l 1
 1851 -204 l 1
 1323 -204 l 1
EndSplineSet
EndChar

StartChar: u0BA4_u0BCD
Encoding: 168 -1 168
Width: 1778
GlyphClass: 2
Flags: HW
AnchorPoint: "N" 1131 -274.824 basechar 0
LayerCount: 2
Fore
SplineSet
196 406 m 0xfb60
 261 648 468 744 527 744 c 1
 673 1291 l 1
 1540 1291 l 1
 1513 1191 l 1
 1246 1191 l 1
 1127 748 l 1
 1446 748 1646 636 1534 251 c 1
 1463 -13 1216 -256 833 -298 c 0
 752 -307 672 -312 591 -312 c 0
 185 -312 101 -442 59 -600 c 0
 38 -679 7 -712 -79 -712 c 0
 -132 -712 -159 -626 -129 -513 c 0xfd60
 -106 -426 -64 -362 -2 -319 c 1
 132 -223 220 -190 599 -190 c 0
 992 -190 1116 -87 1198 -11 c 0
 1255 42 1317 128 1342 221 c 0
 1380 362 1391 459 1375 513 c 1
 1352 600 1261 644 1100 644 c 1
 1008 303 l 2
 974 177 747 2 500 2 c 0
 256 2 122 129 196 406 c 0xfb60
928 749 m 1
 1046 1192 l 1
 741 1192 l 1
 622 749 l 1
 928 749 l 1
552 649 m 2
 512 649 344 614 282 384 c 0xfb60
 232 199 305 106 499 106 c 0
 601 106 774 190 807 299 c 1
 901 649 l 1
 552 649 l 2
1087 1508 m 0
 1005 1508 956 1582 980 1671 c 0
 1005 1765 1093 1834 1175 1834 c 0
 1262 1834 1306 1758 1283 1671 c 0xf9a0
 1259 1581 1169 1508 1087 1508 c 0
EndSplineSet
EndChar

StartChar: u0BA8
Encoding: 169 2984 169
Width: 1593
GlyphClass: 1
Flags: HW
AnchorPoint: "V" 1139 1306 basechar 0
AnchorPoint: "N" 1139 -229.058 basechar 0
LayerCount: 2
Fore
SplineSet
920 677 m 1xee
 973 744 1069 776 1149 776 c 0
 1404 776 1480 552 1418 320 c 0
 1345 49 1226 -143 907 -251 c 0
 777 -294 648 -316 518 -316 c 0
 308 -316 135 -381 79 -536 c 0
 43 -634 54 -708 -74 -708 c 0
 -127 -708 -154 -622 -124 -509 c 0xf6
 -86 -369 -7 -305 111 -251 c 0
 201 -210 315 -191 440 -191 c 0
 876 -191 1113 -94 1217 295 c 0
 1252 424 1261 638 1069 638 c 0
 991 638 930 608 885 549 c 1
 739 2 l 1
 540 2 l 1
 859 1192 l 1
 552 1192 l 1
 233 2 l 1
 141 2 l 1
 486 1292 l 1
 1351 1292 l 1
 1324 1192 l 1
 1058 1192 l 1
 920 677 l 1xee
EndSplineSet
EndChar

StartChar: u0BA8_u0BBF
Encoding: 170 -1 170
Width: 1886
GlyphClass: 2
Flags: HW
AnchorPoint: "V" 1139 1856.25 basechar 0
AnchorPoint: "N" 1139 -229.058 basechar 0
LayerCount: 2
Fore
SplineSet
-76 -708 m 0xfce0
 -129 -708 -155 -622 -125 -509 c 0xfce0
 -94 -394 -37 -326 101 -254 c 0
 231 -186 412 -186 451 -186 c 1
 684 -174 l 1
 722 -174 788 -159 883 -128 c 0
 947 -108 1011 -64 1073 4 c 0
 1135 72 1184 169 1217 294 c 0
 1240 378 1241 456 1223 527 c 1
 1206 600 1155 637 1069 637 c 0
 991 637 930 607 885 548 c 1
 738 1 l 1
 539 1 l 1
 858 1191 l 1
 551 1191 l 1
 233 1 l 1
 140 1 l 1
 486 1291 l 1xfb60
 989 1291 l 1
 970 1378 976 1477 1006 1588 c 0
 1054 1769 1199 2079 1678 2079 c 0
 2085 2079 2127 1849 2031 1492 c 2
 1627 0 l 1
 1547 0 l 1
 1947 1491 l 2
 2031 1806 1865 1885 1623 1885 c 0
 1359 1885 1153 1759 1076 1473 c 0
 1058 1406 1061 1346 1083 1291 c 1
 1349 1291 l 1
 1322 1191 l 1
 1056 1191 l 1
 918 676 l 1
 971 743 1067 775 1147 775 c 0
 1417 775 1477 527 1416 301 c 0
 1321 -52 1111 -213 764 -288 c 0
 718 -298 672 -303 628 -303 c 0
 550 -303 473 -314 393 -321 c 0
 331 -326 267 -349 201 -389 c 1
 125 -437 92 -486 63 -596 c 0
 42 -675 10 -708 -76 -708 c 0xfce0
EndSplineSet
EndChar

StartChar: u0BA8_u0BC0
Encoding: 171 -1 171
Width: 1594
GlyphClass: 2
Flags: HW
AnchorPoint: "V" 1139 2062.32 basechar 0
AnchorPoint: "N" 1139 -229.058 basechar 0
LayerCount: 2
Fore
SplineSet
1333 1723 m 0xfce8
 1306 1623 1353 1537 1448 1537 c 0
 1540 1537 1644 1613 1673 1726 c 1
 1702 1834 1657 1927 1542 1927 c 1
 1448 1909 1361 1827 1333 1723 c 0xfce8
1333 1979 m 0
 1121 1979 961 1755 917 1591 c 0
 882 1461 914 1356 964 1292 c 1
 1349 1292 l 1
 1320 1190 l 1
 1054 1190 l 1
 916 675 l 1
 969 742 1065 774 1145 774 c 0
 1415 774 1475 526 1414 300 c 0
 1319 -53 1109 -214 762 -289 c 0
 716 -299 670 -304 626 -304 c 0
 548 -304 471 -315 391 -322 c 0
 329 -327 265 -350 199 -390 c 1
 123 -438 90 -487 61 -597 c 0
 40 -676 8 -709 -78 -709 c 0
 -131 -709 -158 -623 -128 -510 c 0xfef0
 -97 -395 -39 -327 99 -255 c 0
 229 -187 410 -187 449 -187 c 1
 682 -175 l 1
 720 -175 786 -160 881 -129 c 0
 945 -109 1009 -65 1071 3 c 0
 1133 71 1182 168 1215 293 c 0
 1238 377 1239 455 1221 526 c 1
 1204 599 1153 636 1067 636 c 0
 989 636 928 606 883 547 c 1
 736 0 l 1
 537 0 l 1
 856 1190 l 1
 549 1190 l 1
 230 0 l 1
 138 0 l 1
 484 1290 l 1xfdf0
 886 1290 l 1
 841 1346 781 1471 822 1624 c 0
 923 2002 1216 2148 1450 2148 c 0
 1581 2148 1688 2119 1773 2060 c 0
 1858 2001 1880 1900 1842 1757 c 0
 1793 1574 1635 1447 1452 1447 c 0
 1252 1447 1215 1601 1248 1725 c 0
 1271 1809 1342 1929 1427 1971 c 1
 1395 1976 1364 1979 1333 1979 c 0
EndSplineSet
EndChar

StartChar: u0BA8_u0BC1
Encoding: 172 -1 172
Width: 2313
GlyphClass: 2
Flags: HW
AnchorPoint: "V" 1139 1306 basechar 0
AnchorPoint: "N" 1139 -229.058 basechar 0
LayerCount: 2
Fore
SplineSet
64 -245 m 0
 48 -304 197 -499 577 -499 c 0
 770 -499 956 -404 1132 -215 c 1
 127 -215 l 2
 90 -215 69 -225 64 -245 c 0
1132 678 m 1
 1185 745 1280 777 1360 777 c 0
 1624 777 1692 535 1630 303 c 0
 1592 162 1526 24 1434 -109 c 1
 1826 -109 l 1
 2202 1296 l 1
 2402 1296 l 1
 1998 -210 l 1
 1352 -212 l 1
 1287 -287 1214 -354 1133 -411 c 1
 1090 -443 880 -595 574 -595 c 0
 88 -595 -70 -283 -43 -181 c 0
 -30 -134 5 -110 62 -110 c 2
 1218 -110 l 1
 1322 31 1392 166 1427 296 c 0
 1470 455 1454 639 1281 639 c 0
 1203 639 1142 609 1097 550 c 1
 950 3 l 1
 751 3 l 1
 1070 1193 l 1
 763 1193 l 1
 444 3 l 1
 351 3 l 1
 697 1293 l 1
 1564 1293 l 1
 1537 1193 l 1
 1270 1193 l 1
 1132 678 l 1
EndSplineSet
EndChar

StartChar: u0BA8_u0BC2
Encoding: 173 -1 173
Width: 2980
GlyphClass: 2
Flags: HW
AnchorPoint: "V" 1139 1306 basechar 0
AnchorPoint: "N" 1139 -229.058 basechar 0
LayerCount: 2
Fore
SplineSet
64 -245 m 0
 48 -304 197 -499 577 -499 c 0
 770 -499 956 -404 1132 -215 c 1
 127 -215 l 2
 90 -215 69 -225 64 -245 c 0
1352 -211 m 1
 1241 -341 978 -595 572 -595 c 0
 86 -595 -72 -283 -45 -181 c 0
 -32 -134 3 -110 60 -110 c 2
 1213 -112 l 1
 1317 29 1387 164 1422 294 c 0
 1465 453 1448 637 1275 637 c 0
 1197 637 1137 607 1092 548 c 1
 945 1 l 1
 746 1 l 1
 1065 1191 l 1
 758 1191 l 1
 439 1 l 1
 346 1 l 1
 692 1291 l 1
 1559 1291 l 1
 1532 1191 l 1
 1265 1191 l 1
 1127 676 l 1
 1180 743 1275 775 1355 775 c 0
 1619 775 1686 533 1624 301 c 0
 1586 160 1521 22 1429 -111 c 1
 1821 -111 l 1
 2197 1294 l 1
 3063 1294 l 1
 3036 1194 l 1
 2769 1194 l 1
 2393 -211 l 1
 2194 -211 l 1
 2570 1194 l 1
 2264 1194 l 1
 1887 -211 l 1
 1352 -211 l 1
EndSplineSet
EndChar

StartChar: u0BA8_u0BCD
Encoding: 174 -1 174
Width: 1541
GlyphClass: 2
Flags: HW
AnchorPoint: "N" 1139 -229.058 basechar 0
LayerCount: 2
Fore
SplineSet
1147 775 m 0xfb40
 1416 775 1480 528 1412 298 c 1
 1320 -44 1128 -176 907 -251 c 0
 777 -294 648 -316 518 -316 c 0
 334 -316 122 -366 65 -579 c 0
 36 -688 10 -709 -76 -709 c 0
 -129 -709 -156 -623 -126 -510 c 0xfc40
 -88 -370 -9 -306 109 -252 c 0
 199 -211 312 -192 437 -192 c 0
 519 -192 599 -187 676 -176 c 1
 710 -176 779 -160 882 -128 c 0
 946 -108 1009 -64 1071 4 c 0
 1133 72 1182 169 1215 294 c 0
 1238 378 1240 456 1222 527 c 1
 1205 600 1153 637 1067 637 c 0
 989 637 928 607 883 548 c 1
 737 1 l 1
 538 1 l 1
 856 1191 l 1
 550 1191 l 1
 231 1 l 1
 139 1 l 1
 484 1291 l 1
 1349 1291 l 1
 1322 1191 l 1
 1056 1191 l 1
 918 676 l 1
 971 743 1067 775 1147 775 c 0xfb40
989 1671 m 0xf8c0
 1014 1765 1103 1834 1182 1834 c 0
 1269 1834 1313 1758 1290 1671 c 0
 1266 1582 1179 1508 1096 1508 c 0
 1014 1508 965 1582 989 1671 c 0xf8c0
EndSplineSet
EndChar

StartChar: u0BA9
Encoding: 175 2985 175
Width: 2580
GlyphClass: 1
Flags: HW
HStem: 1 100<1130.61 1341.68> 2 169<263.495 482.094> 706 142<395.614 687> 1189 100<812.058 1326.28 1693.49 2170 2369 2636>
DStem2: 1851 -1 2050 -1 0.258925 0.965897<51.5262 1232.02>
AnchorPoint: "V" 1654.5 1306 basechar 0
AnchorPoint: "N" 1654.5 76.5902 basechar 0
LayerCount: 2
Fore
SplineSet
240 546 m 1x70
 167 272 257 171 366 171 c 0
 488 171 582 296 620 436 c 1
 663 598 579 706 486 706 c 0
 364 706 278 614 240 546 c 1x70
1131 546 m 0
 1079 353 1061 101 1217 101 c 0xb0
 1380 101 1465 270 1548 579 c 0
 1594 750 1577 920 1478 1034 c 1
 1301 912 1185 749 1131 546 c 0
1748 580 m 0
 1625 121 1453 1 1245 1 c 0xb0
 1011 1 942 183 1040 548 c 0
 1129 881 1343 1056 1404 1103 c 1
 1323 1160 1212 1188 1072 1188 c 0
 682 1188 356 900 294 731 c 1
 353 797 469 848 582 848 c 0
 792 848 886 680 822 443 c 0
 767 236 638 2 376 2 c 0x70
 151 2 66 242 160 594 c 0
 282 1049 709 1289 1077 1289 c 0
 1271 1289 1426 1256 1541 1189 c 1
 1675 1256 1813 1289 1956 1289 c 2
 2663 1289 l 1
 2636 1189 l 1
 2369 1189 l 1
 2050 -1 l 1
 1851 -1 l 1
 2170 1189 l 1
 1952 1189 l 2
 1839 1189 1732 1166 1632 1121 c 1
 1764 1001 1810 810 1748 580 c 0
EndSplineSet
EndChar

StartChar: u0BA9_u0BBE.old
Encoding: 177 -1 177
Width: 2860
GlyphClass: 1
Flags: HW
AnchorPoint: "V" 1654.5 1306 basechar 0
AnchorPoint: "N" 1654.5 76.5902 basechar 0
LayerCount: 2
Fore
SplineSet
563 547 m 1xdfe0
 490 273 580 172 689 172 c 0
 811 172 907 299 941 436 c 1
 977 569 920 707 807 707 c 0
 683 707 601 617 563 547 c 1xdfe0
1455 548 m 0
 1403 355 1385 103 1540 103 c 0xbfe0
 1663 103 1767 189 1872 580 c 0
 1917 748 1899 920 1802 1038 c 1
 1664 939 1516 776 1455 548 c 0
1562 1 m 0
 1352 1 1253 157 1358 548 c 0
 1414 758 1537 962 1728 1103 c 1
 1647 1160 1535 1188 1395 1188 c 0
 1001 1188 676 893 615 731 c 1
 676 800 787 846 902 846 c 0
 1112 846 1207 681 1143 441 c 0
 1088 236 959 -1 697 -1 c 0xdfe0
 472 -1 387 239 481 591 c 0
 604 1050 1034 1288 1399 1288 c 0
 1591 1288 1745 1255 1862 1188 c 1
 1992 1255 2127 1288 2267 1288 c 0
 2696 1288 2846 934 2741 542 c 0
 2669 275 2569 48 2443 -136 c 0
 2050 -707 1359 -715 1123 -715 c 0
 710 -715 423 -572 253 -367 c 1
 73 -159 30 116 122 458 c 0
 219 819 407 1124 618 1288 c 1
 661 1231 l 1
 456 1060 306 799 212 449 c 0
 139 178 133 -242 559 -476 c 0
 731 -570 924 -617 1138 -617 c 0
 1866 -617 2336 -220 2549 574 c 0
 2641 916 2526 1188 2246 1188 c 0
 2146 1188 2047 1166 1949 1123 c 1
 2082 1001 2127 805 2067 580 c 0
 1945 123 1772 1 1562 1 c 0
EndSplineSet
EndChar

StartChar: u0BA9_u0BBF
Encoding: 178 -1 178
Width: 2873
GlyphClass: 2
Flags: HW
AnchorPoint: "V" 1654.5 1306 basechar 0
AnchorPoint: "N" 1654.5 76.5902 basechar 0
LayerCount: 2
Fore
SplineSet
240 546 m 1xbf90
 167 272 257 171 366 171 c 0
 488 171 582 296 620 436 c 1
 663 598 579 706 486 706 c 0
 364 706 278 614 240 546 c 1xbf90
1131 546 m 0
 1079 353 1061 101 1217 101 c 0x7f90
 1380 101 1465 270 1548 579 c 0
 1594 750 1577 920 1478 1034 c 1
 1301 912 1185 749 1131 546 c 0
1746 581 m 0
 1623 122 1451 2 1243 2 c 0x7fd0
 1009 2 940 184 1038 549 c 0
 1127 881 1339 1054 1404 1103 c 1
 1323 1160 1212 1188 1072 1188 c 0
 682 1188 356 900 294 731 c 1
 353 797 469 848 582 848 c 0
 792 848 886 680 822 443 c 0
 767 236 638 2 376 2 c 0
 151 2 66 242 160 594 c 0
 282 1049 709 1289 1077 1289 c 0
 1271 1289 1426 1256 1541 1189 c 1
 1675 1256 1813 1289 1956 1289 c 2
 2286 1289 l 1
 2268 1378 2270 1463 2291 1543 c 0
 2352 1770 2496 2032 2792 2032 c 0
 3008 2032 3122 1920 3004 1478 c 2
 2607 -1 l 1
 2528 -1 l 1
 2916 1446 l 2
 2996 1746 2924 1833 2735 1833 c 0
 2595 1833 2435 1736 2376 1516 c 0xbfb0
 2352 1426 2356 1330 2381 1290 c 1
 2661 1290 l 1
 2635 1190 l 1
 2368 1190 l 1
 2049 0 l 1
 1850 0 l 1
 2169 1190 l 1xbfd0
 1950 1190 l 2
 1837 1190 1731 1167 1631 1122 c 1
 1763 1002 1808 811 1746 581 c 0
EndSplineSet
EndChar

StartChar: u0BA9_u0BC0
Encoding: 179 -1 179
Width: 2666
GlyphClass: 2
Flags: HW
AnchorPoint: "V" 1654.5 1306 basechar 0
AnchorPoint: "N" 1654.5 76.5902 basechar 0
LayerCount: 2
Fore
SplineSet
240 546 m 1x7ffc
 167 272 257 171 366 171 c 0
 488 171 582 296 620 436 c 1
 663 598 579 706 486 706 c 0
 364 706 278 614 240 546 c 1x7ffc
2649 1721 m 0
 2620 1611 2678 1536 2764 1536 c 0
 2864 1536 2964 1624 2991 1724 c 0
 3018 1823 2980 1925 2858 1925 c 1
 2762 1906 2676 1823 2649 1721 c 0
1131 547 m 0
 1079 354 1061 102 1217 102 c 0xbffc
 1380 102 1466 271 1549 580 c 0
 1595 751 1577 921 1478 1035 c 1
 1301 913 1185 750 1131 547 c 0
1747 581 m 0
 1624 122 1452 2 1244 2 c 0xbffc
 1010 2 941 184 1039 549 c 0
 1128 882 1342 1057 1404 1104 c 1
 1323 1161 1212 1189 1072 1189 c 0
 682 1189 356 901 294 732 c 1
 353 798 470 849 583 849 c 0
 793 849 886 681 822 444 c 0
 767 237 639 3 377 3 c 0x7ffc
 152 3 66 243 160 595 c 0
 282 1050 710 1290 1078 1290 c 0
 1272 1290 1426 1257 1541 1190 c 1
 1675 1257 1813 1290 1956 1290 c 2
 2199 1290 l 1
 2151 1347 2093 1471 2134 1624 c 0
 2246 2042 2572 2147 2762 2147 c 0
 2893 2147 3000 2118 3085 2059 c 0
 3170 2000 3192 1899 3154 1756 c 0
 3105 1573 2948 1446 2765 1446 c 0
 2565 1446 2527 1600 2560 1724 c 0
 2585 1817 2653 1923 2739 1970 c 1
 2707 1975 2676 1978 2644 1978 c 0
 2465 1978 2285 1800 2229 1590 c 0
 2197 1470 2220 1364 2276 1290 c 1
 2662 1290 l 1
 2635 1190 l 1
 2369 1190 l 1
 2050 0 l 1
 1851 0 l 1
 2170 1190 l 1
 1951 1190 l 2
 1838 1190 1731 1167 1631 1122 c 1
 1763 1002 1809 811 1747 581 c 0
EndSplineSet
EndChar

StartChar: u0BA9_u0BC1
Encoding: 180 -1 180
Width: 3207
GlyphClass: 2
Flags: HW
AnchorPoint: "V" 1654.5 1306 basechar 0
AnchorPoint: "N" 1654.5 76.5902 basechar 0
LayerCount: 2
Fore
SplineSet
428 545 m 1xdff0
 355 271 444 170 553 170 c 0
 674 170 772 298 808 436 c 1
 841 561 795 706 673 706 c 0
 552 706 470 617 428 545 c 1xdff0
1320 546 m 0
 1268 353 1249 101 1405 101 c 0xeff0
 1528 101 1636 199 1738 578 c 0
 1782 742 1765 919 1667 1036 c 1
 1526 935 1379 766 1320 546 c 0
70 -247 m 0
 45 -339 393 -614 972 -614 c 0
 1337 -614 1655 -433 1889 -217 c 1
 133 -217 l 2
 96 -217 75 -227 70 -247 c 0
1433 0 m 0
 1222 0 1123 155 1228 547 c 0
 1295 796 1438 982 1593 1107 c 1
 1511 1164 1399 1192 1259 1192 c 0
 878 1192 553 909 480 735 c 1
 540 800 659 852 770 852 c 0
 980 852 1073 684 1009 447 c 0
 943 202 803 5 563 5 c 0xdff0
 339 5 254 246 348 597 c 0
 470 1053 893 1292 1265 1292 c 0
 1455 1292 1609 1259 1728 1192 c 1
 1859 1259 1994 1292 2132 1292 c 0
 2652 1292 2670 876 2581 544 c 0
 2522 322 2400 103 2215 -112 c 1
 2713 -112 l 1
 3090 1293 l 1
 3289 1293 l 1
 2885 -213 l 1
 2122 -213 l 1
 1846 -490 1457 -713 968 -713 c 0
 241 -713 -76 -340 -49 -190 c 1
 -35 -139 0 -114 57 -114 c 2
 1992 -114 l 1
 2197 110 2339 365 2394 572 c 0
 2523 1054 2311 1187 2117 1187 c 0
 2016 1187 1916 1165 1820 1122 c 1
 1958 995 1993 791 1936 578 c 0
 1812 117 1641 0 1433 0 c 0
EndSplineSet
EndChar

StartChar: u0BA9_u0BC2
Encoding: 181 -1 181
Width: 3874
GlyphClass: 2
Flags: HW
AnchorPoint: "V" 1654.5 1306 basechar 0
AnchorPoint: "N" 1654.5 76.5902 basechar 0
LayerCount: 2
Fore
SplineSet
428 545 m 1xdff8
 355 271 444 170 553 170 c 0
 674 170 772 298 808 436 c 1
 841 561 795 706 673 706 c 0
 552 706 470 617 428 545 c 1xdff8
1320 546 m 0
 1268 353 1249 101 1405 101 c 0xeff8
 1528 101 1636 199 1738 578 c 0
 1782 742 1765 919 1667 1036 c 1
 1526 935 1379 766 1320 546 c 0
70 -247 m 0
 45 -339 393 -614 972 -614 c 0
 1337 -614 1655 -433 1889 -217 c 1
 133 -217 l 2
 96 -217 75 -227 70 -247 c 0
2120 -214 m 1
 1844 -491 1455 -714 966 -714 c 0
 239 -714 -78 -341 -51 -191 c 1
 -37 -140 -2 -115 55 -115 c 2
 1988 -112 l 1
 2056 -37 2118 40 2172 120 c 1
 2280 285 2353 436 2390 574 c 0
 2519 1056 2307 1189 2113 1189 c 0
 2012 1189 1912 1167 1816 1124 c 1
 1954 997 1989 793 1932 580 c 0
 1808 119 1637 2 1429 2 c 0xeff8
 1218 2 1119 157 1224 549 c 0
 1291 799 1433 985 1592 1105 c 1
 1510 1162 1397 1190 1257 1190 c 0
 876 1190 551 907 478 733 c 1
 538 798 657 850 768 850 c 0
 978 850 1071 682 1007 445 c 0
 941 200 802 3 562 3 c 0xdff8
 338 3 252 244 346 595 c 0
 468 1051 892 1290 1264 1290 c 0
 1454 1290 1608 1257 1727 1190 c 1
 1858 1257 1992 1290 2130 1290 c 0
 2650 1290 2669 874 2580 542 c 0
 2521 320 2399 101 2214 -114 c 1
 2712 -114 l 1
 3088 1291 l 1
 3953 1291 l 1
 3927 1191 l 1
 3660 1191 l 1
 3283 -214 l 1
 3084 -214 l 1
 3461 1191 l 1
 3154 1191 l 1
 2777 -214 l 1
 2120 -214 l 1
EndSplineSet
EndChar

StartChar: u0BA9_u0BCD
Encoding: 184 -1 184
Width: 2580
GlyphClass: 2
Flags: HW
AnchorPoint: "N" 1654.5 76.5902 basechar 0
LayerCount: 2
Fore
SplineSet
240 546 m 1x7fe0
 167 272 257 171 366 171 c 0
 488 171 582 296 620 436 c 1
 663 598 579 706 486 706 c 0
 364 706 278 614 240 546 c 1x7fe0
1131 546 m 0
 1079 353 1061 101 1217 101 c 0xbfe0
 1380 101 1465 270 1548 579 c 0
 1594 750 1577 920 1478 1034 c 1
 1301 912 1185 749 1131 546 c 0
1748 580 m 0
 1625 121 1453 1 1245 1 c 0xbfe0
 1011 1 942 183 1040 548 c 0
 1129 881 1343 1056 1404 1103 c 1
 1323 1160 1212 1188 1072 1188 c 0
 682 1188 356 900 294 731 c 1
 353 797 469 848 582 848 c 0
 792 848 886 680 822 443 c 0
 767 236 638 2 376 2 c 0x7fe0
 151 2 66 242 160 594 c 0
 282 1049 709 1289 1077 1289 c 0
 1271 1289 1426 1256 1541 1189 c 1
 1675 1256 1813 1289 1956 1289 c 2
 2663 1289 l 1
 2636 1189 l 1
 2369 1189 l 1
 2050 -1 l 1
 1851 -1 l 1
 2170 1189 l 1
 1952 1189 l 2
 1839 1189 1732 1166 1632 1121 c 1
 1764 1001 1810 810 1748 580 c 0
1611 1506 m 0
 1532 1506 1479 1579 1503 1669 c 256
 1527 1759 1616 1832 1698 1832 c 0
 1782 1832 1830 1757 1806 1669 c 0
 1783 1584 1695 1506 1611 1506 c 0
EndSplineSet
LCarets2: 1 0
EndChar

StartChar: u0BAA
Encoding: 185 2986 185
Width: 1580
GlyphClass: 1
Flags: HW
AnchorPoint: "V" 1122 1306 basechar 0
AnchorPoint: "N" 1122 0 basechar 0
LayerCount: 2
Fore
SplineSet
1320 0 m 1
 0 0 l 1
 346 1290 l 1
 546 1290 l 1
 223 86 l 1
 1142 86 l 1
 1464 1290 l 1
 1665 1290 l 1
 1320 0 l 1
EndSplineSet
EndChar

StartChar: u0BAA_u0BBF
Encoding: 186 -1 186
Width: 1873
GlyphClass: 2
Flags: HW
AnchorPoint: "V" 1122 1306 basechar 0
AnchorPoint: "N" 1122 0 basechar 0
LayerCount: 2
Fore
SplineSet
1424 1144 m 1
 1291 1144 1114 1226 1202 1553 c 0
 1282 1852 1473 2034 1741 2034 c 0
 2017 2034 2106 1849 2007 1479 c 2
 1613 0 l 1
 1534 0 l 1
 1921 1447 l 2
 1978 1659 1957 1834 1686 1834 c 0
 1536 1834 1359 1736 1300 1517 c 0
 1241 1296 1355 1245 1452 1245 c 1
 1465 1291 l 1
 1665 1291 l 1
 1319 1 l 1
 -1 1 l 1
 345 1291 l 1
 545 1291 l 1
 222 87 l 1
 1141 87 l 1
 1424 1144 l 1
EndSplineSet
EndChar

StartChar: u0BAA_u0BC0
Encoding: 187 -1 187
Width: 1827
GlyphClass: 2
Flags: HW
AnchorPoint: "V" 1122 1306 basechar 0
AnchorPoint: "N" 1122 0 basechar 0
LayerCount: 2
Fore
SplineSet
1795 1909 m 0xfd80
 1576 1909 1393 1672 1353 1521 c 0
 1291 1288 1374 1205 1444 1205 c 1
 1466 1289 l 1
 1666 1289 l 1
 1320 -1 l 1
 1 -1 l 1
 346 1289 l 1
 546 1289 l 1
 224 85 l 1
 1142 85 l 1
 1423 1133 l 1xfe80
 1353 1133 1300 1171 1262 1246 c 0
 1224 1321 1221 1424 1256 1553 c 0
 1368 1971 1728 2076 1910 2076 c 0
 2039 2076 2147 2047 2233 1988 c 0
 2319 1929 2343 1830 2306 1689 c 1
 2257 1506 2099 1379 1916 1379 c 0
 1716 1379 1679 1533 1712 1657 c 0
 1736 1748 1806 1859 1891 1901 c 1
 1857 1906 1826 1909 1795 1909 c 0xfd80
1796 1651 m 0xfd80
 1769 1551 1816 1465 1911 1465 c 0
 2011 1465 2110 1553 2137 1653 c 0
 2164 1753 2125 1853 2004 1853 c 1
 1911 1834 1824 1756 1796 1651 c 0xfd80
EndSplineSet
EndChar

StartChar: u0BAA_u0BC1
Encoding: 188 -1 188
Width: 1580
GlyphClass: 2
Flags: HW
AnchorPoint: "V" 1122 1306 basechar 0
AnchorPoint: "N" 1122 0 basechar 0
LayerCount: 2
Fore
SplineSet
1216 -387 m 1
 1016 -387 l 1
 1120 0 l 1
 0 0 l 1
 346 1290 l 1
 546 1290 l 1
 223 86 l 1
 1142 86 l 1
 1464 1290 l 1
 1664 1290 l 1
 1216 -387 l 1
EndSplineSet
EndChar

StartChar: u0BAA_u0BC2
Encoding: 189 -1 189
Width: 2152
GlyphClass: 2
Flags: HW
AnchorPoint: "V" 1122 1306 basechar 0
AnchorPoint: "N" 1122 0 basechar 0
LayerCount: 2
Fore
SplineSet
560 -393 m 0
 589 -284 538 -208 445 -208 c 0
 355 -208 249 -284 220 -394 c 0
 191 -504 238 -595 351 -595 c 1
 428 -578 528 -514 560 -393 c 0
1500 239 m 0
 1454 239 1373 223 1327 142 c 1
 1204 -316 l 1
 1017 -316 l 1
 1102 0 l 1
 0 0 l 1
 346 1290 l 1
 533 1290 l 1
 210 86 l 1
 1129 86 l 1
 1451 1290 l 1
 1638 1290 l 1
 1362 270 l 1
 1423 346 1516 381 1599 381 c 0
 1723 381 1915 258 1847 5 c 0
 1815 -113 1716 -338 1401 -531 c 0
 1203 -653 867 -744 560 -744 c 0
 141 -744 98 -538 135 -400 c 0
 171 -266 265 -119 485 -119 c 0
 704 -119 721 -279 689 -398 c 0
 662 -500 582 -589 500 -626 c 1
 527 -640 560 -647 598 -647 c 1
 850 -639 1155 -535 1308 -424 c 0
 1451 -320 1584 -151 1629 18 c 0
 1660 132 1584 239 1500 239 c 0
EndSplineSet
LCarets2: 1 0
EndChar

StartChar: u0BAA_u0BCD
Encoding: 190 -1 190
Width: 1580
GlyphClass: 2
Flags: HW
AnchorPoint: "N" 1122 0 basechar 0
LayerCount: 2
Fore
SplineSet
1320 0 m 1
 0 0 l 1
 346 1290 l 1
 546 1290 l 1
 223 86 l 1
 1142 86 l 1
 1464 1290 l 1
 1664 1290 l 1
 1320 0 l 1
971 1668 m 0
 996 1762 1085 1831 1164 1831 c 0
 1250 1831 1297 1760 1273 1668 c 1
 1249 1578 1160 1505 1078 1505 c 0
 996 1505 947 1579 971 1668 c 0
EndSplineSet
EndChar

StartChar: u0BAE
Encoding: 191 2990 191
Width: 1606
GlyphClass: 1
Flags: HW
AnchorPoint: "V" 1052 1306 basechar 0
AnchorPoint: "N" 1052 0 basechar 0
LayerCount: 2
Fore
SplineSet
729 836 m 2
 807 1127 951 1288 1212 1288 c 0
 1549 1288 1603 960 1518 643 c 0
 1415 259 1204 0 990 0 c 2
 0 0 l 1
 346 1290 l 1
 546 1290 l 1
 227 100 l 1
 532 100 l 1
 729 836 l 2
1205 1165 m 0
 1130 1165 1001 1104 928 833 c 2
 732 100 l 1
 996 100 l 2
 1117 100 1316 249 1417 625 c 0
 1494 914 1443 1165 1205 1165 c 0
EndSplineSet
EndChar

StartChar: u0BAE_u0BBF
Encoding: 192 -1 192
Width: 1901
GlyphClass: 2
Flags: HW
AnchorPoint: "V" 1052 1306 basechar 0
AnchorPoint: "N" 1052 0 basechar 0
LayerCount: 2
Fore
SplineSet
731 841 m 2
 830 1211 1021 1276 1155 1290 c 1
 1135 1370 1140 1470 1172 1590 c 0
 1248 1873 1451 2081 1766 2081 c 0
 2052 2081 2143 1885 2038 1494 c 2
 1640 0 l 1
 1561 0 l 1
 1960 1491 l 2
 2003 1652 1997 1887 1716 1887 c 0
 1471 1887 1317 1729 1249 1475 c 0
 1230 1404 1231 1343 1253 1293 c 1
 1429 1293 1651 1136 1515 630 c 0
 1461 427 1382 272 1281 165 c 0
 1180 58 1084 5 992 5 c 2
 2 5 l 1
 348 1295 l 1
 548 1295 l 1
 229 105 l 1
 534 105 l 1
 731 841 l 2
1207 1166 m 0
 1132 1166 1003 1105 930 834 c 2
 734 101 l 1
 998 101 l 2
 1119 101 1318 250 1419 626 c 0
 1496 915 1445 1166 1207 1166 c 0
EndSplineSet
EndChar

StartChar: u0BAE_u0BC0
Encoding: 193 -1 193
Width: 1810
GlyphClass: 2
Flags: HW
AnchorPoint: "V" 1052 1306 basechar 0
AnchorPoint: "N" 1052 0 basechar 0
LayerCount: 2
Fore
SplineSet
1209 1165 m 0xfdc0
 1134 1165 1005 1104 932 833 c 2
 735 100 l 1
 1000 100 l 2
 1121 100 1320 249 1421 625 c 0
 1498 914 1447 1165 1209 1165 c 0xfdc0
1545 1720 m 0
 1567 1803 1639 1924 1725 1966 c 1
 1693 1971 1661 1974 1629 1974 c 0
 1450 1974 1271 1795 1215 1586 c 0xfbc0
 1175 1436 1227 1328 1261 1287 c 1
 1634 1252 1556 800 1513 624 c 1
 1459 421 1381 266 1280 159 c 0
 1179 52 1081 -1 989 -1 c 2
 -0 -1 l 1
 345 1289 l 1
 545 1289 l 1
 226 99 l 1
 532 99 l 1
 729 835 l 2xfdc0
 798 1094 938 1287 1183 1287 c 1
 1135 1345 1078 1466 1119 1620 c 0xfbc0
 1221 2000 1513 2143 1745 2143 c 0
 1876 2143 1983 2114 2068 2055 c 0
 2153 1996 2176 1895 2138 1752 c 0
 2089 1570 1932 1442 1750 1442 c 0
 1550 1442 1512 1595 1545 1720 c 0
1632 1721 m 0
 1605 1621 1652 1535 1747 1535 c 0
 1847 1535 1946 1620 1974 1723 c 0
 2001 1822 1963 1924 1841 1924 c 1
 1748 1905 1660 1826 1632 1721 c 0
EndSplineSet
EndChar

StartChar: u0BAE_u0BC1
Encoding: 194 -1 194
Width: 2166
GlyphClass: 2
Flags: HW
AnchorPoint: "V" 1052 1306 basechar 0
AnchorPoint: "N" 1052 0 basechar 0
LayerCount: 2
Fore
SplineSet
1292 838 m 2
 1370 1129 1514 1290 1775 1290 c 0
 2123 1290 2167 969 2075 625 c 0
 2027 447 1935 222 1762 88 c 0
 1708 46 1634 1 1551 1 c 2
 1270 1 l 1
 1221 -179 l 2
 1157 -418 1030 -630 636 -630 c 0
 157 -630 -37 -160 122 433 c 0
 185 668 348 1075 624 1291 c 1
 667 1234 l 1
 412 1019 276 664 212 425 c 0
 64 -126 275 -526 640 -526 c 0
 866 -526 948 -447 1020 -178 c 2
 1068 2 l 1
 562 2 l 1
 908 1292 l 1
 1108 1292 l 1
 789 102 l 1
 1095 102 l 1
 1292 838 l 2
1768 1165 m 0
 1693 1165 1565 1104 1492 833 c 2
 1295 100 l 1
 1559 100 l 2
 1680 100 1880 249 1981 625 c 0
 2058 914 2006 1165 1768 1165 c 0
EndSplineSet
EndChar

StartChar: u0BAE_u0BC2
Encoding: 195 -1 195
Width: 2433
GlyphClass: 2
Flags: HW
AnchorPoint: "V" 1052 1306 basechar 0
AnchorPoint: "N" 1052 0 basechar 0
LayerCount: 2
Fore
SplineSet
2036 1166 m 0xf7c0
 1961 1166 1832 1105 1759 834 c 2
 1563 101 l 1
 1827 101 l 2
 1963 101 2155 278 2248 625 c 0
 2336 955 2250 1166 2036 1166 c 0xf7c0
603 800 m 0
 701 800 795 871 823 977 c 0
 854 1091 821 1193 707 1193 c 0xefc0
 567 1193 471 1062 444 961 c 1
 437 864 509 800 603 800 c 0
575 689 m 0
 461 689 365 760 369 871 c 1
 320 787 247 588 205 419 c 1
 38 -205 457 -531 794 -531 c 0
 1119 -531 1225 -392 1281 -183 c 2
 1329 -3 l 1
 823 -3 l 1
 1169 1287 l 1
 1369 1287 l 1xefc0
 1050 97 l 1
 1356 97 l 1
 1553 833 l 2
 1631 1124 1775 1285 2036 1285 c 0xf7c0
 2379 1285 2424 959 2334 622 c 0
 2286 444 2193 218 2020 84 c 0
 1966 42 1893 -2 1810 -2 c 2
 1528 -2 l 1
 1480 -182 l 2
 1407 -454 1213 -635 787 -635 c 0
 324 -635 -67 -242 112 427 c 0
 308 1158 577 1287 733 1287 c 0
 903 1287 967 1179 916 989 c 0
 852 749 680 689 575 689 c 0
EndSplineSet
EndChar

StartChar: u0BAE_u0BCD
Encoding: 196 -1 196
Width: 1698
GlyphClass: 2
Flags: HW
AnchorPoint: "N" 1052 0 basechar 0
LayerCount: 2
Fore
SplineSet
729 836 m 2xf6
 807 1127 951 1288 1212 1288 c 0
 1560 1288 1597 961 1513 625 c 1
 1459 422 1381 267 1280 160 c 0
 1179 53 1082 0 990 0 c 2
 0 0 l 1
 346 1290 l 1
 546 1290 l 1
 227 100 l 1
 532 100 l 1
 729 836 l 2xf6
1205 1165 m 0
 1130 1165 1001 1104 928 833 c 2
 732 100 l 1
 996 100 l 2
 1117 100 1316 249 1417 625 c 0
 1494 914 1443 1165 1205 1165 c 0
901 1667 m 0xfa
 926 1761 1015 1830 1094 1830 c 0
 1180 1830 1227 1759 1203 1667 c 1
 1179 1577 1089 1504 1007 1504 c 0
 925 1504 877 1578 901 1667 c 0xfa
EndSplineSet
EndChar

StartChar: u0BAF
Encoding: 197 2991 197
Width: 1672
GlyphClass: 1
Flags: HW
AnchorPoint: "V" 1082 1306 basechar 0
AnchorPoint: "N" 1082 0 basechar 0
LayerCount: 2
Fore
SplineSet
530 86 m 1
 504 52 412 0 272 0 c 0
 111 0 42 145 89 321 c 2
 348 1289 l 1
 548 1289 l 1
 287 315 l 2
 246 162 272 86 366 86 c 0
 476 86 553 167 596 329 c 2
 853 1289 l 1
 946 1289 l 1
 623 85 l 1
 1236 85 l 1
 1559 1289 l 1
 1759 1289 l 1
 1414 0 l 1
 507 0 l 1
 530 86 l 1
EndSplineSet
EndChar

StartChar: u0BAF_u0BBF
Encoding: 198 -1 198
Width: 1954
GlyphClass: 2
Flags: HW
AnchorPoint: "V" 1082 1306 basechar 0
AnchorPoint: "N" 1082 0 basechar 0
LayerCount: 2
Fore
SplineSet
1297 1552 m 0
 1377 1851 1568 2033 1836 2033 c 0
 2139 2033 2179 1812 2090 1478 c 2
 1693 0 l 1
 1613 0 l 1
 2001 1447 l 2
 2071 1710 2011 1834 1779 1834 c 0
 1614 1834 1450 1721 1395 1517 c 0
 1336 1296 1450 1245 1547 1245 c 1
 1560 1291 l 1
 1759 1291 l 1
 1414 1 l 1
 507 1 l 1
 530 87 l 1
 504 53 412 1 272 1 c 0
 111 1 42 146 89 322 c 2
 348 1290 l 1
 548 1290 l 1
 287 316 l 2
 246 163 272 87 366 87 c 0
 476 87 553 168 596 330 c 2
 853 1290 l 1
 946 1290 l 1
 624 86 l 1
 1237 86 l 1
 1520 1143 l 1
 1378 1143 1211 1230 1297 1552 c 0
EndSplineSet
EndChar

StartChar: u0BAF_u0BC0
Encoding: 199 -1 199
Width: 1920
GlyphClass: 2
Flags: HW
AnchorPoint: "V" 1082 1306 basechar 0
AnchorPoint: "N" 1082 0 basechar 0
LayerCount: 2
Fore
SplineSet
530 85 m 1xff40
 504 51 411 -1 271 -1 c 0
 110 -1 41 144 88 320 c 2
 348 1288 l 1
 548 1288 l 1
 287 314 l 2
 246 161 272 85 366 85 c 0
 476 85 553 166 596 328 c 2
 853 1288 l 1
 946 1288 l 1
 623 84 l 1
 1236 84 l 1xff40
 1517 1135 l 1
 1385 1135 1277 1286 1349 1555 c 0
 1461 1974 1820 2079 2003 2079 c 0
 2134 2079 2241 2050 2326 1991 c 0
 2411 1932 2434 1831 2396 1688 c 0
 2347 1506 2190 1378 2008 1378 c 0
 1808 1378 1770 1531 1803 1656 c 0xfec0
 1827 1747 1898 1858 1983 1900 c 1
 1951 1905 1920 1908 1888 1908 c 0
 1682 1908 1493 1697 1446 1521 c 0
 1382 1284 1468 1205 1536 1205 c 1
 1559 1289 l 1
 1759 1289 l 1
 1413 -1 l 1
 507 -1 l 1
 530 85 l 1xff40
1891 1651 m 0xfec0
 1864 1551 1911 1465 2006 1465 c 0
 2109 1465 2204 1551 2232 1654 c 0
 2261 1761 2220 1853 2100 1853 c 1
 2008 1835 1918 1753 1891 1651 c 0xfec0
EndSplineSet
EndChar

StartChar: u0BAF_u0BC1
Encoding: 200 -1 200
Width: 1672
GlyphClass: 2
Flags: HW
AnchorPoint: "V" 1082 1306 basechar 0
AnchorPoint: "N" 1082 0 basechar 0
LayerCount: 2
Fore
SplineSet
530 86 m 1
 504 52 412 0 272 0 c 0
 111 0 42 145 89 321 c 2
 348 1289 l 1
 548 1289 l 1
 287 315 l 2
 246 162 272 86 366 86 c 0
 476 86 553 167 596 329 c 2
 853 1289 l 1
 946 1289 l 1
 623 85 l 1
 1236 85 l 1
 1559 1289 l 1
 1759 1289 l 1
 1310 -387 l 1
 1110 -387 l 1
 1214 0 l 1
 507 0 l 1
 530 86 l 1
EndSplineSet
EndChar

StartChar: u0BAF_u0BC2
Encoding: 201 -1 201
Width: 2272
GlyphClass: 2
Flags: HW
AnchorPoint: "V" 1082 1306 basechar 0
AnchorPoint: "N" 1082 0 basechar 0
LayerCount: 2
Fore
SplineSet
623 -363 m 0
 652 -254 601 -178 508 -178 c 0
 410 -178 311 -262 284 -363 c 0
 251 -485 309 -566 415 -566 c 1
 494 -549 590 -485 623 -363 c 0
1617 235 m 0
 1571 235 1490 219 1444 138 c 1
 1327 -314 l 1
 1127 -314 l 1
 1211 2 l 1
 505 2 l 1
 528 88 l 1
 502 54 409 2 269 2 c 0
 108 2 40 147 87 323 c 2
 346 1291 l 1
 546 1291 l 1
 285 317 l 2
 244 164 270 88 364 88 c 0
 474 88 551 169 594 331 c 2
 851 1291 l 1
 944 1291 l 1
 621 87 l 1
 1234 87 l 1
 1557 1290 l 1
 1758 1290 l 1
 1479 266 l 1
 1540 342 1633 377 1716 377 c 0
 1840 377 2032 254 1964 1 c 0
 1932 -117 1833 -342 1518 -535 c 0
 1372 -625 1097 -731 695 -731 c 0
 184 -731 160 -515 199 -371 c 0
 248 -189 372 -92 548 -92 c 0
 767 -92 782 -249 750 -368 c 0
 724 -465 649 -556 565 -597 c 1
 600 -632 647 -641 726 -641 c 0
 973 -641 1277 -536 1425 -428 c 0
 1568 -324 1701 -155 1746 14 c 0
 1777 128 1701 235 1617 235 c 0
EndSplineSet
LCarets2: 1 0
EndChar

StartChar: u0BAF_u0BCD
Encoding: 202 -1 202
Width: 1672
GlyphClass: 2
Flags: HW
AnchorPoint: "N" 1082 0 basechar 0
LayerCount: 2
Fore
SplineSet
530 86 m 1xec
 504 52 412 0 272 0 c 0
 111 0 42 145 89 321 c 2
 348 1289 l 1
 548 1289 l 1
 287 315 l 2
 246 162 272 86 366 86 c 0
 476 86 553 167 596 329 c 2
 853 1289 l 1
 946 1289 l 1
 623 85 l 1
 1236 85 l 1
 1559 1289 l 1
 1759 1289 l 1
 1414 0 l 1
 507 0 l 1
 530 86 l 1xec
931 1667 m 0xf4
 956 1761 1046 1830 1125 1830 c 0
 1211 1830 1257 1759 1233 1667 c 1
 1209 1577 1120 1504 1038 1504 c 0
 956 1504 907 1578 931 1667 c 0xf4
EndSplineSet
EndChar

StartChar: u0BB0
Encoding: 203 2992 203
Width: 1127
GlyphClass: 1
Flags: HW
AnchorPoint: "V" 922.5 1306 basechar 0
AnchorPoint: "N" 922.5 558.68 basechar 0
LayerCount: 2
Fore
SplineSet
1186 1190 m 1
 919 1190 l 1
 600 0 l 1
 53 -401 l 1
 -107 -401 l 1
 399 0 l 1
 718 1190 l 1
 413 1190 l 1
 94 0 l 1
 1 0 l 1
 347 1290 l 1
 1213 1290 l 1
 1186 1190 l 1
EndSplineSet
EndChar

StartChar: u0BB0_u0BBF
Encoding: 204 -1 204
Width: 1420
GlyphClass: 2
Flags: HW
AnchorPoint: "V" 922.5 1749.05 basechar 0
AnchorPoint: "N" 922.5 558.68 basechar 0
LayerCount: 2
Fore
SplineSet
929 1517 m 0xf6
 901 1411 916 1321 935 1291 c 1
 1214 1291 l 1
 1188 1191 l 1
 921 1191 l 1
 602 1 l 1
 402 1 l 1
 721 1191 l 1xfa
 416 1191 l 1
 97 1 l 1
 4 1 l 1
 350 1291 l 1
 840 1291 l 1
 821 1378 822 1463 844 1545 c 0
 905 1772 1050 2034 1346 2034 c 0
 1634 2034 1647 1815 1557 1480 c 2
 1160 0 l 1
 1081 0 l 1
 1468 1447 l 2
 1549 1751 1473 1834 1288 1834 c 0
 1148 1834 988 1737 929 1517 c 0xf6
EndSplineSet
EndChar

StartChar: u0BB0_u0BC0
Encoding: 205 -1 205
Width: 1200
GlyphClass: 2
Flags: HW
AnchorPoint: "V" 922.5 2007.29 basechar 0
AnchorPoint: "N" 922.5 558.68 basechar 0
LayerCount: 2
Fore
SplineSet
1194 1977 m 0
 1015 1977 835 1798 779 1589 c 0
 739 1439 792 1331 826 1290 c 1
 1211 1290 l 1
 1185 1190 l 1
 918 1190 l 1
 599 0 l 1
 399 0 l 1
 718 1190 l 1
 413 1190 l 1
 94 0 l 1
 1 0 l 1
 347 1290 l 1
 747 1290 l 1
 699 1348 643 1469 684 1623 c 0
 786 2003 1078 2146 1310 2146 c 0
 1441 2146 1548 2117 1633 2058 c 0
 1718 1999 1740 1898 1702 1755 c 0
 1653 1573 1496 1445 1314 1445 c 0
 1114 1445 1077 1598 1110 1723 c 0
 1133 1807 1204 1927 1289 1969 c 1
 1257 1974 1226 1977 1194 1977 c 0
1199 1723 m 0
 1172 1623 1219 1537 1314 1537 c 0
 1415 1537 1513 1625 1541 1725 c 1
 1568 1824 1530 1926 1408 1926 c 1
 1315 1907 1227 1828 1199 1723 c 0
EndSplineSet
EndChar

StartChar: u0BB0_u0BC1
Encoding: 206 -1 206
Width: 1967
GlyphClass: 2
Flags: HW
AnchorPoint: "V" 922.5 1306 basechar 0
AnchorPoint: "N" 922.5 558.68 basechar 0
LayerCount: 2
Fore
SplineSet
664 1233 m 1
 478 1078 310 801 225 482 c 0
 94 -8 211 -438 715 -438 c 0
 1162 -438 1453 -195 1584 292 c 0
 1627 451 1611 635 1438 635 c 0
 1360 635 1299 605 1254 546 c 1
 1107 -1 l 1
 908 -1 l 1
 1227 1189 l 1
 920 1189 l 1
 601 -1 l 1
 508 -1 l 1
 854 1289 l 1
 1721 1289 l 1
 1694 1189 l 1
 1427 1189 l 1
 1289 674 l 1
 1342 741 1437 773 1517 773 c 0
 1781 773 1849 531 1787 299 c 0
 1719 44 1597 -160 1426 -313 c 0
 1255 -466 1008 -543 684 -543 c 0
 120 -543 -14 -59 132 487 c 0
 220 817 435 1146 621 1290 c 1
 664 1233 l 1
EndSplineSet
EndChar

StartChar: u0BB0_u0BC2
Encoding: 207 -1 207
Width: 2287
GlyphClass: 2
Flags: HW
AnchorPoint: "V" 922.5 1306 basechar 0
AnchorPoint: "N" 922.5 558.68 basechar 0
LayerCount: 2
Fore
SplineSet
603 802 m 0xdfc0
 701 802 794 873 822 979 c 0
 853 1093 820 1195 706 1195 c 0
 566 1195 470 1064 443 963 c 1
 436 866 509 802 603 802 c 0xdfc0
2103 299 m 0
 1933 -335 1415 -542 842 -542 c 0
 256 -542 -35 -130 130 487 c 0
 202 754 293 954 401 1088 c 0
 509 1222 621 1290 735 1290 c 0
 905 1290 970 1182 919 992 c 0
 855 752 683 692 578 692 c 0xdfc0
 464 692 368 763 372 874 c 1
 316 776 265 644 221 478 c 0
 73 -76 373 -445 873 -445 c 0
 1528 -445 1821 -5 1901 292 c 0
 1924 376 1927 454 1910 527 c 0
 1893 600 1840 636 1754 636 c 0
 1676 636 1615 606 1570 547 c 1
 1424 0 l 1
 1224 0 l 1
 1543 1190 l 1
 1237 1190 l 1
 918 0 l 1
 825 0 l 1
 1171 1290 l 1
 2037 1290 l 1
 2011 1190 l 1
 1744 1190 l 1
 1606 675 l 1
 1653 732 1743 773 1834 773 c 0xefc0
 2098 773 2165 531 2103 299 c 0
EndSplineSet
EndChar

StartChar: u0BB0_u0BCD
Encoding: 208 -1 208
Width: 1127
GlyphClass: 2
Flags: HW
AnchorPoint: "N" 922.5 558.68 basechar 0
LayerCount: 2
Fore
SplineSet
399 0 m 1xf4
 718 1190 l 1
 413 1190 l 1
 94 0 l 1
 1 0 l 1
 347 1290 l 1
 1213 1290 l 1
 1187 1190 l 1
 920 1190 l 1
 601 0 l 1
 399 0 l 1xf4
771 1668 m 0xf8
 796 1762 886 1831 965 1831 c 0
 1051 1831 1098 1760 1074 1668 c 1
 1050 1578 960 1505 878 1505 c 0
 796 1505 747 1579 771 1668 c 0xf8
EndSplineSet
EndChar

StartChar: u0BB1
Encoding: 209 2993 209
Width: 1660
GlyphClass: 1
Flags: HW
HStem: -304 118<292.615 850.885> 1 21G<142 239.359> 1190 101<593.084 803.665 1124.87 1367.16>
VStem: -125 185<-684.083 -492.029>
DStem2: 142 1 234 1 0.266298 0.963891<24.4994 1230.27> 541 2 740 2 0.258588 0.965988<51.4589 1172.83>
AnchorPoint: "V" 1115 1306 basechar 0
AnchorPoint: "N" 1115 -243.171 basechar 0
LayerCount: 2
Fore
SplineSet
1006 1147 m 1
 1040 1194 1138 1291 1278 1291 c 0
 1659 1291 1664 987 1552 568 c 0
 1420 77 1169 -304 573 -304 c 0
 140 -304 83 -512 60 -599 c 0
 39 -678 7 -711 -73 -711 c 0
 -160 -711 -144 -564 -125 -494 c 0
 -92 -371 55 -186 494 -186 c 0
 889 -186 1170 -132 1355 558 c 0
 1468 979 1438 1190 1268 1190 c 0
 1147 1190 1036 1107 997 962 c 2
 740 2 l 1
 541 2 l 1
 802 977 l 2
 835 1100 828 1190 707 1190 c 0
 604 1190 535 1123 499 990 c 2
 234 1 l 1
 142 1 l 1
 406 985 l 2
 461 1189 589 1291 791 1291 c 0
 915 1291 997 1234 1006 1147 c 1
EndSplineSet
EndChar

StartChar: u0BB1_u0BBE.old
Encoding: 211 -1 211
Width: 1993
GlyphClass: 1
Flags: HW
AnchorPoint: "V" 1115 1306 basechar 0
AnchorPoint: "N" 1115 -243.171 basechar 0
LayerCount: 2
Fore
SplineSet
1317 1145 m 1
 1384 1245 1526 1288 1668 1288 c 0
 1895 1288 2055 1215 1975 905 c 1
 1915 682 1779 513 1623 434 c 1
 1675 395 1804 267 1737 16 c 0
 1674 -218 1448 -570 790 -570 c 0
 278 -570 -44 -176 119 432 c 0
 182 667 345 1074 621 1290 c 1
 664 1233 l 1
 409 1020 273 660 209 423 c 0
 66 -112 354 -469 820 -469 c 0
 1169 -469 1458 -275 1536 16 c 0
 1585 199 1554 341 1444 440 c 1
 1597 501 1707 656 1774 905 c 0
 1809 1037 1804 1188 1624 1188 c 0
 1474 1188 1351 1111 1310 959 c 2
 1052 -1 l 1
 853 -1 l 1
 1115 974 l 2
 1148 1097 1141 1187 1020 1187 c 0
 917 1187 848 1120 812 987 c 2
 547 -2 l 1
 454 -2 l 1
 718 982 l 2
 773 1186 901 1288 1104 1288 c 0
 1283 1288 1314 1176 1317 1145 c 1
EndSplineSet
EndChar

StartChar: u0BB1_u0BBF
Encoding: 212 -1 212
Width: 1954
GlyphClass: 2
Flags: HW
AnchorPoint: "V" 1115 1306 basechar 0
AnchorPoint: "N" 1115 -243.171 basechar 0
LayerCount: 2
Fore
SplineSet
802 982 m 2xfbc0
 835 1105 829 1195 708 1195 c 0
 605 1195 536 1128 500 995 c 2
 235 6 l 1
 143 6 l 1
 406 990 l 2xf7c0
 461 1194 590 1296 792 1296 c 0
 916 1296 997 1239 1006 1152 c 1
 1054 1222 1120 1266 1208 1285 c 1
 1188 1365 1193 1466 1226 1588 c 0
 1302 1871 1505 2079 1820 2079 c 0
 2106 2079 2197 1883 2092 1492 c 2
 1692 -1 l 1
 1612 -1 l 1
 2012 1490 l 2
 2055 1651 2048 1886 1767 1886 c 0
 1522 1886 1369 1728 1301 1474 c 0
 1284 1412 1284 1351 1301 1292 c 1
 1410 1292 1490 1259 1543 1192 c 1
 1635 1082 1636 888 1550 567 c 0
 1366 -118 1024 -246 716 -290 c 0
 672 -296 625 -299 574 -299 c 0
 277 -299 156 -404 113 -465 c 0
 93 -494 75 -537 60 -594 c 0
 39 -673 7 -706 -79 -706 c 0
 -132 -706 -159 -620 -129 -507 c 0
 -106 -420 -64 -356 -5 -315 c 0
 111 -234 227 -198 321 -191 c 1
 545 -179 l 1
 635 -179 722 -170 806 -152 c 1
 1058 -107 1235 114 1355 563 c 0
 1468 984 1439 1195 1269 1195 c 0
 1148 1195 1036 1112 997 967 c 2
 740 7 l 1
 541 7 l 1
 802 982 l 2xfbc0
EndSplineSet
EndChar

StartChar: u0BB1_u0BC0
Encoding: 213 -1 213
Width: 1693
GlyphClass: 2
Flags: HW
AnchorPoint: "V" 1115 1306 basechar 0
AnchorPoint: "N" 1115 -243.171 basechar 0
LayerCount: 2
Fore
SplineSet
1685 1724 m 0xf0a0
 1658 1624 1704 1538 1799 1538 c 0
 1892 1538 1996 1615 2025 1726 c 1
 2052 1827 2015 1927 1893 1927 c 1
 1800 1908 1713 1829 1685 1724 c 0xf0a0
793 1294 m 0
 917 1294 998 1237 1007 1150 c 1
 1060 1221 1152 1283 1240 1289 c 1
 1161 1394 1138 1507 1170 1626 c 0
 1271 2004 1564 2150 1798 2150 c 0
 1929 2150 2036 2121 2121 2062 c 0
 2206 2003 2229 1902 2191 1759 c 0
 2142 1577 1985 1449 1803 1449 c 0
 1603 1449 1565 1602 1598 1727 c 0xf5a0
 1622 1818 1693 1929 1778 1971 c 1
 1746 1976 1714 1979 1682 1979 c 0
 1470 1979 1311 1755 1267 1591 c 0
 1235 1471 1262 1361 1319 1291 c 1
 1527 1288 1621 1137 1615 938 c 0
 1612 835 1591 710 1552 565 c 0
 1368 -120 1026 -248 718 -292 c 0
 674 -298 626 -301 575 -301 c 0
 278 -301 158 -406 115 -467 c 0
 95 -496 76 -539 61 -596 c 0
 40 -675 9 -708 -77 -708 c 0
 -130 -708 -157 -622 -127 -509 c 0xf960
 -104 -422 -62 -358 -3 -317 c 0
 113 -236 228 -200 322 -193 c 1
 547 -181 l 1
 637 -181 724 -172 808 -154 c 1
 1060 -109 1236 112 1356 561 c 0
 1469 982 1440 1193 1270 1193 c 0
 1149 1193 1038 1110 999 965 c 2
 741 5 l 1
 542 5 l 1
 804 980 l 2
 837 1103 830 1193 709 1193 c 0
 606 1193 537 1126 501 993 c 2
 236 4 l 1
 144 4 l 1
 408 988 l 2xf660
 463 1192 591 1294 793 1294 c 0
EndSplineSet
EndChar

StartChar: u0BB1_u0BC1
Encoding: 214 -1 214
Width: 2273
GlyphClass: 2
Flags: HW
AnchorPoint: "V" 1115 1306 basechar 0
AnchorPoint: "N" 1115 -243.171 basechar 0
LayerCount: 2
Fore
SplineSet
64 -245 m 0
 50 -296 174 -499 538 -499 c 0
 747 -499 934 -404 1095 -215 c 1
 127 -215 l 2
 90 -215 69 -225 64 -245 c 0
1109 1148 m 1
 1143 1195 1241 1292 1381 1292 c 0
 1759 1292 1777 1004 1636 478 c 0
 1581 271 1487 75 1356 -112 c 1
 1785 -112 l 1
 2162 1293 l 1
 2361 1293 l 1
 1957 -213 l 1
 1275 -212 l 1
 1059 -469 812 -597 534 -597 c 0
 95 -597 -71 -284 -44 -183 c 0
 -31 -136 3 -112 60 -112 c 2
 1174 -112 l 1
 1289 56 1376 251 1435 473 c 0
 1550 904 1577 1192 1372 1192 c 0
 1250 1192 1139 1106 1101 963 c 2
 843 3 l 1
 644 3 l 1
 906 978 l 2
 939 1101 932 1191 811 1191 c 0
 708 1191 639 1124 603 991 c 2
 338 2 l 1
 246 2 l 1
 510 986 l 2
 565 1190 693 1292 895 1292 c 0
 1019 1292 1100 1235 1109 1148 c 1
EndSplineSet
EndChar

StartChar: u0BB1_u0BC2
Encoding: 215 -1 215
Width: 2940
GlyphClass: 2
Flags: HW
AnchorPoint: "V" 1115 1306 basechar 0
AnchorPoint: "N" 1115 -243.171 basechar 0
LayerCount: 2
Fore
SplineSet
63 -245 m 0
 49 -296 174 -499 538 -499 c 0
 747 -499 934 -404 1095 -215 c 1
 127 -215 l 2
 90 -215 68 -225 63 -245 c 0
1378 1292 m 0
 1756 1292 1774 1004 1633 478 c 0
 1576 265 1482 68 1353 -112 c 1
 1782 -112 l 1
 2159 1293 l 1
 3025 1293 l 1
 2998 1193 l 1
 2733 1193 l 1
 2356 -212 l 1
 2156 -212 l 1
 2533 1193 l 1
 2227 1193 l 1
 1850 -212 l 1
 1277 -212 l 1
 1061 -469 814 -597 536 -597 c 0
 97 -597 -70 -284 -43 -183 c 0
 -30 -136 5 -112 62 -112 c 2
 1171 -112 l 1
 1286 56 1373 251 1432 473 c 0
 1547 904 1574 1192 1369 1192 c 0
 1247 1192 1136 1106 1098 963 c 2
 840 3 l 1
 641 3 l 1
 903 978 l 2
 936 1101 929 1191 808 1191 c 0
 705 1191 636 1124 600 991 c 2
 335 2 l 1
 243 2 l 1
 507 986 l 2
 562 1190 690 1292 892 1292 c 0
 1016 1292 1097 1235 1106 1148 c 1
 1140 1195 1238 1292 1378 1292 c 0
EndSplineSet
LCarets2: 1 0
EndChar

StartChar: u0BB1_u0BCD
Encoding: 216 -1 216
Width: 1699
GlyphClass: 2
Flags: HW
AnchorPoint: "N" 1115 -243.171 basechar 0
LayerCount: 2
Fore
SplineSet
1006 1147 m 1xeb
 1040 1194 1138 1291 1278 1291 c 0
 1634 1291 1674 1019 1568 624 c 0
 1430 110 1214 -300 573 -304 c 0
 276 -306 156 -409 113 -470 c 0
 93 -499 75 -542 60 -599 c 0
 39 -678 7 -711 -79 -711 c 0
 -132 -711 -159 -625 -129 -512 c 0xf1
 -106 -425 -62 -367 -6 -320 c 0
 284 -78 750 -287 1032 -52 c 0
 1167 61 1275 258 1355 558 c 0
 1468 979 1438 1190 1268 1190 c 0
 1147 1190 1036 1107 997 962 c 2
 740 2 l 1
 541 2 l 1
 802 977 l 2
 835 1100 828 1190 707 1190 c 0
 604 1190 535 1123 499 990 c 2
 234 1 l 1
 142 1 l 1
 406 985 l 2
 461 1189 589 1291 791 1291 c 0
 915 1291 997 1234 1006 1147 c 1xeb
964 1669 m 0xe5
 989 1763 1079 1832 1158 1832 c 0
 1244 1832 1290 1761 1266 1669 c 0
 1242 1579 1153 1506 1071 1506 c 0
 989 1506 940 1580 964 1669 c 0xe5
EndSplineSet
LCarets2: 1 0
EndChar

StartChar: u0BB2
Encoding: 217 2994 217
Width: 2113
GlyphClass: 1
Flags: HW
HStem: 0 169<266.933 486.838> 0 102<1286.92 1591.16> 704 143<399.229 691> 1090 222<1623.12 1818.76> 1187 102<693.197 1095.67>
AnchorPoint: "V" 1402.5 1306 basechar 0
AnchorPoint: "N" 1402.5 0 basechar 0
LayerCount: 2
Fore
SplineSet
1575 1198 m 0x70
 1600 1293 1713 1312 1775 1312 c 0
 2101 1312 2108 949 2028 651 c 0
 1902 182 1658 0 1366 0 c 0x70
 1087 0 971 139 1103 630 c 0
 1214 1043 1186 1187 916 1187 c 0
 535 1187 335 872 297 730 c 1
 356 796 473 847 586 847 c 0
 796 847 889 679 825 442 c 0
 764 213 634 0 405 0 c 0
 84 0 92 328 163 593 c 0
 278 1021 564 1289 947 1289 c 0xa8
 1344 1289 1427 1081 1306 631 c 0
 1208 267 1213 102 1407 102 c 0
 1669 102 1833 321 1903 582 c 0
 1946 741 1936 921 1894 991 c 0
 1841 1080 1663 1058 1581 1090 c 0
 1560 1098 1558 1134 1575 1198 c 0x70
488 704 m 0
 375 704 267 657 242 544 c 1
 209 401 195 169 368 169 c 0xa0
 490 169 584 294 622 434 c 1
 665 596 581 704 488 704 c 0
EndSplineSet
EndChar

StartChar: u0BB2.old
Encoding: 218 -1 218
Width: 946
GlyphClass: 1
Flags: HW
HStem: 0 150<282.967 574.804> 1395 114<658.066 876.126> 1871 125<793.877 940.488>
VStem: 1130 35<605.704 615>
AnchorPoint: "V" 1402.5 1306 basechar 0
AnchorPoint: "N" 1402.5 0 basechar 0
LayerCount: 2
Fore
SplineSet
554 1668 m 0
 613 1887 801 1996 995 1996 c 0
 1126 1996 1230 1961 1307 1892 c 0
 1384 1823 1403 1710 1361 1555 c 0
 1314 1379 1192 1219 997 1076 c 1
 801 941 l 1
 698 874 l 1
 601 808 l 1
 456 706 306 574 264 418 c 0
 216 239 265 150 411 150 c 0
 521 150 757 194 1063 538 c 0
 1095 574 1119 600 1130 615 c 2
 1165 661 l 1
 1123 499 l 1
 1032 360 873 203 678 93 c 0
 568 31 454 0 339 0 c 0
 136 0 43 153 106 389 c 0
 135 496 204 653 560 926 c 1
 766 1085 l 2
 962 1236 1126 1380 1174 1559 c 0
 1228 1759 1135 1861 1018 1878 c 1
 1052 1842 1072 1747 1047 1655 c 0
 1004 1496 886 1395 728 1395 c 0
 578 1395 512 1512 554 1668 c 0
646 1683 m 0
 618 1577 668 1509 745 1509 c 0
 816 1509 920 1551 949 1659 c 0
 978 1769 958 1840 887 1871 c 1
 801 1871 679 1807 646 1683 c 0
EndSplineSet
EndChar

StartChar: u0BB2_u0BBF
Encoding: 219 -1 219
Width: 2407
GlyphClass: 2
Flags: HW
AnchorPoint: "V" 1402.5 1306 basechar 0
AnchorPoint: "N" 1402.5 0 basechar 0
LayerCount: 2
Fore
SplineSet
1781 1630 m 0x7fe0
 1839 1848 2030 2081 2302 2081 c 0
 2623 2081 2640 1845 2546 1495 c 2
 2145 0 l 1
 2066 0 l 1
 2466 1491 l 2
 2536 1751 2463 1881 2247 1881 c 0
 2082 1881 1934 1738 1884 1552 c 0
 1841 1393 1864 1287 1933 1154 c 1
 1991 1039 l 1
 2053 914 2076 832 2026 645 c 0
 1927 277 1721 4 1367 4 c 0x7fe0
 1088 4 972 143 1104 634 c 0
 1215 1047 1187 1191 917 1191 c 0
 536 1191 336 876 298 734 c 1
 357 800 474 851 587 851 c 0
 797 851 890 683 826 446 c 0
 765 217 635 4 406 4 c 0xbfe0
 85 4 94 332 165 597 c 0
 280 1025 565 1293 948 1293 c 0
 1345 1293 1428 1085 1307 635 c 0
 1209 271 1214 106 1408 106 c 0
 1670 106 1834 325 1904 586 c 0
 1962 804 1924 930 1869 1046 c 2
 1814 1162 l 2
 1752 1292 1725 1422 1781 1630 c 0x7fe0
241 548 m 1
 168 274 257 173 366 173 c 0xbfe0
 488 173 582 298 620 438 c 1
 663 600 579 708 486 708 c 0
 364 708 279 616 241 548 c 1
EndSplineSet
LCarets2: 1 0
EndChar

StartChar: u0BB2_u0BC0
Encoding: 220 -1 220
Width: 2171
GlyphClass: 2
Flags: HW
AnchorPoint: "V" 1402.5 1306 basechar 0
AnchorPoint: "N" 1402.5 0 basechar 0
LayerCount: 2
Fore
SplineSet
240 546 m 1xbff8
 167 272 257 171 366 171 c 0
 488 171 582 296 620 436 c 1
 663 598 579 706 486 706 c 0
 364 706 278 614 240 546 c 1xbff8
2100 1974 m 0
 1897 1974 1728 1749 1684 1586 c 0
 1652 1466 1692 1379 1808 1257 c 1
 1897 1162 l 1
 1958 1082 2002 1004 2029 926 c 0
 2056 848 2054 753 2024 641 c 0
 1876 87 1561 0 1363 -2 c 1x7ff8
 1084 -2 968 137 1100 628 c 0
 1211 1041 1183 1185 913 1185 c 0
 532 1185 332 870 294 728 c 1
 353 794 470 845 583 845 c 0
 793 845 886 677 822 440 c 0
 761 211 631 -2 402 -2 c 0xbff8
 81 -2 89 326 160 591 c 0
 275 1019 561 1287 944 1287 c 0
 1341 1287 1424 1079 1303 629 c 0
 1205 265 1210 100 1404 100 c 0x7ff8
 1666 100 1830 319 1900 580 c 0
 1931 694 1973 897 1801 1117 c 1
 1734 1218 1510 1324 1589 1619 c 0
 1690 1997 1983 2143 2217 2143 c 0
 2348 2143 2455 2114 2540 2055 c 0
 2625 1996 2647 1895 2609 1752 c 0
 2560 1569 2402 1442 2219 1442 c 0
 2019 1442 1982 1596 2015 1720 c 0
 2037 1803 2108 1924 2194 1966 c 1
 2162 1971 2131 1974 2100 1974 c 0
2105 1723 m 0
 2078 1623 2125 1537 2220 1537 c 0
 2314 1537 2416 1616 2445 1726 c 0
 2473 1829 2430 1927 2314 1927 c 1
 2220 1909 2133 1827 2105 1723 c 0
EndSplineSet
EndChar

StartChar: u0BB2_u0BC1
Encoding: 221 -1 221
Width: 2621
GlyphClass: 2
Flags: HW
AnchorPoint: "V" 1402.5 1306 basechar 0
AnchorPoint: "N" 1402.5 0 basechar 0
LayerCount: 2
Fore
SplineSet
240 546 m 1xf1f0
 167 272 257 171 366 171 c 0
 488 171 582 296 620 436 c 1
 663 598 579 706 486 706 c 0
 364 706 278 614 240 546 c 1xf1f0
61 -247 m 0xf2f0
 45 -306 194 -501 574 -501 c 0
 764 -501 962 -409 1119 -244 c 1
 1148 -217 l 1
 125 -217 l 2
 88 -217 66 -227 61 -247 c 0xf2f0
1573 1197 m 0
 1598 1292 1712 1311 1774 1311 c 0
 2103 1311 2107 940 2026 639 c 0
 1982 474 1918 337 1833 226 c 0
 1748 115 1641 45 1510 16 c 1
 1488 -34 1465 -78 1441 -116 c 1
 2131 -116 l 1
 2508 1289 l 1
 2708 1289 l 1
 2304 -217 l 1
 1362 -215 l 1
 1250 -359 984 -599 570 -599 c 0
 84 -599 -75 -287 -48 -185 c 0xfaf0
 -35 -138 0 -114 57 -114 c 2
 1227 -114 l 1
 1259 -61 1281 -22 1292 3 c 1
 1011 33 1005 266 1102 629 c 0
 1213 1042 1185 1186 915 1186 c 0
 534 1186 334 871 296 729 c 1
 355 795 472 846 585 846 c 0
 795 846 888 678 824 441 c 0
 763 212 633 -1 404 -1 c 0
 83 -1 91 327 162 592 c 0
 277 1020 563 1288 946 1288 c 0xf5f0
 1343 1288 1426 1080 1305 630 c 0
 1207 266 1212 101 1406 101 c 0
 1668 101 1832 320 1902 581 c 0
 1945 740 1935 920 1893 990 c 0
 1840 1079 1661 1056 1579 1088 c 0xf9f0
 1558 1096 1556 1133 1573 1197 c 0
EndSplineSet
EndChar

StartChar: u0BB2_u0BC2
Encoding: 222 -1 222
Width: 3288
GlyphClass: 2
Flags: HW
AnchorPoint: "V" 1402.5 1306 basechar 0
AnchorPoint: "N" 1402.5 0 basechar 0
LayerCount: 2
Fore
SplineSet
240 546 m 1xf2f8
 167 272 257 171 366 171 c 0
 488 171 582 296 620 436 c 1
 663 598 579 706 486 706 c 0
 364 706 278 614 240 546 c 1xf2f8
61 -247 m 0xf1f8
 45 -306 194 -501 574 -501 c 0
 807 -501 1005 -372 1148 -217 c 1
 125 -217 l 2
 88 -217 66 -227 61 -247 c 0xf1f8
1367 -218 m 1
 1069 -584 694 -603 574 -603 c 0
 88 -603 -70 -291 -43 -189 c 0xf5f8
 -30 -142 4 -118 61 -118 c 2
 1224 -115 l 1
 1245 -86 1266 -47 1289 2 c 1
 1008 32 1003 265 1100 628 c 0
 1211 1041 1183 1185 913 1185 c 0
 532 1185 332 870 294 728 c 1
 353 794 470 845 583 845 c 0
 793 845 886 677 822 440 c 0
 761 211 631 -2 402 -2 c 0
 81 -2 89 326 160 591 c 0
 275 1019 561 1287 944 1287 c 0xf6f8
 1341 1287 1424 1079 1303 629 c 0
 1205 265 1210 100 1404 100 c 0
 1666 100 1830 319 1900 580 c 0
 1943 739 1933 919 1891 989 c 0
 1838 1078 1659 1056 1577 1088 c 0
 1556 1096 1554 1132 1571 1196 c 0
 1596 1291 1710 1310 1772 1310 c 0xfaf8
 2101 1310 2104 939 2023 638 c 0
 1979 473 1916 335 1831 224 c 0
 1746 113 1639 44 1508 15 c 1
 1486 -36 1463 -81 1439 -118 c 1
 2129 -118 l 1
 2505 1287 l 1
 3372 1287 l 1
 3345 1187 l 1
 3078 1187 l 1
 2702 -218 l 1
 2502 -218 l 1
 2878 1187 l 1
 2572 1187 l 1xf6f8
 2196 -218 l 1
 1367 -218 l 1
EndSplineSet
EndChar

StartChar: u0BB2_u0BCD
Encoding: 225 -1 225
Width: 2113
GlyphClass: 2
Flags: HW
AnchorPoint: "N" 1402.5 0 basechar 0
LayerCount: 2
Fore
SplineSet
1575 1199 m 0x7760
 1600 1294 1714 1313 1776 1313 c 0
 2102 1313 2110 949 2025 642 c 1
 1926 274 1720 1 1366 1 c 0x7760
 1087 1 972 140 1104 631 c 0
 1215 1044 1186 1188 916 1188 c 0
 535 1188 335 873 297 731 c 1
 356 797 473 848 586 848 c 0
 796 848 889 680 825 443 c 0
 764 214 635 1 406 1 c 0
 85 1 93 329 164 594 c 0
 279 1022 564 1290 947 1290 c 0xaf60
 1344 1290 1428 1082 1307 632 c 0
 1209 268 1214 103 1408 103 c 0
 1670 103 1834 322 1904 583 c 0
 1947 742 1936 922 1894 992 c 0
 1841 1081 1663 1058 1581 1090 c 0
 1560 1098 1558 1135 1575 1199 c 0x7760
243 545 m 1
 170 271 259 170 368 170 c 0xa720
 490 170 584 295 622 435 c 1
 665 597 581 705 488 705 c 0
 366 705 281 613 243 545 c 1
1251 1665 m 0x27a0
 1276 1759 1366 1828 1445 1828 c 0
 1530 1828 1578 1757 1554 1665 c 1
 1530 1575 1440 1502 1358 1502 c 0
 1276 1502 1227 1576 1251 1665 c 0x27a0
EndSplineSet
EndChar

StartChar: u0BB3
Encoding: 226 2995 226
Width: 2207
GlyphClass: 1
Flags: HW
AnchorPoint: "V" 1470 1306 basechar 0
AnchorPoint: "N" 1470 0 basechar 0
LayerCount: 2
Fore
SplineSet
164 593 m 0xfd
 277 1016 567 1290 921 1290 c 0
 1166 1290 1350 1221 1377 1048 c 1
 1442 1291 l 1
 2295 1291 l 1
 2265 1190 l 1
 1998 1190 l 1
 1679 0 l 1
 1480 0 l 1
 1799 1190 l 1
 1492 1190 l 1xfb
 1174 0 l 1
 975 0 l 1
 1208 872 l 2
 1242 998 1194 1188 915 1188 c 0
 550 1188 344 896 300 731 c 1
 362 798 476 847 589 847 c 0
 799 847 892 679 828 442 c 0
 778 255 650 1 407 1 c 0
 140 1 76 265 164 593 c 0xfd
249 555 m 0
 224 461 187 172 372 172 c 0
 494 172 589 297 627 437 c 1
 670 599 585 707 492 707 c 0
 383 707 278 662 249 555 c 0
EndSplineSet
EndChar

StartChar: u0BB3_u0BBF
Encoding: 227 -1 227
Width: 2500
GlyphClass: 2
Flags: HW
AnchorPoint: "V" 1470 1306 basechar 0
AnchorPoint: "N" 1470 0 basechar 0
LayerCount: 2
Fore
SplineSet
1924 1546 m 0xfd60
 1985 1773 2129 2035 2425 2035 c 0
 2642 2035 2755 1916 2638 1480 c 2
 2241 0 l 1
 2160 0 l 1
 2548 1447 l 2
 2632 1761 2547 1834 2367 1834 c 0
 2223 1834 2066 1733 2008 1517 c 0xfd60
 1984 1427 1988 1331 2013 1291 c 1
 2293 1291 l 1
 2266 1191 l 1
 1999 1191 l 1
 1681 1 l 1
 1482 1 l 1
 1800 1191 l 1
 1494 1191 l 1xfda0
 1175 1 l 1
 976 1 l 1
 1209 873 l 2xfe20
 1243 999 1195 1189 916 1189 c 0
 551 1189 345 897 301 732 c 1
 363 799 477 848 590 848 c 0
 800 848 893 680 829 443 c 0
 779 256 651 2 408 2 c 0
 141 2 78 266 166 594 c 0
 279 1017 568 1291 922 1291 c 0
 1084 1291 1199 1265 1268 1213 c 0
 1337 1161 1374 1106 1378 1049 c 1
 1443 1292 l 1
 1921 1292 l 1
 1901 1381 1902 1465 1924 1546 c 0xfd60
245 547 m 1
 201 383 227 172 371 172 c 0
 493 172 587 297 625 437 c 0
 668 599 584 707 491 707 c 0
 369 707 283 615 245 547 c 1
EndSplineSet
LCarets2: 1 0
EndChar

StartChar: u0BB3_u0BC0
Encoding: 228 -1 228
Width: 2489
GlyphClass: 2
Flags: HW
AnchorPoint: "V" 1470 1306 basechar 0
AnchorPoint: "N" 1470 0 basechar 0
LayerCount: 2
Fore
SplineSet
243 546 m 1xfe78
 199 382 224 171 368 171 c 0
 490 171 585 296 623 436 c 0
 666 598 582 706 489 706 c 0
 367 706 281 614 243 546 c 1xfe78
2277 1721 m 0
 2250 1621 2297 1535 2392 1535 c 0
 2484 1535 2587 1609 2617 1721 c 0
 2649 1845 2591 1925 2486 1925 c 1
 2392 1907 2305 1825 2277 1721 c 0
2277 1978 m 0
 2065 1978 1906 1754 1862 1590 c 0
 1827 1460 1857 1355 1908 1291 c 1
 2292 1291 l 1
 2265 1188 l 1
 1998 1188 l 1
 1679 -2 l 1
 1480 -2 l 1
 1799 1188 l 1
 1492 1188 l 1xfef8
 1173 -2 l 1
 974 -2 l 1
 1208 870 l 2xff78
 1242 996 1194 1186 915 1186 c 0
 550 1186 343 894 299 729 c 1
 361 796 475 845 588 845 c 0
 798 845 891 677 827 440 c 0
 777 253 649 -1 406 -1 c 0
 139 -1 76 263 164 591 c 0
 277 1014 567 1288 921 1288 c 0
 1166 1288 1350 1219 1377 1046 c 1
 1442 1289 l 1xfef8
 1830 1289 l 1
 1781 1351 1728 1476 1767 1623 c 0
 1868 2001 2160 2147 2394 2147 c 0
 2525 2147 2633 2118 2718 2059 c 0
 2803 2000 2825 1899 2787 1756 c 0
 2738 1573 2580 1446 2397 1446 c 0
 2197 1446 2160 1600 2193 1724 c 0
 2215 1807 2286 1928 2372 1970 c 1
 2340 1975 2308 1978 2277 1978 c 0
EndSplineSet
LCarets2: 1 0
EndChar

StartChar: u0BB3_u0BC1
Encoding: 229 -1 229
Width: 2860
GlyphClass: 2
Flags: HW
AnchorPoint: "V" 1470 1306 basechar 0
AnchorPoint: "N" 1470 0 basechar 0
LayerCount: 2
Fore
SplineSet
566 547 m 1xdf30
 522 383 547 172 691 172 c 0
 811 172 905 294 941 428 c 0
 984 590 910 707 810 707 c 0
 686 707 604 617 566 547 c 1xdf30
1095 -713 m 0
 401 -713 -64 -255 120 432 c 0
 190 692 343 1051 617 1291 c 1
 661 1234 l 1
 478 1063 302 755 213 423 c 0
 74 -95 417 -619 1173 -619 c 0
 1769 -619 2357 -160 2478 291 c 0
 2521 450 2505 634 2332 634 c 0
 2254 634 2193 604 2148 545 c 1
 2002 -2 l 1
 1803 -2 l 1
 2121 1188 l 1
 1815 1188 l 1xef70
 1496 -2 l 1
 1297 -2 l 1
 1530 870 l 2
 1564 997 1515 1187 1238 1187 c 0
 873 1187 666 895 622 730 c 1
 683 798 797 845 910 845 c 0xdfb0
 1120 845 1215 680 1151 440 c 0
 1100 251 973 -1 729 -1 c 0
 529 -1 372 166 486 591 c 0
 599 1014 890 1288 1242 1288 c 2
 1271 1288 l 2
 1311 1288 1662 1286 1698 1046 c 1
 1764 1289 l 1
 2615 1289 l 1
 2589 1189 l 1
 2322 1189 l 1
 2184 674 l 1
 2237 741 2332 773 2412 773 c 0xef70
 2676 773 2743 531 2681 299 c 0
 2599 -6 2422 -252 2144 -434 c 0
 1865 -617 1509 -713 1095 -713 c 0
EndSplineSet
LCarets2: 1 0
EndChar

StartChar: u0BB3_u0BC2
Encoding: 230 -1 230
Width: 3339
GlyphClass: 2
Flags: HW
AnchorPoint: "V" 1470 1306 basechar 0
AnchorPoint: "N" 1470 0 basechar 0
LayerCount: 2
Fore
SplineSet
603 802 m 0xd7cc
 701 802 794 873 822 979 c 0
 853 1093 820 1195 706 1195 c 0
 566 1195 470 1064 443 963 c 1
 436 866 509 802 603 802 c 0xd7cc
1042 546 m 1
 1004 404 1015 172 1168 172 c 0
 1278 172 1381 282 1421 433 c 0
 1462 591 1389 707 1287 707 c 0xcfcc
 1166 707 1084 618 1042 546 c 1
579 689 m 0xd7dc
 465 689 369 760 373 871 c 1
 324 787 253 589 207 419 c 0
 11 -313 722 -617 1301 -617 c 0
 2102 -617 2807 -254 2953 290 c 0
 2990 427 2998 634 2806 634 c 0
 2728 634 2668 604 2623 545 c 1
 2476 -2 l 1
 2276 -2 l 1
 2595 1188 l 1
 2290 1188 l 1xe7dc
 1971 -2 l 1
 1771 -2 l 1
 2005 870 l 2
 2053 1049 1943 1186 1712 1186 c 0
 1332 1186 1133 873 1094 728 c 1
 1156 795 1270 844 1383 844 c 0xcfec
 1596 844 1687 676 1623 439 c 0
 1525 75 1324 -2 1203 -2 c 0
 909 -2 883 302 960 590 c 0
 1108 1142 1485 1286 1715 1286 c 0
 1960 1286 2144 1219 2171 1044 c 1
 2236 1287 l 1
 3090 1287 l 1
 3063 1187 l 1
 2796 1187 l 1
 2658 672 l 1
 2705 729 2796 770 2887 770 c 0xe7dc
 3151 770 3218 528 3156 296 c 0
 3012 -243 2526 -539 1950 -655 c 0
 1742 -697 1518 -718 1276 -718 c 0
 419 -718 -69 -260 115 427 c 0
 311 1158 580 1287 736 1287 c 0
 906 1287 971 1179 920 989 c 0
 856 749 684 689 579 689 c 0xd7dc
EndSplineSet
LCarets2: 1 0
EndChar

StartChar: u0BB3_u0BCD
Encoding: 233 -1 233
Width: 2207
GlyphClass: 2
Flags: HW
AnchorPoint: "N" 1470 0 basechar 0
LayerCount: 2
Fore
SplineSet
164 593 m 0xfd40
 277 1016 567 1290 921 1290 c 0
 1166 1290 1350 1221 1377 1048 c 1
 1442 1291 l 1
 2295 1291 l 1
 2265 1190 l 1
 1998 1190 l 1
 1679 0 l 1
 1480 0 l 1
 1799 1190 l 1
 1492 1190 l 1xfcc0
 1174 0 l 1
 975 0 l 1
 1208 872 l 2
 1242 998 1194 1188 915 1188 c 0
 550 1188 344 896 300 731 c 1
 362 798 476 847 589 847 c 0
 799 847 892 679 828 442 c 0
 778 255 650 1 407 1 c 0
 140 1 76 265 164 593 c 0xfd40
247 547 m 1
 203 383 228 172 372 172 c 0
 494 172 589 297 627 437 c 0
 670 599 585 707 492 707 c 0
 370 707 285 615 247 547 c 1
1319 1667 m 0xfe40
 1344 1761 1433 1830 1512 1830 c 0
 1597 1830 1645 1759 1621 1667 c 0
 1597 1577 1508 1504 1426 1504 c 0
 1344 1504 1295 1578 1319 1667 c 0xfe40
EndSplineSet
LCarets2: 1 0
EndChar

StartChar: u0BB4
Encoding: 234 2996 234
Width: 1608
GlyphClass: 1
Flags: HW
AnchorPoint: "V" 1053 1306 basechar 0
AnchorPoint: "N" 1053 -220 basechar 0
LayerCount: 2
Fore
SplineSet
731 838 m 2xdf80
 809 1129 952 1290 1213 1290 c 0
 1597 1290 1582 901 1515 625 c 1
 1461 422 1383 267 1282 160 c 0
 1181 53 1083 0 991 0 c 2
 710 0 l 1
 675 -131 l 1
 959 -131 l 1
 935 -220 l 1
 610 -220 l 2xbf80
 513 -220 443 -284 402 -411 c 0
 358 -547 219 -714 54 -714 c 0
 -202 -714 -231 -533 -189 -377 c 0
 -160 -270 -79 -157 29 -157 c 1
 48 -222 l 1
 12 -222 -82 -251 -114 -369 c 0
 -147 -491 -84 -564 25 -564 c 0
 191 -564 246 -443 282 -341 c 0
 342 -171 418 -129 472 -129 c 1
 507 2 l 1
 2 2 l 1
 347 1292 l 1
 547 1292 l 1
 228 102 l 1
 533 102 l 1
 731 838 l 2xdf80
1207 1167 m 0
 1132 1167 1003 1106 930 835 c 2
 733 102 l 1
 997 102 l 2
 1118 102 1318 251 1419 627 c 0
 1496 916 1445 1167 1207 1167 c 0
EndSplineSet
EndChar

StartChar: u0BB4_u0BBF
Encoding: 235 -1 235
Width: 1903
GlyphClass: 2
Flags: HW
AnchorPoint: "V" 1053 1306 basechar 0
AnchorPoint: "N" 1053 -220 basechar 0
LayerCount: 2
Fore
SplineSet
733 843 m 2xdf78
 832 1213 1022 1278 1156 1292 c 1
 1136 1372 1141 1472 1173 1592 c 0
 1249 1875 1452 2083 1767 2083 c 0
 2053 2083 2145 1887 2040 1496 c 1
 1642 0 l 1
 1562 0 l 1
 1962 1491 l 2
 2005 1652 1998 1887 1717 1887 c 0
 1472 1887 1319 1729 1251 1475 c 0
 1232 1404 1233 1343 1255 1293 c 1
 1381 1293 1470 1233 1522 1114 c 0
 1574 995 1572 834 1517 630 c 0
 1390 156 1136 5 994 5 c 2
 712 5 l 1
 677 -126 l 1
 961 -126 l 1
 938 -215 l 1
 612 -215 l 2xbf78
 487 -215 428 -320 405 -406 c 0
 367 -548 210 -709 57 -709 c 0
 -199 -709 -229 -528 -187 -372 c 0
 -158 -265 -77 -152 31 -152 c 1
 51 -217 l 1
 15 -217 -79 -246 -111 -364 c 0
 -144 -486 -78 -559 15 -559 c 0
 182 -559 256 -442 284 -336 c 0xdfb8
 315 -222 402 -124 475 -124 c 1
 510 7 l 1
 4 7 l 1
 349 1297 l 1
 549 1297 l 1
 231 107 l 1
 536 107 l 1
 733 843 l 2xdf78
1209 1168 m 0
 1134 1168 1005 1107 932 836 c 2
 735 103 l 1
 1000 103 l 2
 1121 103 1320 252 1421 628 c 0
 1498 917 1447 1168 1209 1168 c 0
EndSplineSet
LCarets2: 1 0
EndChar

StartChar: u0BB4_u0BC0
Encoding: 236 -1 236
Width: 1643
GlyphClass: 2
Flags: HW
AnchorPoint: "V" 1053 1306 basechar 0
AnchorPoint: "N" 1053 -220 basechar 0
LayerCount: 2
Fore
SplineSet
1211 1165 m 0x9fae
 1136 1165 1007 1104 934 833 c 2
 737 100 l 1
 1002 100 l 2
 1123 100 1322 249 1423 625 c 0
 1500 914 1449 1165 1211 1165 c 0x9fae
1640 1722 m 0
 1613 1622 1660 1536 1755 1536 c 0
 1855 1536 1954 1621 1982 1724 c 0
 2009 1823 1971 1925 1849 1925 c 1
 1756 1906 1668 1827 1640 1722 c 0
1546 1722 m 0
 1568 1805 1639 1926 1725 1968 c 1
 1693 1973 1662 1976 1630 1976 c 0
 1451 1976 1271 1797 1215 1588 c 0
 1175 1438 1228 1330 1262 1289 c 1
 1541 1263 1606 989 1509 626 c 0
 1382 152 1127 1 985 1 c 2
 709 1 l 1
 673 -132 l 1
 958 -132 l 1
 934 -221 l 1
 609 -221 l 2xbf9e
 484 -221 420 -341 401 -412 c 0
 361 -560 202 -715 53 -715 c 0
 -203 -715 -232 -534 -190 -378 c 0
 -161 -271 -80 -158 28 -158 c 1
 47 -223 l 1
 11 -223 -83 -252 -115 -370 c 0
 -148 -492 -82 -565 11 -565 c 0
 151 -565 240 -491 280 -342 c 0xdfde
 308 -238 388 -130 471 -130 c 1
 506 1 l 1
 0 1 l 1
 346 1291 l 1
 546 1291 l 1
 227 101 l 1
 532 101 l 1
 729 837 l 2xdfae
 798 1096 938 1289 1183 1289 c 1
 1135 1347 1079 1468 1120 1622 c 0xdf9e
 1222 2002 1514 2145 1746 2145 c 0
 1877 2145 1984 2116 2069 2057 c 0
 2154 1998 2177 1897 2139 1754 c 0
 2090 1572 1932 1444 1750 1444 c 0
 1550 1444 1513 1597 1546 1722 c 0
EndSplineSet
LCarets2: 1 0
EndChar

StartChar: u0BB4_u0BC1
Encoding: 237 -1 237
Width: 2113
GlyphClass: 2
Flags: HW
AnchorPoint: "V" 1053 1306 basechar 0
AnchorPoint: "N" 1053 -220 basechar 0
LayerCount: 2
Fore
SplineSet
1715 1165 m 0
 1640 1165 1511 1104 1438 833 c 2
 1241 100 l 1
 1505 100 l 2
 1626 100 1826 249 1927 625 c 0
 2004 914 1953 1165 1715 1165 c 0
1722 1288 m 0
 2068 1288 2113 966 2021 624 c 0
 1973 446 1880 220 1707 86 c 0
 1653 44 1580 0 1497 0 c 2
 1215 0 l 1
 1166 -183 l 1
 1222 -130 1297 -104 1393 -104 c 0
 1508 -104 1646 -150 1599 -326 c 0
 1516 -636 1231 -717 732 -717 c 0
 179 -717 -56 -218 102 371 c 0
 242 892 471 1162 614 1287 c 1
 657 1230 l 1
 453 1044 298 755 193 362 c 0
 39 -212 301 -618 755 -618 c 0
 990 -618 1331 -555 1390 -334 c 0
 1414 -245 1350 -223 1304 -223 c 0
 1216 -223 1152 -292 1129 -323 c 1
 929 -323 l 1
 1015 -1 l 1
 509 -1 l 1
 855 1289 l 1
 1055 1289 l 1
 736 99 l 1
 1041 99 l 1
 1238 835 l 2
 1305 1085 1432 1288 1722 1288 c 0
EndSplineSet
LCarets2: 1 0
EndChar

StartChar: u0BB4_u0BC2
Encoding: 238 -1 238
Width: 2487
GlyphClass: 2
Flags: HW
AnchorPoint: "V" 1053 1306 basechar 0
AnchorPoint: "N" 1053 -220 basechar 0
LayerCount: 2
Fore
SplineSet
603 802 m 0xf7f0
 701 802 794 873 822 979 c 0
 853 1093 820 1195 706 1195 c 0
 566 1195 470 1064 443 963 c 1
 436 866 509 802 603 802 c 0xf7f0
2087 1167 m 0xfbf0
 2012 1167 1883 1106 1810 835 c 2
 1614 102 l 1
 1878 102 l 2
 2014 102 2206 279 2299 626 c 0
 2387 956 2301 1167 2087 1167 c 0xfbf0
375 874 m 1
 326 790 255 592 209 422 c 0
 35 -229 501 -618 992 -618 c 0
 1277 -618 1701 -561 1762 -334 c 0
 1782 -260 1739 -223 1675 -223 c 0
 1587 -223 1524 -291 1501 -323 c 1
 1301 -323 l 1
 1387 -1 l 1
 881 -1 l 1
 1227 1289 l 1
 1427 1289 l 1xf7f0
 1108 99 l 1
 1414 99 l 1
 1611 835 l 2
 1689 1126 1833 1287 2094 1287 c 0xfbf0
 2437 1287 2482 961 2392 624 c 0
 2344 446 2251 220 2078 86 c 0
 2024 44 1951 0 1868 0 c 2
 1587 0 l 1
 1538 -183 l 1
 1592 -130 1667 -104 1763 -104 c 0
 1912 -104 2009 -176 1969 -327 c 0
 1886 -637 1492 -715 971 -715 c 0
 344 -715 -68 -257 116 429 c 0
 312 1160 581 1289 737 1289 c 0xf7f0
 907 1289 971 1181 920 991 c 0
 856 751 677 691 579 691 c 0
 472 691 372 763 375 874 c 1
EndSplineSet
LCarets2: 1 0
EndChar

StartChar: u0BB4_u0BCD
Encoding: 239 -1 239
Width: 1700
GlyphClass: 2
Flags: HW
AnchorPoint: "N" 1053 -220 basechar 0
LayerCount: 2
Fore
SplineSet
731 838 m 2xdf30
 809 1129 952 1290 1213 1290 c 0
 1597 1290 1585 888 1515 625 c 0
 1465 438 1383 267 1282 160 c 0
 1181 53 1083 0 991 0 c 2
 710 0 l 1
 675 -131 l 1
 959 -131 l 1
 935 -220 l 1
 610 -220 l 2xbf30
 485 -220 423 -332 402 -411 c 0
 363 -555 208 -714 54 -714 c 0
 -202 -714 -231 -533 -189 -377 c 0
 -160 -270 -79 -157 29 -157 c 1
 48 -222 l 1
 12 -222 -82 -251 -114 -369 c 0
 -147 -491 -80 -564 13 -564 c 0
 180 -564 252 -448 282 -341 c 0xdf90
 315 -222 399 -129 472 -129 c 1
 507 2 l 1
 2 2 l 1
 347 1292 l 1
 547 1292 l 1
 228 102 l 1
 533 102 l 1
 731 838 l 2xdf30
1207 1167 m 0
 1132 1167 1003 1106 930 835 c 2
 733 102 l 1
 997 102 l 2
 1118 102 1318 251 1419 627 c 0
 1496 916 1445 1167 1207 1167 c 0
902 1669 m 0x9f50
 927 1763 1016 1832 1095 1832 c 0
 1181 1832 1228 1761 1204 1669 c 0
 1180 1579 1091 1506 1009 1506 c 0
 927 1506 878 1580 902 1669 c 0x9f50
EndSplineSet
LCarets2: 1 0
EndChar

StartChar: u0BB5
Encoding: 240 2997 240
Width: 2074
GlyphClass: 1
Flags: HW
AnchorPoint: "V" 1616 1306 basechar 0
AnchorPoint: "N" 1616 0 basechar 0
LayerCount: 2
Fore
SplineSet
162 592 m 0xbf
 277 1020 563 1288 946 1288 c 0
 1470 1288 1498 904 1415 595 c 0
 1365 410 1266 245 1118 101 c 1
 1642 101 l 1
 1961 1291 l 1
 2161 1291 l 1
 1815 0 l 1
 835 0 l 1x7f
 1035 169 1164 364 1224 587 c 0
 1318 939 1197 1187 915 1187 c 0
 532 1187 331 859 296 729 c 1
 355 795 472 846 585 846 c 0
 795 846 888 678 824 441 c 0
 763 212 633 -1 404 -1 c 0
 83 -1 91 327 162 592 c 0xbf
243 547 m 1
 170 273 260 172 369 172 c 0xbf
 491 172 585 297 623 437 c 1
 666 599 582 707 489 707 c 0
 367 707 281 615 243 547 c 1
EndSplineSet
EndChar

StartChar: u0BB5_u0BBF
Encoding: 241 -1 241
Width: 2354
GlyphClass: 2
Flags: HW
AnchorPoint: "V" 1616 1306 basechar 0
AnchorPoint: "N" 1616 0 basechar 0
LayerCount: 2
Fore
SplineSet
240 546 m 1xa7f0
 167 272 257 171 366 171 c 0
 488 171 582 296 620 436 c 0
 663 598 579 706 486 706 c 0
 364 706 278 614 240 546 c 1xa7f0
2400 1445 m 2
 2470 1708 2413 1832 2181 1832 c 0
 2030 1832 1852 1732 1794 1515 c 0
 1735 1294 1850 1243 1947 1243 c 1
 1956 1288 l 1
 2156 1288 l 1
 1810 -2 l 1
 832 -2 l 1x77f0
 1032 167 1161 362 1221 585 c 0
 1315 937 1194 1185 912 1185 c 0
 529 1185 327 857 292 727 c 1
 351 793 468 844 581 844 c 0
 791 844 885 676 821 439 c 0
 760 210 630 -3 401 -3 c 0
 80 -3 88 325 159 590 c 0
 274 1018 560 1286 943 1286 c 0xaff0
 1467 1286 1495 902 1412 593 c 0
 1362 408 1263 243 1115 99 c 1
 1639 99 l 1
 1919 1142 l 1
 1786 1142 1608 1224 1696 1551 c 0
 1776 1850 1967 2032 2235 2032 c 0
 2557 2032 2568 1777 2488 1477 c 2
 2092 -2 l 1
 2012 -2 l 1x77f0
 2400 1445 l 2
EndSplineSet
LCarets2: 1 0
EndChar

StartChar: u0BB5_u0BC0
Encoding: 242 -1 242
Width: 2319
GlyphClass: 2
Flags: HW
AnchorPoint: "V" 1616 1306 basechar 0
AnchorPoint: "N" 1616 0 basechar 0
LayerCount: 2
Fore
SplineSet
240 546 m 1xa7e4
 167 272 257 171 366 171 c 0
 488 171 582 296 620 436 c 0
 663 598 579 706 486 706 c 0
 364 706 278 614 240 546 c 1xa7e4
159 588 m 0
 274 1016 560 1284 943 1284 c 0xaff4
 1467 1284 1495 900 1412 591 c 0
 1362 406 1263 241 1115 97 c 1
 1640 97 l 1
 1914 1133 l 1
 1844 1133 1791 1171 1753 1246 c 0
 1715 1321 1712 1424 1747 1553 c 0
 1859 1971 2219 2076 2401 2076 c 0
 2530 2076 2637 2047 2723 1988 c 0
 2809 1929 2831 1828 2793 1685 c 0
 2744 1503 2587 1375 2405 1375 c 0
 2205 1375 2168 1528 2201 1653 c 0x77ec
 2225 1744 2296 1856 2381 1898 c 1
 2349 1903 2317 1906 2285 1906 c 0
 2066 1906 1884 1669 1844 1518 c 0
 1782 1285 1864 1202 1934 1202 c 1x77f4
 1956 1286 l 1
 2156 1286 l 1
 1811 -4 l 1
 832 -4 l 1
 1032 165 1161 360 1221 583 c 0
 1315 935 1194 1183 912 1183 c 0x6ff4
 529 1183 328 855 293 725 c 1
 352 791 469 842 582 842 c 0
 792 842 885 674 821 437 c 0
 760 208 630 -5 401 -5 c 0
 80 -5 88 323 159 588 c 0
2292 1651 m 0x27ec
 2268 1560 2306 1466 2406 1466 c 0
 2507 1466 2606 1553 2633 1653 c 0
 2660 1753 2621 1853 2500 1853 c 1
 2407 1834 2320 1756 2292 1651 c 0x27ec
EndSplineSet
LCarets2: 1 0
EndChar

StartChar: u0BB5_u0BC1
Encoding: 243 -1 243
Width: 2074
GlyphClass: 2
Flags: HW
AnchorPoint: "V" 1616 1306 basechar 0
AnchorPoint: "N" 1616 0 basechar 0
LayerCount: 2
Fore
SplineSet
162 592 m 0xbf
 277 1020 563 1288 946 1288 c 0
 1470 1288 1498 904 1415 595 c 0
 1365 410 1266 245 1118 101 c 1
 1642 101 l 1
 1961 1291 l 1
 2159 1291 l 1
 1710 -387 l 1
 1510 -387 l 1
 1613 0 l 1
 835 0 l 1x7f
 1035 169 1164 364 1224 587 c 0
 1318 939 1197 1187 915 1187 c 0
 532 1187 331 859 296 729 c 1
 355 795 472 846 585 846 c 0
 795 846 888 678 824 441 c 0
 763 212 633 -1 404 -1 c 0
 83 -1 91 327 162 592 c 0xbf
243 547 m 1
 170 273 260 172 369 172 c 0xbf
 491 172 585 297 623 437 c 0
 666 599 582 707 489 707 c 0
 367 707 281 615 243 547 c 1
EndSplineSet
LCarets2: 1 0
EndChar

StartChar: u0BB5_u0BC2
Encoding: 244 -1 244
Width: 2672
GlyphClass: 2
Flags: HW
AnchorPoint: "V" 1616 1306 basechar 0
AnchorPoint: "N" 1616 0 basechar 0
LayerCount: 2
Fore
SplineSet
1019 -363 m 0xcf5c
 1048 -254 997 -178 904 -178 c 0
 806 -178 706 -262 679 -363 c 0
 646 -485 704 -566 810 -566 c 1
 889 -549 986 -485 1019 -363 c 0xcf5c
2141 14 m 0
 2172 128 2096 235 2012 235 c 0
 1939 235 1885 203 1848 138 c 1
 1726 -315 l 1
 1526 -315 l 1
 1611 0 l 1
 834 0 l 1xdf5c
 1034 169 1163 364 1223 587 c 0
 1317 939 1196 1187 914 1187 c 0
 531 1187 330 859 295 729 c 1
 354 795 471 846 584 846 c 0
 794 846 887 678 823 441 c 0
 762 212 632 -1 403 -1 c 0xefac
 82 -1 90 327 161 592 c 0
 276 1020 562 1288 945 1288 c 0
 1469 1288 1497 904 1414 595 c 0
 1364 410 1265 245 1117 101 c 1
 1641 101 l 1xdfac
 1960 1291 l 1
 2160 1291 l 1
 1882 266 l 1
 1945 346 2039 377 2112 377 c 0
 2236 377 2428 254 2360 1 c 0
 2328 -117 2228 -342 1913 -535 c 0
 1767 -625 1492 -731 1090 -731 c 0
 579 -731 555 -515 594 -371 c 0
 643 -189 767 -92 943 -92 c 0
 1162 -92 1178 -249 1146 -368 c 0
 1120 -465 1045 -556 961 -597 c 1
 996 -632 1042 -641 1121 -641 c 0
 1368 -641 1673 -536 1821 -428 c 0
 1964 -324 2096 -155 2141 14 c 0
241 546 m 1
 168 272 258 171 367 171 c 0
 489 171 583 296 621 436 c 0xef8c
 664 598 580 706 487 706 c 0
 365 706 279 614 241 546 c 1
EndSplineSet
LCarets2: 1 0
EndChar

StartChar: u0BB5_u0BCD
Encoding: 245 -1 245
Width: 2074
GlyphClass: 2
Flags: HW
AnchorPoint: "N" 1616 0 basechar 0
LayerCount: 2
Fore
SplineSet
162 592 m 0xbec0
 277 1020 563 1288 946 1288 c 0
 1470 1288 1498 904 1415 595 c 0
 1365 410 1266 245 1118 101 c 1
 1642 101 l 1
 1961 1291 l 1
 2159 1291 l 1
 1813 0 l 1
 835 0 l 1x7ec0
 1035 169 1164 364 1224 587 c 0
 1318 939 1197 1187 915 1187 c 0
 532 1187 331 859 296 729 c 1
 355 795 472 846 585 846 c 0
 795 846 888 678 824 441 c 0
 763 212 633 -1 404 -1 c 0
 83 -1 91 327 162 592 c 0xbec0
243 547 m 1
 170 273 260 172 369 172 c 0xbe40
 491 172 585 297 623 437 c 1
 666 599 582 707 489 707 c 0
 367 707 281 615 243 547 c 1
1465 1667 m 0x3f40
 1490 1761 1579 1830 1658 1830 c 0
 1743 1830 1791 1759 1767 1667 c 0
 1743 1577 1654 1504 1572 1504 c 0
 1490 1504 1441 1578 1465 1667 c 0x3f40
EndSplineSet
LCarets2: 1 0
EndChar

StartChar: u0BB7
Encoding: 246 2999 246
Width: 2873
GlyphClass: 1
Flags: HW
HStem: 0 172<267.91 488.838> 0 102<1120 1975 2187 2491.31> 707 140<400.306 692> 1187 102<694.015 1089.54 1981.22 2208.04>
AnchorPoint: "V" 1723 1306 basechar 0
AnchorPoint: "N" 1723 -617 basechar 0
AnchorPoint: "R" 2266 1188 exit 0
LayerCount: 2
Fore
SplineSet
2243 1008 m 6x30
 2274 1124 2201 1179 2085 1179 c 0
 1963 1179 1874 1083 1837 944 c 0
 1816 867 1837 805 1900 758 c 0
 1963 711 2046 677 2149 656 c 1
 2243 1008 l 6x30
2298 515 m 1
 2187 100 l 1
 2357 100 l 2
 2470 100 2546 169 2583 308 c 0
 2608 401 2513 470 2298 515 c 1
1758 943 m 0
 1801 1104 1916 1289 2178 1289 c 256
 2448 1289 2469 1142 2443 1044 c 2
 2327 624 l 1
 2613 565 2736 456 2693 297 c 0
 2657 164 2557 0 2329 0 c 2
 2161 0 l 1
 1996 -617 l 1
 1810 -617 l 1
 1975 0 l 1
 836 0 l 1x70
 1036 169 1165 364 1225 587 c 0
 1319 939 1198 1187 916 1187 c 0
 536 1187 337 875 298 730 c 1
 357 796 474 847 587 847 c 0
 797 847 890 679 826 442 c 0
 765 213 635 0 406 0 c 0xb0
 85 0 93 328 164 593 c 0
 279 1021 565 1289 948 1289 c 0
 1472 1289 1500 905 1417 596 c 0
 1367 411 1268 246 1120 102 c 1
 2005 102 l 1x70
 2126 551 l 1
 1828 615 1705 746 1758 943 c 0
245 547 m 1
 172 273 262 172 371 172 c 0xb0
 493 172 587 297 625 437 c 0
 668 599 584 707 491 707 c 0
 369 707 283 615 245 547 c 1
EndSplineSet
EndChar

StartChar: u0BB7_u0BBF
Encoding: 247 -1 247
Width: 3166
GlyphClass: 2
Flags: HW
AnchorPoint: "V" 1723 1306 basechar 0
AnchorPoint: "N" 1723 -617 basechar 0
LayerCount: 2
Fore
SplineSet
2243 1008 m 2x3ff8
 2274 1124 2201 1179 2085 1179 c 0
 1963 1179 1874 1083 1837 944 c 0
 1787 757 2016 684 2149 656 c 1
 2243 1008 l 2x3ff8
242 545 m 1
 169 271 258 170 367 170 c 0xbff8
 489 170 583 295 621 435 c 0
 664 597 580 705 487 705 c 0
 365 705 280 613 242 545 c 1
2229 1584 m 0
 2335 1978 2646 2076 2917 2076 c 0
 3163 2076 3449 2010 3309 1489 c 2
 2909 -4 l 1
 2829 -4 l 1
 3228 1487 l 2
 3292 1725 3201 1883 2864 1883 c 0
 2564 1883 2377 1745 2303 1470 c 0
 2282 1391 2286 1324 2313 1270 c 1
 2448 1231 2464 1125 2442 1042 c 2
 2326 622 l 1
 2612 563 2734 454 2691 295 c 0
 2655 162 2555 -2 2327 -2 c 2
 2160 -2 l 1
 1994 -619 l 1
 1808 -619 l 1
 1974 -2 l 1
 835 -2 l 1x7ff8
 1035 167 1163 362 1223 585 c 0
 1317 937 1196 1185 914 1185 c 0
 534 1185 335 873 296 728 c 1
 355 794 472 845 585 845 c 0
 795 845 889 677 825 440 c 0
 764 211 634 -2 405 -2 c 0xbff8
 84 -2 92 326 163 591 c 0
 278 1019 563 1287 946 1287 c 0
 1470 1287 1498 903 1415 594 c 0
 1365 409 1267 244 1119 100 c 1
 2004 100 l 1x7ff8
 2124 549 l 1
 1826 613 1704 744 1757 941 c 0
 1819 1172 1971 1288 2215 1288 c 1
 2198 1335 2193 1451 2229 1584 c 0
2586 308 m 0
 2611 401 2516 470 2301 515 c 1
 2190 100 l 1
 2360 100 l 2
 2473 100 2549 169 2586 308 c 0
EndSplineSet
LCarets2: 1 0
EndChar

StartChar: u0BB7_u0BC0
Encoding: 248 -1 248
Width: 2873
GlyphClass: 2
Flags: HW
AnchorPoint: "V" 1723 1306 basechar 0
AnchorPoint: "N" 1723 -617 basechar 0
LayerCount: 2
Fore
SplineSet
2575 1975 m 0x7fec
 2363 1975 2204 1751 2160 1587 c 0
 2129 1472 2146 1372 2213 1287 c 1
 2377 1287 2480 1189 2441 1042 c 2
 2329 624 l 1
 2614 566 2735 458 2693 301 c 0
 2639 103 2506 1 2328 1 c 2
 2161 1 l 1
 1995 -616 l 1
 1809 -616 l 1
 1975 1 l 1
 835 1 l 1x7ff2
 1035 170 1164 365 1224 588 c 0
 1318 940 1197 1188 915 1188 c 0
 535 1188 336 876 297 731 c 1
 356 797 473 848 586 848 c 0
 796 848 889 680 825 443 c 0
 764 214 635 1 406 1 c 0xbff2
 85 1 93 329 164 594 c 0
 279 1022 564 1290 947 1290 c 0
 1471 1290 1499 906 1416 597 c 0
 1366 412 1267 247 1119 103 c 1
 2005 103 l 1
 2125 552 l 1
 1827 616 1705 747 1758 944 c 0
 1822 1182 1988 1287 2135 1287 c 1
 2078 1359 2026 1476 2065 1623 c 0
 2167 2003 2459 2146 2691 2146 c 0
 2909 2146 3167 2068 3083 1755 c 0
 3034 1573 2877 1445 2695 1445 c 0
 2495 1445 2458 1598 2491 1723 c 0
 2515 1814 2586 1925 2671 1967 c 1
 2639 1972 2607 1975 2575 1975 c 0x7fec
2580 1722 m 0x3fec
 2553 1622 2600 1536 2695 1536 c 0
 2798 1536 2893 1622 2920 1724 c 0
 2947 1825 2911 1925 2789 1925 c 1
 2696 1906 2608 1827 2580 1722 c 0x3fec
2247 1007 m 2
 2278 1123 2204 1178 2088 1178 c 0
 1966 1178 1877 1082 1840 943 c 0
 1824 885 1805 730 2153 655 c 1
 2247 1007 l 2
2588 307 m 0x3fe2
 2613 400 2518 469 2303 514 c 1
 2191 99 l 1
 2362 99 l 2
 2475 99 2551 168 2588 307 c 0x3fe2
245 544 m 1
 172 270 262 169 371 169 c 0xbfe0
 493 169 587 294 625 434 c 0
 668 596 584 704 491 704 c 0
 369 704 283 612 245 544 c 1
EndSplineSet
LCarets2: 1 0
EndChar

